<?xml version="1.0" encoding="utf-8" standalone="no"?>
<!DOCTYPE svg PUBLIC "-//W3C//DTD SVG 1.1//EN"
  "http://www.w3.org/Graphics/SVG/1.1/DTD/svg11.dtd">
<!-- Created with matplotlib (https://matplotlib.org/) -->
<svg height="288pt" version="1.1" viewBox="0 0 432 288" width="432pt" xmlns="http://www.w3.org/2000/svg" xmlns:xlink="http://www.w3.org/1999/xlink">
 <defs>
  <style type="text/css">
*{stroke-linecap:butt;stroke-linejoin:round;}
  </style>
 </defs>
 <g id="figure_1">
  <g id="patch_1">
   <path d="M 0 288 
L 432 288 
L 432 0 
L 0 0 
z
" style="fill:#ffffff;"/>
  </g>
  <g id="axes_1">
   <g id="patch_2">
    <path d="M 54 252 
L 388.8 252 
L 388.8 34.56 
L 54 34.56 
z
" style="fill:#eaeaf2;"/>
   </g>
   <g id="matplotlib.axis_1">
    <g id="xtick_1">
     <g id="line2d_1">
      <path clip-path="url(#p5b17b7e3c2)" d="M 74.946517 252 
L 74.946517 34.56 
" style="fill:none;stroke:#ffffff;stroke-linecap:round;"/>
     </g>
     <g id="text_1">
      <!-- −2 -->
      <defs>
       <path d="M 52.828125 31.203125 
L 5.5625 31.203125 
L 5.5625 39.40625 
L 52.828125 39.40625 
z
" id="ArialMT-8722"/>
       <path d="M 50.34375 8.453125 
L 50.34375 0 
L 3.03125 0 
Q 2.9375 3.171875 4.046875 6.109375 
Q 5.859375 10.9375 9.828125 15.625 
Q 13.8125 20.3125 21.34375 26.46875 
Q 33.015625 36.03125 37.109375 41.625 
Q 41.21875 47.21875 41.21875 52.203125 
Q 41.21875 57.421875 37.46875 61 
Q 33.734375 64.59375 27.734375 64.59375 
Q 21.390625 64.59375 17.578125 60.78125 
Q 13.765625 56.984375 13.71875 50.25 
L 4.6875 51.171875 
Q 5.609375 61.28125 11.65625 66.578125 
Q 17.71875 71.875 27.9375 71.875 
Q 38.234375 71.875 44.234375 66.15625 
Q 50.25 60.453125 50.25 52 
Q 50.25 47.703125 48.484375 43.546875 
Q 46.734375 39.40625 42.65625 34.8125 
Q 38.578125 30.21875 29.109375 22.21875 
Q 21.1875 15.578125 18.9375 13.203125 
Q 16.703125 10.84375 15.234375 8.453125 
z
" id="ArialMT-50"/>
      </defs>
      <g style="fill:#262626;" transform="translate(68.675658 269.373594)scale(0.11 -0.11)">
       <use xlink:href="#ArialMT-8722"/>
       <use x="58.398438" xlink:href="#ArialMT-50"/>
      </g>
     </g>
    </g>
    <g id="xtick_2">
     <g id="line2d_2">
      <path clip-path="url(#p5b17b7e3c2)" d="M 115.871602 252 
L 115.871602 34.56 
" style="fill:none;stroke:#ffffff;stroke-linecap:round;"/>
     </g>
     <g id="text_2">
      <!-- 0 -->
      <defs>
       <path d="M 4.15625 35.296875 
Q 4.15625 48 6.765625 55.734375 
Q 9.375 63.484375 14.515625 67.671875 
Q 19.671875 71.875 27.484375 71.875 
Q 33.25 71.875 37.59375 69.546875 
Q 41.9375 67.234375 44.765625 62.859375 
Q 47.609375 58.5 49.21875 52.21875 
Q 50.828125 45.953125 50.828125 35.296875 
Q 50.828125 22.703125 48.234375 14.96875 
Q 45.65625 7.234375 40.5 3 
Q 35.359375 -1.21875 27.484375 -1.21875 
Q 17.140625 -1.21875 11.234375 6.203125 
Q 4.15625 15.140625 4.15625 35.296875 
z
M 13.1875 35.296875 
Q 13.1875 17.671875 17.3125 11.828125 
Q 21.4375 6 27.484375 6 
Q 33.546875 6 37.671875 11.859375 
Q 41.796875 17.71875 41.796875 35.296875 
Q 41.796875 52.984375 37.671875 58.78125 
Q 33.546875 64.59375 27.390625 64.59375 
Q 21.34375 64.59375 17.71875 59.46875 
Q 13.1875 52.9375 13.1875 35.296875 
z
" id="ArialMT-48"/>
      </defs>
      <g style="fill:#262626;" transform="translate(112.813086 269.373594)scale(0.11 -0.11)">
       <use xlink:href="#ArialMT-48"/>
      </g>
     </g>
    </g>
    <g id="xtick_3">
     <g id="line2d_3">
      <path clip-path="url(#p5b17b7e3c2)" d="M 156.796687 252 
L 156.796687 34.56 
" style="fill:none;stroke:#ffffff;stroke-linecap:round;"/>
     </g>
     <g id="text_3">
      <!-- 2 -->
      <g style="fill:#262626;" transform="translate(153.738171 269.373594)scale(0.11 -0.11)">
       <use xlink:href="#ArialMT-50"/>
      </g>
     </g>
    </g>
    <g id="xtick_4">
     <g id="line2d_4">
      <path clip-path="url(#p5b17b7e3c2)" d="M 197.721772 252 
L 197.721772 34.56 
" style="fill:none;stroke:#ffffff;stroke-linecap:round;"/>
     </g>
     <g id="text_4">
      <!-- 4 -->
      <defs>
       <path d="M 32.328125 0 
L 32.328125 17.140625 
L 1.265625 17.140625 
L 1.265625 25.203125 
L 33.9375 71.578125 
L 41.109375 71.578125 
L 41.109375 25.203125 
L 50.78125 25.203125 
L 50.78125 17.140625 
L 41.109375 17.140625 
L 41.109375 0 
z
M 32.328125 25.203125 
L 32.328125 57.46875 
L 9.90625 25.203125 
z
" id="ArialMT-52"/>
      </defs>
      <g style="fill:#262626;" transform="translate(194.663256 269.373594)scale(0.11 -0.11)">
       <use xlink:href="#ArialMT-52"/>
      </g>
     </g>
    </g>
    <g id="xtick_5">
     <g id="line2d_5">
      <path clip-path="url(#p5b17b7e3c2)" d="M 238.646856 252 
L 238.646856 34.56 
" style="fill:none;stroke:#ffffff;stroke-linecap:round;"/>
     </g>
     <g id="text_5">
      <!-- 6 -->
      <defs>
       <path d="M 49.75 54.046875 
L 41.015625 53.375 
Q 39.84375 58.546875 37.703125 60.890625 
Q 34.125 64.65625 28.90625 64.65625 
Q 24.703125 64.65625 21.53125 62.3125 
Q 17.390625 59.28125 14.984375 53.46875 
Q 12.59375 47.65625 12.5 36.921875 
Q 15.671875 41.75 20.265625 44.09375 
Q 24.859375 46.4375 29.890625 46.4375 
Q 38.671875 46.4375 44.84375 39.96875 
Q 51.03125 33.5 51.03125 23.25 
Q 51.03125 16.5 48.125 10.71875 
Q 45.21875 4.9375 40.140625 1.859375 
Q 35.0625 -1.21875 28.609375 -1.21875 
Q 17.625 -1.21875 10.6875 6.859375 
Q 3.765625 14.9375 3.765625 33.5 
Q 3.765625 54.25 11.421875 63.671875 
Q 18.109375 71.875 29.4375 71.875 
Q 37.890625 71.875 43.28125 67.140625 
Q 48.6875 62.40625 49.75 54.046875 
z
M 13.875 23.1875 
Q 13.875 18.65625 15.796875 14.5 
Q 17.71875 10.359375 21.1875 8.171875 
Q 24.65625 6 28.46875 6 
Q 34.03125 6 38.03125 10.484375 
Q 42.046875 14.984375 42.046875 22.703125 
Q 42.046875 30.125 38.078125 34.390625 
Q 34.125 38.671875 28.125 38.671875 
Q 22.171875 38.671875 18.015625 34.390625 
Q 13.875 30.125 13.875 23.1875 
z
" id="ArialMT-54"/>
      </defs>
      <g style="fill:#262626;" transform="translate(235.588341 269.373594)scale(0.11 -0.11)">
       <use xlink:href="#ArialMT-54"/>
      </g>
     </g>
    </g>
    <g id="xtick_6">
     <g id="line2d_6">
      <path clip-path="url(#p5b17b7e3c2)" d="M 279.571941 252 
L 279.571941 34.56 
" style="fill:none;stroke:#ffffff;stroke-linecap:round;"/>
     </g>
     <g id="text_6">
      <!-- 8 -->
      <defs>
       <path d="M 17.671875 38.8125 
Q 12.203125 40.828125 9.5625 44.53125 
Q 6.9375 48.25 6.9375 53.421875 
Q 6.9375 61.234375 12.546875 66.546875 
Q 18.171875 71.875 27.484375 71.875 
Q 36.859375 71.875 42.578125 66.421875 
Q 48.296875 60.984375 48.296875 53.171875 
Q 48.296875 48.1875 45.671875 44.5 
Q 43.0625 40.828125 37.75 38.8125 
Q 44.34375 36.671875 47.78125 31.875 
Q 51.21875 27.09375 51.21875 20.453125 
Q 51.21875 11.28125 44.71875 5.03125 
Q 38.234375 -1.21875 27.640625 -1.21875 
Q 17.046875 -1.21875 10.546875 5.046875 
Q 4.046875 11.328125 4.046875 20.703125 
Q 4.046875 27.6875 7.59375 32.390625 
Q 11.140625 37.109375 17.671875 38.8125 
z
M 15.921875 53.71875 
Q 15.921875 48.640625 19.1875 45.40625 
Q 22.46875 42.1875 27.6875 42.1875 
Q 32.765625 42.1875 36.015625 45.375 
Q 39.265625 48.578125 39.265625 53.21875 
Q 39.265625 58.0625 35.90625 61.359375 
Q 32.5625 64.65625 27.59375 64.65625 
Q 22.5625 64.65625 19.234375 61.421875 
Q 15.921875 58.203125 15.921875 53.71875 
z
M 13.09375 20.65625 
Q 13.09375 16.890625 14.875 13.375 
Q 16.65625 9.859375 20.171875 7.921875 
Q 23.6875 6 27.734375 6 
Q 34.03125 6 38.125 10.046875 
Q 42.234375 14.109375 42.234375 20.359375 
Q 42.234375 26.703125 38.015625 30.859375 
Q 33.796875 35.015625 27.4375 35.015625 
Q 21.234375 35.015625 17.15625 30.90625 
Q 13.09375 26.8125 13.09375 20.65625 
z
" id="ArialMT-56"/>
      </defs>
      <g style="fill:#262626;" transform="translate(276.513425 269.373594)scale(0.11 -0.11)">
       <use xlink:href="#ArialMT-56"/>
      </g>
     </g>
    </g>
    <g id="xtick_7">
     <g id="line2d_7">
      <path clip-path="url(#p5b17b7e3c2)" d="M 320.497026 252 
L 320.497026 34.56 
" style="fill:none;stroke:#ffffff;stroke-linecap:round;"/>
     </g>
     <g id="text_7">
      <!-- 10 -->
      <defs>
       <path d="M 37.25 0 
L 28.46875 0 
L 28.46875 56 
Q 25.296875 52.984375 20.140625 49.953125 
Q 14.984375 46.921875 10.890625 45.40625 
L 10.890625 53.90625 
Q 18.265625 57.375 23.78125 62.296875 
Q 29.296875 67.234375 31.59375 71.875 
L 37.25 71.875 
z
" id="ArialMT-49"/>
      </defs>
      <g style="fill:#262626;" transform="translate(314.379994 269.373594)scale(0.11 -0.11)">
       <use xlink:href="#ArialMT-49"/>
       <use x="55.615234" xlink:href="#ArialMT-48"/>
      </g>
     </g>
    </g>
    <g id="xtick_8">
     <g id="line2d_8">
      <path clip-path="url(#p5b17b7e3c2)" d="M 361.42211 252 
L 361.42211 34.56 
" style="fill:none;stroke:#ffffff;stroke-linecap:round;"/>
     </g>
     <g id="text_8">
      <!-- 12 -->
      <g style="fill:#262626;" transform="translate(355.305079 269.373594)scale(0.11 -0.11)">
       <use xlink:href="#ArialMT-49"/>
       <use x="55.615234" xlink:href="#ArialMT-50"/>
      </g>
     </g>
    </g>
    <g id="text_9">
     <!-- IC50_CCLE -->
     <defs>
      <path d="M 9.328125 0 
L 9.328125 71.578125 
L 18.796875 71.578125 
L 18.796875 0 
z
" id="ArialMT-73"/>
      <path d="M 58.796875 25.09375 
L 68.265625 22.703125 
Q 65.28125 11.03125 57.546875 4.90625 
Q 49.8125 -1.21875 38.625 -1.21875 
Q 27.046875 -1.21875 19.796875 3.484375 
Q 12.546875 8.203125 8.765625 17.140625 
Q 4.984375 26.078125 4.984375 36.328125 
Q 4.984375 47.515625 9.25 55.828125 
Q 13.53125 64.15625 21.40625 68.46875 
Q 29.296875 72.796875 38.765625 72.796875 
Q 49.515625 72.796875 56.828125 67.328125 
Q 64.15625 61.859375 67.046875 51.953125 
L 57.71875 49.75 
Q 55.21875 57.5625 50.484375 61.125 
Q 45.75 64.703125 38.578125 64.703125 
Q 30.328125 64.703125 24.78125 60.734375 
Q 19.234375 56.78125 16.984375 50.109375 
Q 14.75 43.453125 14.75 36.375 
Q 14.75 27.25 17.40625 20.4375 
Q 20.0625 13.625 25.671875 10.25 
Q 31.296875 6.890625 37.84375 6.890625 
Q 45.796875 6.890625 51.3125 11.46875 
Q 56.84375 16.0625 58.796875 25.09375 
z
" id="ArialMT-67"/>
      <path d="M 4.15625 18.75 
L 13.375 19.53125 
Q 14.40625 12.796875 18.140625 9.390625 
Q 21.875 6 27.15625 6 
Q 33.5 6 37.890625 10.78125 
Q 42.28125 15.578125 42.28125 23.484375 
Q 42.28125 31 38.0625 35.34375 
Q 33.84375 39.703125 27 39.703125 
Q 22.75 39.703125 19.328125 37.765625 
Q 15.921875 35.84375 13.96875 32.765625 
L 5.71875 33.84375 
L 12.640625 70.609375 
L 48.25 70.609375 
L 48.25 62.203125 
L 19.671875 62.203125 
L 15.828125 42.96875 
Q 22.265625 47.46875 29.34375 47.46875 
Q 38.71875 47.46875 45.15625 40.96875 
Q 51.609375 34.46875 51.609375 24.265625 
Q 51.609375 14.546875 45.953125 7.46875 
Q 39.0625 -1.21875 27.15625 -1.21875 
Q 17.390625 -1.21875 11.203125 4.25 
Q 5.03125 9.71875 4.15625 18.75 
z
" id="ArialMT-53"/>
      <path d="M -1.515625 -19.875 
L -1.515625 -13.53125 
L 56.734375 -13.53125 
L 56.734375 -19.875 
z
" id="ArialMT-95"/>
      <path d="M 7.328125 0 
L 7.328125 71.578125 
L 16.796875 71.578125 
L 16.796875 8.453125 
L 52.046875 8.453125 
L 52.046875 0 
z
" id="ArialMT-76"/>
      <path d="M 7.90625 0 
L 7.90625 71.578125 
L 59.671875 71.578125 
L 59.671875 63.140625 
L 17.390625 63.140625 
L 17.390625 41.21875 
L 56.984375 41.21875 
L 56.984375 32.8125 
L 17.390625 32.8125 
L 17.390625 8.453125 
L 61.328125 8.453125 
L 61.328125 0 
z
" id="ArialMT-69"/>
     </defs>
     <g style="fill:#262626;" transform="translate(184.049531 285.751406)scale(0.14 -0.14)">
      <use xlink:href="#ArialMT-73"/>
      <use x="27.783203" xlink:href="#ArialMT-67"/>
      <use x="100" xlink:href="#ArialMT-53"/>
      <use x="155.615234" xlink:href="#ArialMT-48"/>
      <use x="211.230469" xlink:href="#ArialMT-95"/>
      <use x="266.845703" xlink:href="#ArialMT-67"/>
      <use x="339.0625" xlink:href="#ArialMT-67"/>
      <use x="411.279297" xlink:href="#ArialMT-76"/>
      <use x="466.894531" xlink:href="#ArialMT-69"/>
     </g>
    </g>
   </g>
   <g id="matplotlib.axis_2">
    <g id="ytick_1">
     <g id="line2d_9">
      <path clip-path="url(#p5b17b7e3c2)" d="M 54 242.171962 
L 388.8 242.171962 
" style="fill:none;stroke:#ffffff;stroke-linecap:round;"/>
     </g>
     <g id="text_10">
      <!-- 0.0 -->
      <defs>
       <path d="M 9.078125 0 
L 9.078125 10.015625 
L 19.09375 10.015625 
L 19.09375 0 
z
" id="ArialMT-46"/>
      </defs>
      <g style="fill:#262626;" transform="translate(29.21 246.108759)scale(0.11 -0.11)">
       <use xlink:href="#ArialMT-48"/>
       <use x="55.615234" xlink:href="#ArialMT-46"/>
       <use x="83.398438" xlink:href="#ArialMT-48"/>
      </g>
     </g>
    </g>
    <g id="ytick_2">
     <g id="line2d_10">
      <path clip-path="url(#p5b17b7e3c2)" d="M 54 215.173395 
L 388.8 215.173395 
" style="fill:none;stroke:#ffffff;stroke-linecap:round;"/>
     </g>
     <g id="text_11">
      <!-- 2.5 -->
      <g style="fill:#262626;" transform="translate(29.21 219.110192)scale(0.11 -0.11)">
       <use xlink:href="#ArialMT-50"/>
       <use x="55.615234" xlink:href="#ArialMT-46"/>
       <use x="83.398438" xlink:href="#ArialMT-53"/>
      </g>
     </g>
    </g>
    <g id="ytick_3">
     <g id="line2d_11">
      <path clip-path="url(#p5b17b7e3c2)" d="M 54 188.174829 
L 388.8 188.174829 
" style="fill:none;stroke:#ffffff;stroke-linecap:round;"/>
     </g>
     <g id="text_12">
      <!-- 5.0 -->
      <g style="fill:#262626;" transform="translate(29.21 192.111626)scale(0.11 -0.11)">
       <use xlink:href="#ArialMT-53"/>
       <use x="55.615234" xlink:href="#ArialMT-46"/>
       <use x="83.398438" xlink:href="#ArialMT-48"/>
      </g>
     </g>
    </g>
    <g id="ytick_4">
     <g id="line2d_12">
      <path clip-path="url(#p5b17b7e3c2)" d="M 54 161.176262 
L 388.8 161.176262 
" style="fill:none;stroke:#ffffff;stroke-linecap:round;"/>
     </g>
     <g id="text_13">
      <!-- 7.5 -->
      <defs>
       <path d="M 4.734375 62.203125 
L 4.734375 70.65625 
L 51.078125 70.65625 
L 51.078125 63.8125 
Q 44.234375 56.546875 37.515625 44.484375 
Q 30.8125 32.421875 27.15625 19.671875 
Q 24.515625 10.6875 23.78125 0 
L 14.75 0 
Q 14.890625 8.453125 18.0625 20.40625 
Q 21.234375 32.375 27.171875 43.484375 
Q 33.109375 54.59375 39.796875 62.203125 
z
" id="ArialMT-55"/>
      </defs>
      <g style="fill:#262626;" transform="translate(29.21 165.113059)scale(0.11 -0.11)">
       <use xlink:href="#ArialMT-55"/>
       <use x="55.615234" xlink:href="#ArialMT-46"/>
       <use x="83.398438" xlink:href="#ArialMT-53"/>
      </g>
     </g>
    </g>
    <g id="ytick_5">
     <g id="line2d_13">
      <path clip-path="url(#p5b17b7e3c2)" d="M 54 134.177696 
L 388.8 134.177696 
" style="fill:none;stroke:#ffffff;stroke-linecap:round;"/>
     </g>
     <g id="text_14">
      <!-- 10.0 -->
      <g style="fill:#262626;" transform="translate(23.092969 138.114492)scale(0.11 -0.11)">
       <use xlink:href="#ArialMT-49"/>
       <use x="55.615234" xlink:href="#ArialMT-48"/>
       <use x="111.230469" xlink:href="#ArialMT-46"/>
       <use x="139.013672" xlink:href="#ArialMT-48"/>
      </g>
     </g>
    </g>
    <g id="ytick_6">
     <g id="line2d_14">
      <path clip-path="url(#p5b17b7e3c2)" d="M 54 107.179129 
L 388.8 107.179129 
" style="fill:none;stroke:#ffffff;stroke-linecap:round;"/>
     </g>
     <g id="text_15">
      <!-- 12.5 -->
      <g style="fill:#262626;" transform="translate(23.092969 111.115926)scale(0.11 -0.11)">
       <use xlink:href="#ArialMT-49"/>
       <use x="55.615234" xlink:href="#ArialMT-50"/>
       <use x="111.230469" xlink:href="#ArialMT-46"/>
       <use x="139.013672" xlink:href="#ArialMT-53"/>
      </g>
     </g>
    </g>
    <g id="ytick_7">
     <g id="line2d_15">
      <path clip-path="url(#p5b17b7e3c2)" d="M 54 80.180562 
L 388.8 80.180562 
" style="fill:none;stroke:#ffffff;stroke-linecap:round;"/>
     </g>
     <g id="text_16">
      <!-- 15.0 -->
      <g style="fill:#262626;" transform="translate(23.092969 84.117359)scale(0.11 -0.11)">
       <use xlink:href="#ArialMT-49"/>
       <use x="55.615234" xlink:href="#ArialMT-53"/>
       <use x="111.230469" xlink:href="#ArialMT-46"/>
       <use x="139.013672" xlink:href="#ArialMT-48"/>
      </g>
     </g>
    </g>
    <g id="ytick_8">
     <g id="line2d_16">
      <path clip-path="url(#p5b17b7e3c2)" d="M 54 53.181996 
L 388.8 53.181996 
" style="fill:none;stroke:#ffffff;stroke-linecap:round;"/>
     </g>
     <g id="text_17">
      <!-- 17.5 -->
      <g style="fill:#262626;" transform="translate(23.092969 57.118793)scale(0.11 -0.11)">
       <use xlink:href="#ArialMT-49"/>
       <use x="55.615234" xlink:href="#ArialMT-55"/>
       <use x="111.230469" xlink:href="#ArialMT-46"/>
       <use x="139.013672" xlink:href="#ArialMT-53"/>
      </g>
     </g>
    </g>
    <g id="text_18">
     <!-- IC50_GDSC1 -->
     <defs>
      <path d="M 41.21875 28.078125 
L 41.21875 36.46875 
L 71.53125 36.53125 
L 71.53125 9.96875 
Q 64.546875 4.390625 57.125 1.578125 
Q 49.703125 -1.21875 41.890625 -1.21875 
Q 31.34375 -1.21875 22.71875 3.296875 
Q 14.109375 7.8125 9.71875 16.359375 
Q 5.328125 24.90625 5.328125 35.453125 
Q 5.328125 45.90625 9.6875 54.953125 
Q 14.0625 64.015625 22.265625 68.40625 
Q 30.46875 72.796875 41.15625 72.796875 
Q 48.921875 72.796875 55.1875 70.28125 
Q 61.46875 67.78125 65.03125 63.28125 
Q 68.609375 58.796875 70.453125 51.5625 
L 61.921875 49.21875 
Q 60.296875 54.6875 57.90625 57.8125 
Q 55.515625 60.9375 51.0625 62.8125 
Q 46.625 64.703125 41.21875 64.703125 
Q 34.71875 64.703125 29.984375 62.71875 
Q 25.25 60.75 22.34375 57.515625 
Q 19.4375 54.296875 17.828125 50.4375 
Q 15.09375 43.796875 15.09375 36.03125 
Q 15.09375 26.46875 18.390625 20.015625 
Q 21.6875 13.578125 27.984375 10.453125 
Q 34.28125 7.328125 41.359375 7.328125 
Q 47.515625 7.328125 53.375 9.6875 
Q 59.234375 12.0625 62.25 14.75 
L 62.25 28.078125 
z
" id="ArialMT-71"/>
      <path d="M 7.71875 0 
L 7.71875 71.578125 
L 32.375 71.578125 
Q 40.71875 71.578125 45.125 70.5625 
Q 51.265625 69.140625 55.609375 65.4375 
Q 61.28125 60.640625 64.078125 53.1875 
Q 66.890625 45.75 66.890625 36.1875 
Q 66.890625 28.03125 64.984375 21.734375 
Q 63.09375 15.4375 60.109375 11.296875 
Q 57.125 7.171875 53.578125 4.796875 
Q 50.046875 2.4375 45.046875 1.21875 
Q 40.046875 0 33.546875 0 
z
M 17.1875 8.453125 
L 32.46875 8.453125 
Q 39.546875 8.453125 43.578125 9.765625 
Q 47.609375 11.078125 50 13.484375 
Q 53.375 16.84375 55.25 22.53125 
Q 57.125 28.21875 57.125 36.328125 
Q 57.125 47.5625 53.4375 53.59375 
Q 49.75 59.625 44.484375 61.671875 
Q 40.671875 63.140625 32.234375 63.140625 
L 17.1875 63.140625 
z
" id="ArialMT-68"/>
      <path d="M 4.5 23 
L 13.421875 23.78125 
Q 14.0625 18.40625 16.375 14.96875 
Q 18.703125 11.53125 23.578125 9.40625 
Q 28.46875 7.28125 34.578125 7.28125 
Q 39.984375 7.28125 44.140625 8.890625 
Q 48.296875 10.5 50.3125 13.296875 
Q 52.34375 16.109375 52.34375 19.4375 
Q 52.34375 22.796875 50.390625 25.3125 
Q 48.4375 27.828125 43.953125 29.546875 
Q 41.0625 30.671875 31.203125 33.03125 
Q 21.34375 35.40625 17.390625 37.5 
Q 12.25 40.1875 9.734375 44.15625 
Q 7.234375 48.140625 7.234375 53.078125 
Q 7.234375 58.5 10.296875 63.203125 
Q 13.375 67.921875 19.28125 70.359375 
Q 25.203125 72.796875 32.421875 72.796875 
Q 40.375 72.796875 46.453125 70.234375 
Q 52.546875 67.671875 55.8125 62.6875 
Q 59.078125 57.71875 59.328125 51.421875 
L 50.25 50.734375 
Q 49.515625 57.515625 45.28125 60.984375 
Q 41.0625 64.453125 32.8125 64.453125 
Q 24.21875 64.453125 20.28125 61.296875 
Q 16.359375 58.15625 16.359375 53.71875 
Q 16.359375 49.859375 19.140625 47.359375 
Q 21.875 44.875 33.421875 42.265625 
Q 44.96875 39.65625 49.265625 37.703125 
Q 55.515625 34.8125 58.484375 30.390625 
Q 61.46875 25.984375 61.46875 20.21875 
Q 61.46875 14.5 58.203125 9.4375 
Q 54.9375 4.390625 48.796875 1.578125 
Q 42.671875 -1.21875 35.015625 -1.21875 
Q 25.296875 -1.21875 18.71875 1.609375 
Q 12.15625 4.4375 8.421875 10.125 
Q 4.6875 15.828125 4.5 23 
z
" id="ArialMT-83"/>
     </defs>
     <g style="fill:#262626;" transform="translate(16.310469 186.075156)rotate(-90)scale(0.14 -0.14)">
      <use xlink:href="#ArialMT-73"/>
      <use x="27.783203" xlink:href="#ArialMT-67"/>
      <use x="100" xlink:href="#ArialMT-53"/>
      <use x="155.615234" xlink:href="#ArialMT-48"/>
      <use x="211.230469" xlink:href="#ArialMT-95"/>
      <use x="266.845703" xlink:href="#ArialMT-71"/>
      <use x="344.628906" xlink:href="#ArialMT-68"/>
      <use x="416.845703" xlink:href="#ArialMT-83"/>
      <use x="483.544922" xlink:href="#ArialMT-67"/>
      <use x="555.761719" xlink:href="#ArialMT-49"/>
     </g>
    </g>
   </g>
   <g id="PathCollection_1">
    <defs>
     <path d="M 0 3 
C 0.795609 3 1.55874 2.683901 2.12132 2.12132 
C 2.683901 1.55874 3 0.795609 3 0 
C 3 -0.795609 2.683901 -1.55874 2.12132 -2.12132 
C 1.55874 -2.683901 0.795609 -3 0 -3 
C -0.795609 -3 -1.55874 -2.683901 -2.12132 -2.12132 
C -2.683901 -1.55874 -3 -0.795609 -3 0 
C -3 0.795609 -2.683901 1.55874 -2.12132 2.12132 
C -1.55874 2.683901 -0.795609 3 0 3 
z
" id="m5a289c5589" style="stroke:#ffffff;stroke-width:0.75;"/>
    </defs>
    <g clip-path="url(#p5b17b7e3c2)">
     <use style="fill:#4c72b0;stroke:#ffffff;stroke-width:0.75;" x="333.410066" xlink:href="#m5a289c5589" y="135.382198"/>
     <use style="fill:#4c72b0;stroke:#ffffff;stroke-width:0.75;" x="328.408651" xlink:href="#m5a289c5589" y="142.45614"/>
     <use style="fill:#4c72b0;stroke:#ffffff;stroke-width:0.75;" x="198.459546" xlink:href="#m5a289c5589" y="137.734486"/>
     <use style="fill:#4c72b0;stroke:#ffffff;stroke-width:0.75;" x="349.301706" xlink:href="#m5a289c5589" y="150.2744"/>
     <use style="fill:#4c72b0;stroke:#ffffff;stroke-width:0.75;" x="304.151613" xlink:href="#m5a289c5589" y="136.114545"/>
     <use style="fill:#4c72b0;stroke:#ffffff;stroke-width:0.75;" x="348.480473" xlink:href="#m5a289c5589" y="178.930331"/>
     <use style="fill:#4c72b0;stroke:#ffffff;stroke-width:0.75;" x="179.01643" xlink:href="#m5a289c5589" y="145.968326"/>
     <use style="fill:#4c72b0;stroke:#ffffff;stroke-width:0.75;" x="187.685857" xlink:href="#m5a289c5589" y="199.343657"/>
     <use style="fill:#4c72b0;stroke:#ffffff;stroke-width:0.75;" x="166.619828" xlink:href="#m5a289c5589" y="216.441379"/>
     <use style="fill:#4c72b0;stroke:#ffffff;stroke-width:0.75;" x="373.375629" xlink:href="#m5a289c5589" y="120.082994"/>
     <use style="fill:#4c72b0;stroke:#ffffff;stroke-width:0.75;" x="219.445525" xlink:href="#m5a289c5589" y="115.649585"/>
     <use style="fill:#4c72b0;stroke:#ffffff;stroke-width:0.75;" x="208.209176" xlink:href="#m5a289c5589" y="143.154962"/>
     <use style="fill:#4c72b0;stroke:#ffffff;stroke-width:0.75;" x="211.197248" xlink:href="#m5a289c5589" y="174.954152"/>
     <use style="fill:#4c72b0;stroke:#ffffff;stroke-width:0.75;" x="198.727322" xlink:href="#m5a289c5589" y="154.499805"/>
     <use style="fill:#4c72b0;stroke:#ffffff;stroke-width:0.75;" x="326.095781" xlink:href="#m5a289c5589" y="141.925853"/>
     <use style="fill:#4c72b0;stroke:#ffffff;stroke-width:0.75;" x="232.892764" xlink:href="#m5a289c5589" y="154.313541"/>
     <use style="fill:#4c72b0;stroke:#ffffff;stroke-width:0.75;" x="198.230022" xlink:href="#m5a289c5589" y="149.164797"/>
     <use style="fill:#4c72b0;stroke:#ffffff;stroke-width:0.75;" x="359.268454" xlink:href="#m5a289c5589" y="129.278341"/>
     <use style="fill:#4c72b0;stroke:#ffffff;stroke-width:0.75;" x="339.184142" xlink:href="#m5a289c5589" y="70.898197"/>
     <use style="fill:#4c72b0;stroke:#ffffff;stroke-width:0.75;" x="234.879082" xlink:href="#m5a289c5589" y="156.875562"/>
     <use style="fill:#4c72b0;stroke:#ffffff;stroke-width:0.75;" x="203.833191" xlink:href="#m5a289c5589" y="142.76169"/>
     <use style="fill:#4c72b0;stroke:#ffffff;stroke-width:0.75;" x="288.654462" xlink:href="#m5a289c5589" y="142.082274"/>
     <use style="fill:#4c72b0;stroke:#ffffff;stroke-width:0.75;" x="268.316343" xlink:href="#m5a289c5589" y="141.179061"/>
     <use style="fill:#4c72b0;stroke:#ffffff;stroke-width:0.75;" x="201.608911" xlink:href="#m5a289c5589" y="162.253342"/>
     <use style="fill:#4c72b0;stroke:#ffffff;stroke-width:0.75;" x="250.368228" xlink:href="#m5a289c5589" y="123.402519"/>
     <use style="fill:#4c72b0;stroke:#ffffff;stroke-width:0.75;" x="338.806553" xlink:href="#m5a289c5589" y="195.649985"/>
     <use style="fill:#4c72b0;stroke:#ffffff;stroke-width:0.75;" x="333.293276" xlink:href="#m5a289c5589" y="133.518462"/>
     <use style="fill:#4c72b0;stroke:#ffffff;stroke-width:0.75;" x="269.364823" xlink:href="#m5a289c5589" y="157.951181"/>
     <use style="fill:#4c72b0;stroke:#ffffff;stroke-width:0.75;" x="340.661452" xlink:href="#m5a289c5589" y="133.317266"/>
     <use style="fill:#4c72b0;stroke:#ffffff;stroke-width:0.75;" x="338.15314" xlink:href="#m5a289c5589" y="130.385053"/>
     <use style="fill:#4c72b0;stroke:#ffffff;stroke-width:0.75;" x="373.561649" xlink:href="#m5a289c5589" y="143.492681"/>
     <use style="fill:#4c72b0;stroke:#ffffff;stroke-width:0.75;" x="69.238351" xlink:href="#m5a289c5589" y="129.465826"/>
     <use style="fill:#4c72b0;stroke:#ffffff;stroke-width:0.75;" x="265.860585" xlink:href="#m5a289c5589" y="132.876239"/>
     <use style="fill:#4c72b0;stroke:#ffffff;stroke-width:0.75;" x="177.015427" xlink:href="#m5a289c5589" y="150.645776"/>
     <use style="fill:#4c72b0;stroke:#ffffff;stroke-width:0.75;" x="189.274116" xlink:href="#m5a289c5589" y="135.873936"/>
     <use style="fill:#4c72b0;stroke:#ffffff;stroke-width:0.75;" x="301.626327" xlink:href="#m5a289c5589" y="158.030724"/>
     <use style="fill:#4c72b0;stroke:#ffffff;stroke-width:0.75;" x="175.693012" xlink:href="#m5a289c5589" y="183.053409"/>
     <use style="fill:#4c72b0;stroke:#ffffff;stroke-width:0.75;" x="181.383299" xlink:href="#m5a289c5589" y="173.879"/>
     <use style="fill:#4c72b0;stroke:#ffffff;stroke-width:0.75;" x="180.040849" xlink:href="#m5a289c5589" y="152.481893"/>
     <use style="fill:#4c72b0;stroke:#ffffff;stroke-width:0.75;" x="166.468421" xlink:href="#m5a289c5589" y="155.765051"/>
     <use style="fill:#4c72b0;stroke:#ffffff;stroke-width:0.75;" x="295.133521" xlink:href="#m5a289c5589" y="152.567368"/>
     <use style="fill:#4c72b0;stroke:#ffffff;stroke-width:0.75;" x="199.913537" xlink:href="#m5a289c5589" y="143.478957"/>
     <use style="fill:#4c72b0;stroke:#ffffff;stroke-width:0.75;" x="304.243275" xlink:href="#m5a289c5589" y="191.877426"/>
     <use style="fill:#4c72b0;stroke:#ffffff;stroke-width:0.75;" x="216.406378" xlink:href="#m5a289c5589" y="155.609578"/>
     <use style="fill:#4c72b0;stroke:#ffffff;stroke-width:0.75;" x="351.763365" xlink:href="#m5a289c5589" y="127.139727"/>
     <use style="fill:#4c72b0;stroke:#ffffff;stroke-width:0.75;" x="163.908622" xlink:href="#m5a289c5589" y="146.050729"/>
     <use style="fill:#4c72b0;stroke:#ffffff;stroke-width:0.75;" x="182.658766" xlink:href="#m5a289c5589" y="130.429766"/>
     <use style="fill:#4c72b0;stroke:#ffffff;stroke-width:0.75;" x="358.373027" xlink:href="#m5a289c5589" y="114.289868"/>
     <use style="fill:#4c72b0;stroke:#ffffff;stroke-width:0.75;" x="264.276191" xlink:href="#m5a289c5589" y="135.253915"/>
     <use style="fill:#4c72b0;stroke:#ffffff;stroke-width:0.75;" x="289.899859" xlink:href="#m5a289c5589" y="190.827447"/>
     <use style="fill:#4c72b0;stroke:#ffffff;stroke-width:0.75;" x="314.678651" xlink:href="#m5a289c5589" y="173.965316"/>
     <use style="fill:#4c72b0;stroke:#ffffff;stroke-width:0.75;" x="228.14883" xlink:href="#m5a289c5589" y="144.494272"/>
     <use style="fill:#4c72b0;stroke:#ffffff;stroke-width:0.75;" x="297.152106" xlink:href="#m5a289c5589" y="139.198285"/>
     <use style="fill:#4c72b0;stroke:#ffffff;stroke-width:0.75;" x="325.936738" xlink:href="#m5a289c5589" y="135.106319"/>
     <use style="fill:#4c72b0;stroke:#ffffff;stroke-width:0.75;" x="306.668179" xlink:href="#m5a289c5589" y="124.202294"/>
     <use style="fill:#4c72b0;stroke:#ffffff;stroke-width:0.75;" x="339.103781" xlink:href="#m5a289c5589" y="121.122296"/>
     <use style="fill:#4c72b0;stroke:#ffffff;stroke-width:0.75;" x="332.650693" xlink:href="#m5a289c5589" y="223.274327"/>
     <use style="fill:#4c72b0;stroke:#ffffff;stroke-width:0.75;" x="334.03265" xlink:href="#m5a289c5589" y="134.845756"/>
     <use style="fill:#4c72b0;stroke:#ffffff;stroke-width:0.75;" x="342.719609" xlink:href="#m5a289c5589" y="194.975089"/>
     <use style="fill:#4c72b0;stroke:#ffffff;stroke-width:0.75;" x="308.080672" xlink:href="#m5a289c5589" y="93.726321"/>
     <use style="fill:#4c72b0;stroke:#ffffff;stroke-width:0.75;" x="312.274227" xlink:href="#m5a289c5589" y="132.313183"/>
     <use style="fill:#4c72b0;stroke:#ffffff;stroke-width:0.75;" x="262.938926" xlink:href="#m5a289c5589" y="166.348062"/>
     <use style="fill:#4c72b0;stroke:#ffffff;stroke-width:0.75;" x="349.233006" xlink:href="#m5a289c5589" y="234.405775"/>
     <use style="fill:#4c72b0;stroke:#ffffff;stroke-width:0.75;" x="268.416265" xlink:href="#m5a289c5589" y="164.272559"/>
     <use style="fill:#4c72b0;stroke:#ffffff;stroke-width:0.75;" x="327.309952" xlink:href="#m5a289c5589" y="217.98485"/>
     <use style="fill:#4c72b0;stroke:#ffffff;stroke-width:0.75;" x="238.796401" xlink:href="#m5a289c5589" y="131.397577"/>
     <use style="fill:#4c72b0;stroke:#ffffff;stroke-width:0.75;" x="307.427057" xlink:href="#m5a289c5589" y="132.318535"/>
     <use style="fill:#4c72b0;stroke:#ffffff;stroke-width:0.75;" x="169.412855" xlink:href="#m5a289c5589" y="126.844379"/>
     <use style="fill:#4c72b0;stroke:#ffffff;stroke-width:0.75;" x="313.233125" xlink:href="#m5a289c5589" y="193.209154"/>
     <use style="fill:#4c72b0;stroke:#ffffff;stroke-width:0.75;" x="167.6338" xlink:href="#m5a289c5589" y="125.694995"/>
     <use style="fill:#4c72b0;stroke:#ffffff;stroke-width:0.75;" x="280.85581" xlink:href="#m5a289c5589" y="131.76641"/>
     <use style="fill:#4c72b0;stroke:#ffffff;stroke-width:0.75;" x="331.934104" xlink:href="#m5a289c5589" y="122.482287"/>
     <use style="fill:#4c72b0;stroke:#ffffff;stroke-width:0.75;" x="321.931504" xlink:href="#m5a289c5589" y="125.99311"/>
     <use style="fill:#4c72b0;stroke:#ffffff;stroke-width:0.75;" x="189.783503" xlink:href="#m5a289c5589" y="153.783858"/>
     <use style="fill:#4c72b0;stroke:#ffffff;stroke-width:0.75;" x="205.136672" xlink:href="#m5a289c5589" y="97.796633"/>
     <use style="fill:#4c72b0;stroke:#ffffff;stroke-width:0.75;" x="173.406364" xlink:href="#m5a289c5589" y="116.951225"/>
     <use style="fill:#4c72b0;stroke:#ffffff;stroke-width:0.75;" x="181.184728" xlink:href="#m5a289c5589" y="112.31543"/>
     <use style="fill:#4c72b0;stroke:#ffffff;stroke-width:0.75;" x="285.389743" xlink:href="#m5a289c5589" y="132.379325"/>
     <use style="fill:#4c72b0;stroke:#ffffff;stroke-width:0.75;" x="292.107744" xlink:href="#m5a289c5589" y="149.710167"/>
     <use style="fill:#4c72b0;stroke:#ffffff;stroke-width:0.75;" x="298.621334" xlink:href="#m5a289c5589" y="127.700565"/>
     <use style="fill:#4c72b0;stroke:#ffffff;stroke-width:0.75;" x="368.888049" xlink:href="#m5a289c5589" y="94.636396"/>
     <use style="fill:#4c72b0;stroke:#ffffff;stroke-width:0.75;" x="248.970853" xlink:href="#m5a289c5589" y="142.710989"/>
     <use style="fill:#4c72b0;stroke:#ffffff;stroke-width:0.75;" x="181.818867" xlink:href="#m5a289c5589" y="145.35664"/>
     <use style="fill:#4c72b0;stroke:#ffffff;stroke-width:0.75;" x="241.638391" xlink:href="#m5a289c5589" y="134.113548"/>
     <use style="fill:#4c72b0;stroke:#ffffff;stroke-width:0.75;" x="286.014051" xlink:href="#m5a289c5589" y="129.535964"/>
     <use style="fill:#4c72b0;stroke:#ffffff;stroke-width:0.75;" x="293.00781" xlink:href="#m5a289c5589" y="136.661648"/>
     <use style="fill:#4c72b0;stroke:#ffffff;stroke-width:0.75;" x="280.452047" xlink:href="#m5a289c5589" y="137.069975"/>
     <use style="fill:#4c72b0;stroke:#ffffff;stroke-width:0.75;" x="187.979133" xlink:href="#m5a289c5589" y="138.80435"/>
     <use style="fill:#4c72b0;stroke:#ffffff;stroke-width:0.75;" x="238.235717" xlink:href="#m5a289c5589" y="132.685265"/>
     <use style="fill:#4c72b0;stroke:#ffffff;stroke-width:0.75;" x="351.56623" xlink:href="#m5a289c5589" y="123.087378"/>
     <use style="fill:#4c72b0;stroke:#ffffff;stroke-width:0.75;" x="297.560131" xlink:href="#m5a289c5589" y="122.903131"/>
     <use style="fill:#4c72b0;stroke:#ffffff;stroke-width:0.75;" x="343.051816" xlink:href="#m5a289c5589" y="108.901025"/>
     <use style="fill:#4c72b0;stroke:#ffffff;stroke-width:0.75;" x="290.849613" xlink:href="#m5a289c5589" y="195.318383"/>
     <use style="fill:#4c72b0;stroke:#ffffff;stroke-width:0.75;" x="268.069337" xlink:href="#m5a289c5589" y="137.636187"/>
     <use style="fill:#4c72b0;stroke:#ffffff;stroke-width:0.75;" x="167.169678" xlink:href="#m5a289c5589" y="149.530296"/>
     <use style="fill:#4c72b0;stroke:#ffffff;stroke-width:0.75;" x="240.212066" xlink:href="#m5a289c5589" y="127.382621"/>
     <use style="fill:#4c72b0;stroke:#ffffff;stroke-width:0.75;" x="303.647578" xlink:href="#m5a289c5589" y="114.041157"/>
     <use style="fill:#4c72b0;stroke:#ffffff;stroke-width:0.75;" x="163.587485" xlink:href="#m5a289c5589" y="125.987444"/>
     <use style="fill:#4c72b0;stroke:#ffffff;stroke-width:0.75;" x="162.26805" xlink:href="#m5a289c5589" y="134.153618"/>
     <use style="fill:#4c72b0;stroke:#ffffff;stroke-width:0.75;" x="211.131128" xlink:href="#m5a289c5589" y="110.393815"/>
     <use style="fill:#4c72b0;stroke:#ffffff;stroke-width:0.75;" x="331.715272" xlink:href="#m5a289c5589" y="178.346503"/>
     <use style="fill:#4c72b0;stroke:#ffffff;stroke-width:0.75;" x="187.94304" xlink:href="#m5a289c5589" y="132.302863"/>
     <use style="fill:#4c72b0;stroke:#ffffff;stroke-width:0.75;" x="318.324667" xlink:href="#m5a289c5589" y="135.392675"/>
     <use style="fill:#4c72b0;stroke:#ffffff;stroke-width:0.75;" x="362.645558" xlink:href="#m5a289c5589" y="148.184331"/>
     <use style="fill:#4c72b0;stroke:#ffffff;stroke-width:0.75;" x="348.908987" xlink:href="#m5a289c5589" y="131.526483"/>
     <use style="fill:#4c72b0;stroke:#ffffff;stroke-width:0.75;" x="318.436534" xlink:href="#m5a289c5589" y="196.028462"/>
     <use style="fill:#4c72b0;stroke:#ffffff;stroke-width:0.75;" x="321.804071" xlink:href="#m5a289c5589" y="182.413781"/>
     <use style="fill:#4c72b0;stroke:#ffffff;stroke-width:0.75;" x="368.985511" xlink:href="#m5a289c5589" y="128.694985"/>
     <use style="fill:#4c72b0;stroke:#ffffff;stroke-width:0.75;" x="355.065802" xlink:href="#m5a289c5589" y="117.72014"/>
     <use style="fill:#4c72b0;stroke:#ffffff;stroke-width:0.75;" x="309.238972" xlink:href="#m5a289c5589" y="201.11453"/>
     <use style="fill:#4c72b0;stroke:#ffffff;stroke-width:0.75;" x="320.873198" xlink:href="#m5a289c5589" y="181.317519"/>
     <use style="fill:#4c72b0;stroke:#ffffff;stroke-width:0.75;" x="364.060585" xlink:href="#m5a289c5589" y="152.06237"/>
     <use style="fill:#4c72b0;stroke:#ffffff;stroke-width:0.75;" x="342.042576" xlink:href="#m5a289c5589" y="173.334796"/>
     <use style="fill:#4c72b0;stroke:#ffffff;stroke-width:0.75;" x="175.391843" xlink:href="#m5a289c5589" y="153.189022"/>
     <use style="fill:#4c72b0;stroke:#ffffff;stroke-width:0.75;" x="340.929033" xlink:href="#m5a289c5589" y="150.122451"/>
     <use style="fill:#4c72b0;stroke:#ffffff;stroke-width:0.75;" x="197.020718" xlink:href="#m5a289c5589" y="161.241707"/>
     <use style="fill:#4c72b0;stroke:#ffffff;stroke-width:0.75;" x="318.396493" xlink:href="#m5a289c5589" y="165.421737"/>
     <use style="fill:#4c72b0;stroke:#ffffff;stroke-width:0.75;" x="308.411421" xlink:href="#m5a289c5589" y="117.73452"/>
     <use style="fill:#4c72b0;stroke:#ffffff;stroke-width:0.75;" x="350.754361" xlink:href="#m5a289c5589" y="44.460026"/>
     <use style="fill:#4c72b0;stroke:#ffffff;stroke-width:0.75;" x="295.747573" xlink:href="#m5a289c5589" y="159.0867"/>
     <use style="fill:#4c72b0;stroke:#ffffff;stroke-width:0.75;" x="330.286237" xlink:href="#m5a289c5589" y="155.966407"/>
     <use style="fill:#4c72b0;stroke:#ffffff;stroke-width:0.75;" x="340.564886" xlink:href="#m5a289c5589" y="132.634728"/>
     <use style="fill:#4c72b0;stroke:#ffffff;stroke-width:0.75;" x="309.414197" xlink:href="#m5a289c5589" y="126.275975"/>
     <use style="fill:#4c72b0;stroke:#ffffff;stroke-width:0.75;" x="340.402253" xlink:href="#m5a289c5589" y="145.971636"/>
     <use style="fill:#4c72b0;stroke:#ffffff;stroke-width:0.75;" x="311.856982" xlink:href="#m5a289c5589" y="152.955795"/>
     <use style="fill:#4c72b0;stroke:#ffffff;stroke-width:0.75;" x="332.101887" xlink:href="#m5a289c5589" y="195.180607"/>
     <use style="fill:#4c72b0;stroke:#ffffff;stroke-width:0.75;" x="326.808881" xlink:href="#m5a289c5589" y="141.305013"/>
     <use style="fill:#4c72b0;stroke:#ffffff;stroke-width:0.75;" x="160.068933" xlink:href="#m5a289c5589" y="144.760439"/>
     <use style="fill:#4c72b0;stroke:#ffffff;stroke-width:0.75;" x="188.38567" xlink:href="#m5a289c5589" y="122.967956"/>
     <use style="fill:#4c72b0;stroke:#ffffff;stroke-width:0.75;" x="329.99953" xlink:href="#m5a289c5589" y="113.051611"/>
     <use style="fill:#4c72b0;stroke:#ffffff;stroke-width:0.75;" x="318.17428" xlink:href="#m5a289c5589" y="124.092029"/>
     <use style="fill:#4c72b0;stroke:#ffffff;stroke-width:0.75;" x="192.177045" xlink:href="#m5a289c5589" y="140.638385"/>
     <use style="fill:#4c72b0;stroke:#ffffff;stroke-width:0.75;" x="354.257383" xlink:href="#m5a289c5589" y="159.177017"/>
     <use style="fill:#4c72b0;stroke:#ffffff;stroke-width:0.75;" x="314.017659" xlink:href="#m5a289c5589" y="144.990025"/>
     <use style="fill:#4c72b0;stroke:#ffffff;stroke-width:0.75;" x="298.649196" xlink:href="#m5a289c5589" y="119.081613"/>
     <use style="fill:#4c72b0;stroke:#ffffff;stroke-width:0.75;" x="332.604599" xlink:href="#m5a289c5589" y="89.702917"/>
     <use style="fill:#4c72b0;stroke:#ffffff;stroke-width:0.75;" x="114.557726" xlink:href="#m5a289c5589" y="142.011377"/>
     <use style="fill:#4c72b0;stroke:#ffffff;stroke-width:0.75;" x="308.399471" xlink:href="#m5a289c5589" y="91.606277"/>
     <use style="fill:#4c72b0;stroke:#ffffff;stroke-width:0.75;" x="320.284063" xlink:href="#m5a289c5589" y="242.099974"/>
     <use style="fill:#4c72b0;stroke:#ffffff;stroke-width:0.75;" x="297.247132" xlink:href="#m5a289c5589" y="214.017096"/>
     <use style="fill:#4c72b0;stroke:#ffffff;stroke-width:0.75;" x="369.34791" xlink:href="#m5a289c5589" y="157.192994"/>
     <use style="fill:#4c72b0;stroke:#ffffff;stroke-width:0.75;" x="322.880728" xlink:href="#m5a289c5589" y="206.598916"/>
     <use style="fill:#4c72b0;stroke:#ffffff;stroke-width:0.75;" x="358.215952" xlink:href="#m5a289c5589" y="201.434775"/>
     <use style="fill:#4c72b0;stroke:#ffffff;stroke-width:0.75;" x="307.922761" xlink:href="#m5a289c5589" y="140.728484"/>
     <use style="fill:#4c72b0;stroke:#ffffff;stroke-width:0.75;" x="298.040851" xlink:href="#m5a289c5589" y="122.256741"/>
     <use style="fill:#4c72b0;stroke:#ffffff;stroke-width:0.75;" x="156.28024" xlink:href="#m5a289c5589" y="162.849946"/>
     <use style="fill:#4c72b0;stroke:#ffffff;stroke-width:0.75;" x="350.930805" xlink:href="#m5a289c5589" y="102.088053"/>
    </g>
   </g>
   <g id="patch_3">
    <path d="M 54 252 
L 54 34.56 
" style="fill:none;stroke:#ffffff;stroke-linecap:square;stroke-linejoin:miter;stroke-width:1.25;"/>
   </g>
   <g id="patch_4">
    <path d="M 388.8 252 
L 388.8 34.56 
" style="fill:none;stroke:#ffffff;stroke-linecap:square;stroke-linejoin:miter;stroke-width:1.25;"/>
   </g>
   <g id="patch_5">
    <path d="M 54 252 
L 388.8 252 
" style="fill:none;stroke:#ffffff;stroke-linecap:square;stroke-linejoin:miter;stroke-width:1.25;"/>
   </g>
   <g id="patch_6">
    <path d="M 54 34.56 
L 388.8 34.56 
" style="fill:none;stroke:#ffffff;stroke-linecap:square;stroke-linejoin:miter;stroke-width:1.25;"/>
   </g>
   <g id="text_19">
    <!-- spearmancorr=0.06 -->
    <defs>
     <path d="M 3.078125 15.484375 
L 11.765625 16.84375 
Q 12.5 11.625 15.84375 8.84375 
Q 19.1875 6.0625 25.203125 6.0625 
Q 31.25 6.0625 34.171875 8.515625 
Q 37.109375 10.984375 37.109375 14.3125 
Q 37.109375 17.28125 34.515625 19 
Q 32.71875 20.171875 25.53125 21.96875 
Q 15.875 24.421875 12.140625 26.203125 
Q 8.40625 27.984375 6.46875 31.125 
Q 4.546875 34.28125 4.546875 38.09375 
Q 4.546875 41.546875 6.125 44.5 
Q 7.71875 47.46875 10.453125 49.421875 
Q 12.5 50.921875 16.03125 51.96875 
Q 19.578125 53.03125 23.640625 53.03125 
Q 29.734375 53.03125 34.34375 51.265625 
Q 38.96875 49.515625 41.15625 46.5 
Q 43.359375 43.5 44.1875 38.484375 
L 35.59375 37.3125 
Q 35.015625 41.3125 32.203125 43.546875 
Q 29.390625 45.796875 24.265625 45.796875 
Q 18.21875 45.796875 15.625 43.796875 
Q 13.03125 41.796875 13.03125 39.109375 
Q 13.03125 37.40625 14.109375 36.03125 
Q 15.1875 34.625 17.484375 33.6875 
Q 18.796875 33.203125 25.25 31.453125 
Q 34.578125 28.953125 38.25 27.359375 
Q 41.9375 25.78125 44.03125 22.75 
Q 46.140625 19.734375 46.140625 15.234375 
Q 46.140625 10.84375 43.578125 6.953125 
Q 41.015625 3.078125 36.171875 0.953125 
Q 31.34375 -1.171875 25.25 -1.171875 
Q 15.140625 -1.171875 9.84375 3.03125 
Q 4.546875 7.234375 3.078125 15.484375 
z
" id="ArialMT-115"/>
     <path d="M 6.59375 -19.875 
L 6.59375 51.859375 
L 14.59375 51.859375 
L 14.59375 45.125 
Q 17.4375 49.078125 21 51.046875 
Q 24.5625 53.03125 29.640625 53.03125 
Q 36.28125 53.03125 41.359375 49.609375 
Q 46.4375 46.1875 49.015625 39.953125 
Q 51.609375 33.734375 51.609375 26.3125 
Q 51.609375 18.359375 48.75 11.984375 
Q 45.90625 5.609375 40.453125 2.21875 
Q 35.015625 -1.171875 29 -1.171875 
Q 24.609375 -1.171875 21.109375 0.6875 
Q 17.625 2.546875 15.375 5.375 
L 15.375 -19.875 
z
M 14.546875 25.640625 
Q 14.546875 15.625 18.59375 10.84375 
Q 22.65625 6.0625 28.421875 6.0625 
Q 34.28125 6.0625 38.453125 11.015625 
Q 42.625 15.96875 42.625 26.375 
Q 42.625 36.28125 38.546875 41.203125 
Q 34.46875 46.140625 28.8125 46.140625 
Q 23.1875 46.140625 18.859375 40.890625 
Q 14.546875 35.640625 14.546875 25.640625 
z
" id="ArialMT-112"/>
     <path d="M 42.09375 16.703125 
L 51.171875 15.578125 
Q 49.03125 7.625 43.21875 3.21875 
Q 37.40625 -1.171875 28.375 -1.171875 
Q 17 -1.171875 10.328125 5.828125 
Q 3.65625 12.84375 3.65625 25.484375 
Q 3.65625 38.578125 10.390625 45.796875 
Q 17.140625 53.03125 27.875 53.03125 
Q 38.28125 53.03125 44.875 45.953125 
Q 51.46875 38.875 51.46875 26.03125 
Q 51.46875 25.25 51.421875 23.6875 
L 12.75 23.6875 
Q 13.234375 15.140625 17.578125 10.59375 
Q 21.921875 6.0625 28.421875 6.0625 
Q 33.25 6.0625 36.671875 8.59375 
Q 40.09375 11.140625 42.09375 16.703125 
z
M 13.234375 30.90625 
L 42.1875 30.90625 
Q 41.609375 37.453125 38.875 40.71875 
Q 34.671875 45.796875 27.984375 45.796875 
Q 21.921875 45.796875 17.796875 41.75 
Q 13.671875 37.703125 13.234375 30.90625 
z
" id="ArialMT-101"/>
     <path d="M 40.4375 6.390625 
Q 35.546875 2.25 31.03125 0.53125 
Q 26.515625 -1.171875 21.34375 -1.171875 
Q 12.796875 -1.171875 8.203125 3 
Q 3.609375 7.171875 3.609375 13.671875 
Q 3.609375 17.484375 5.34375 20.625 
Q 7.078125 23.78125 9.890625 25.6875 
Q 12.703125 27.59375 16.21875 28.5625 
Q 18.796875 29.25 24.03125 29.890625 
Q 34.671875 31.15625 39.703125 32.90625 
Q 39.75 34.71875 39.75 35.203125 
Q 39.75 40.578125 37.25 42.78125 
Q 33.890625 45.75 27.25 45.75 
Q 21.046875 45.75 18.09375 43.578125 
Q 15.140625 41.40625 13.71875 35.890625 
L 5.125 37.0625 
Q 6.296875 42.578125 8.984375 45.96875 
Q 11.671875 49.359375 16.75 51.1875 
Q 21.828125 53.03125 28.515625 53.03125 
Q 35.15625 53.03125 39.296875 51.46875 
Q 43.453125 49.90625 45.40625 47.53125 
Q 47.359375 45.171875 48.140625 41.546875 
Q 48.578125 39.3125 48.578125 33.453125 
L 48.578125 21.734375 
Q 48.578125 9.46875 49.140625 6.21875 
Q 49.703125 2.984375 51.375 0 
L 42.1875 0 
Q 40.828125 2.734375 40.4375 6.390625 
z
M 39.703125 26.03125 
Q 34.90625 24.078125 25.34375 22.703125 
Q 19.921875 21.921875 17.671875 20.9375 
Q 15.4375 19.96875 14.203125 18.09375 
Q 12.984375 16.21875 12.984375 13.921875 
Q 12.984375 10.40625 15.640625 8.0625 
Q 18.3125 5.71875 23.4375 5.71875 
Q 28.515625 5.71875 32.46875 7.9375 
Q 36.421875 10.15625 38.28125 14.015625 
Q 39.703125 17 39.703125 22.796875 
z
" id="ArialMT-97"/>
     <path d="M 6.5 0 
L 6.5 51.859375 
L 14.40625 51.859375 
L 14.40625 44 
Q 17.4375 49.515625 20 51.265625 
Q 22.5625 53.03125 25.640625 53.03125 
Q 30.078125 53.03125 34.671875 50.203125 
L 31.640625 42.046875 
Q 28.421875 43.953125 25.203125 43.953125 
Q 22.3125 43.953125 20.015625 42.21875 
Q 17.71875 40.484375 16.75 37.40625 
Q 15.28125 32.71875 15.28125 27.15625 
L 15.28125 0 
z
" id="ArialMT-114"/>
     <path d="M 6.59375 0 
L 6.59375 51.859375 
L 14.453125 51.859375 
L 14.453125 44.578125 
Q 16.890625 48.390625 20.9375 50.703125 
Q 25 53.03125 30.171875 53.03125 
Q 35.9375 53.03125 39.625 50.640625 
Q 43.3125 48.25 44.828125 43.953125 
Q 50.984375 53.03125 60.84375 53.03125 
Q 68.5625 53.03125 72.703125 48.75 
Q 76.859375 44.484375 76.859375 35.59375 
L 76.859375 0 
L 68.109375 0 
L 68.109375 32.671875 
Q 68.109375 37.9375 67.25 40.25 
Q 66.40625 42.578125 64.15625 43.984375 
Q 61.921875 45.40625 58.890625 45.40625 
Q 53.421875 45.40625 49.796875 41.765625 
Q 46.1875 38.140625 46.1875 30.125 
L 46.1875 0 
L 37.40625 0 
L 37.40625 33.6875 
Q 37.40625 39.546875 35.25 42.46875 
Q 33.109375 45.40625 28.21875 45.40625 
Q 24.515625 45.40625 21.359375 43.453125 
Q 18.21875 41.5 16.796875 37.734375 
Q 15.375 33.984375 15.375 26.90625 
L 15.375 0 
z
" id="ArialMT-109"/>
     <path d="M 6.59375 0 
L 6.59375 51.859375 
L 14.5 51.859375 
L 14.5 44.484375 
Q 20.21875 53.03125 31 53.03125 
Q 35.6875 53.03125 39.625 51.34375 
Q 43.5625 49.65625 45.515625 46.921875 
Q 47.46875 44.1875 48.25 40.4375 
Q 48.734375 37.984375 48.734375 31.890625 
L 48.734375 0 
L 39.9375 0 
L 39.9375 31.546875 
Q 39.9375 36.921875 38.90625 39.578125 
Q 37.890625 42.234375 35.28125 43.8125 
Q 32.671875 45.40625 29.15625 45.40625 
Q 23.53125 45.40625 19.453125 41.84375 
Q 15.375 38.28125 15.375 28.328125 
L 15.375 0 
z
" id="ArialMT-110"/>
     <path d="M 40.4375 19 
L 49.078125 17.875 
Q 47.65625 8.9375 41.8125 3.875 
Q 35.984375 -1.171875 27.484375 -1.171875 
Q 16.84375 -1.171875 10.375 5.78125 
Q 3.90625 12.75 3.90625 25.734375 
Q 3.90625 34.125 6.6875 40.421875 
Q 9.46875 46.734375 15.15625 49.875 
Q 20.84375 53.03125 27.546875 53.03125 
Q 35.984375 53.03125 41.359375 48.75 
Q 46.734375 44.484375 48.25 36.625 
L 39.703125 35.296875 
Q 38.484375 40.53125 35.375 43.15625 
Q 32.28125 45.796875 27.875 45.796875 
Q 21.234375 45.796875 17.078125 41.03125 
Q 12.9375 36.28125 12.9375 25.984375 
Q 12.9375 15.53125 16.9375 10.796875 
Q 20.953125 6.0625 27.390625 6.0625 
Q 32.5625 6.0625 36.03125 9.234375 
Q 39.5 12.40625 40.4375 19 
z
" id="ArialMT-99"/>
     <path d="M 3.328125 25.921875 
Q 3.328125 40.328125 11.328125 47.265625 
Q 18.015625 53.03125 27.640625 53.03125 
Q 38.328125 53.03125 45.109375 46.015625 
Q 51.90625 39.015625 51.90625 26.65625 
Q 51.90625 16.65625 48.90625 10.90625 
Q 45.90625 5.171875 40.15625 2 
Q 34.421875 -1.171875 27.640625 -1.171875 
Q 16.75 -1.171875 10.03125 5.8125 
Q 3.328125 12.796875 3.328125 25.921875 
z
M 12.359375 25.921875 
Q 12.359375 15.96875 16.703125 11.015625 
Q 21.046875 6.0625 27.640625 6.0625 
Q 34.1875 6.0625 38.53125 11.03125 
Q 42.875 16.015625 42.875 26.21875 
Q 42.875 35.84375 38.5 40.796875 
Q 34.125 45.75 27.640625 45.75 
Q 21.046875 45.75 16.703125 40.8125 
Q 12.359375 35.890625 12.359375 25.921875 
z
" id="ArialMT-111"/>
     <path d="M 52.828125 42.09375 
L 5.5625 42.09375 
L 5.5625 50.296875 
L 52.828125 50.296875 
z
M 52.828125 20.359375 
L 5.5625 20.359375 
L 5.5625 28.5625 
L 52.828125 28.5625 
z
" id="ArialMT-61"/>
    </defs>
    <g style="fill:#262626;" transform="translate(160.509844 28.56)scale(0.14 -0.14)">
     <use xlink:href="#ArialMT-115"/>
     <use x="50" xlink:href="#ArialMT-112"/>
     <use x="105.615234" xlink:href="#ArialMT-101"/>
     <use x="161.230469" xlink:href="#ArialMT-97"/>
     <use x="216.845703" xlink:href="#ArialMT-114"/>
     <use x="250.146484" xlink:href="#ArialMT-109"/>
     <use x="333.447266" xlink:href="#ArialMT-97"/>
     <use x="389.0625" xlink:href="#ArialMT-110"/>
     <use x="444.677734" xlink:href="#ArialMT-99"/>
     <use x="494.677734" xlink:href="#ArialMT-111"/>
     <use x="550.292969" xlink:href="#ArialMT-114"/>
     <use x="583.59375" xlink:href="#ArialMT-114"/>
     <use x="616.894531" xlink:href="#ArialMT-61"/>
     <use x="675.292969" xlink:href="#ArialMT-48"/>
     <use x="730.908203" xlink:href="#ArialMT-46"/>
     <use x="758.691406" xlink:href="#ArialMT-48"/>
     <use x="814.306641" xlink:href="#ArialMT-54"/>
    </g>
   </g>
  </g>
 </g>
 <defs>
  <clipPath id="p5b17b7e3c2">
   <rect height="217.44" width="334.8" x="54" y="34.56"/>
  </clipPath>
 </defs>
</svg>
