<?xml version="1.0" encoding="utf-8" standalone="no"?>
<!DOCTYPE svg PUBLIC "-//W3C//DTD SVG 1.1//EN"
  "http://www.w3.org/Graphics/SVG/1.1/DTD/svg11.dtd">
<!-- Created with matplotlib (https://matplotlib.org/) -->
<svg height="369.500469pt" version="1.1" viewBox="0 0 452.349656 369.500469" width="452.349656pt" xmlns="http://www.w3.org/2000/svg" xmlns:xlink="http://www.w3.org/1999/xlink">
 <defs>
  <style type="text/css">
*{stroke-linecap:butt;stroke-linejoin:round;}
  </style>
 </defs>
 <g id="figure_1">
  <g id="patch_1">
   <path d="M 0 369.500469 
L 452.349656 369.500469 
L 452.349656 0 
L 0 0 
z
" style="fill:#ffffff;"/>
  </g>
  <g id="axes_1">
   <g id="patch_2">
    <path d="M 46.964375 230.64 
L 381.764375 230.64 
L 381.764375 13.2 
L 46.964375 13.2 
z
" style="fill:#eaeaf2;"/>
   </g>
   <g id="matplotlib.axis_1">
    <g id="xtick_1">
     <g id="text_1">
      <!-- 5.3561438102252765 -->
      <defs>
       <path d="M 4.15625 18.75 
L 13.375 19.53125 
Q 14.40625 12.796875 18.140625 9.390625 
Q 21.875 6 27.15625 6 
Q 33.5 6 37.890625 10.78125 
Q 42.28125 15.578125 42.28125 23.484375 
Q 42.28125 31 38.0625 35.34375 
Q 33.84375 39.703125 27 39.703125 
Q 22.75 39.703125 19.328125 37.765625 
Q 15.921875 35.84375 13.96875 32.765625 
L 5.71875 33.84375 
L 12.640625 70.609375 
L 48.25 70.609375 
L 48.25 62.203125 
L 19.671875 62.203125 
L 15.828125 42.96875 
Q 22.265625 47.46875 29.34375 47.46875 
Q 38.71875 47.46875 45.15625 40.96875 
Q 51.609375 34.46875 51.609375 24.265625 
Q 51.609375 14.546875 45.953125 7.46875 
Q 39.0625 -1.21875 27.15625 -1.21875 
Q 17.390625 -1.21875 11.203125 4.25 
Q 5.03125 9.71875 4.15625 18.75 
z
" id="ArialMT-53"/>
       <path d="M 9.078125 0 
L 9.078125 10.015625 
L 19.09375 10.015625 
L 19.09375 0 
z
" id="ArialMT-46"/>
       <path d="M 4.203125 18.890625 
L 12.984375 20.0625 
Q 14.5 12.59375 18.140625 9.296875 
Q 21.78125 6 27 6 
Q 33.203125 6 37.46875 10.296875 
Q 41.75 14.59375 41.75 20.953125 
Q 41.75 27 37.796875 30.921875 
Q 33.84375 34.859375 27.734375 34.859375 
Q 25.25 34.859375 21.53125 33.890625 
L 22.515625 41.609375 
Q 23.390625 41.5 23.921875 41.5 
Q 29.546875 41.5 34.03125 44.421875 
Q 38.53125 47.359375 38.53125 53.46875 
Q 38.53125 58.296875 35.25 61.46875 
Q 31.984375 64.65625 26.8125 64.65625 
Q 21.6875 64.65625 18.265625 61.421875 
Q 14.84375 58.203125 13.875 51.765625 
L 5.078125 53.328125 
Q 6.6875 62.15625 12.390625 67.015625 
Q 18.109375 71.875 26.609375 71.875 
Q 32.46875 71.875 37.390625 69.359375 
Q 42.328125 66.84375 44.9375 62.5 
Q 47.5625 58.15625 47.5625 53.265625 
Q 47.5625 48.640625 45.0625 44.828125 
Q 42.578125 41.015625 37.703125 38.765625 
Q 44.046875 37.3125 47.5625 32.6875 
Q 51.078125 28.078125 51.078125 21.140625 
Q 51.078125 11.765625 44.234375 5.25 
Q 37.40625 -1.265625 26.953125 -1.265625 
Q 17.53125 -1.265625 11.296875 4.34375 
Q 5.078125 9.96875 4.203125 18.890625 
z
" id="ArialMT-51"/>
       <path d="M 49.75 54.046875 
L 41.015625 53.375 
Q 39.84375 58.546875 37.703125 60.890625 
Q 34.125 64.65625 28.90625 64.65625 
Q 24.703125 64.65625 21.53125 62.3125 
Q 17.390625 59.28125 14.984375 53.46875 
Q 12.59375 47.65625 12.5 36.921875 
Q 15.671875 41.75 20.265625 44.09375 
Q 24.859375 46.4375 29.890625 46.4375 
Q 38.671875 46.4375 44.84375 39.96875 
Q 51.03125 33.5 51.03125 23.25 
Q 51.03125 16.5 48.125 10.71875 
Q 45.21875 4.9375 40.140625 1.859375 
Q 35.0625 -1.21875 28.609375 -1.21875 
Q 17.625 -1.21875 10.6875 6.859375 
Q 3.765625 14.9375 3.765625 33.5 
Q 3.765625 54.25 11.421875 63.671875 
Q 18.109375 71.875 29.4375 71.875 
Q 37.890625 71.875 43.28125 67.140625 
Q 48.6875 62.40625 49.75 54.046875 
z
M 13.875 23.1875 
Q 13.875 18.65625 15.796875 14.5 
Q 17.71875 10.359375 21.1875 8.171875 
Q 24.65625 6 28.46875 6 
Q 34.03125 6 38.03125 10.484375 
Q 42.046875 14.984375 42.046875 22.703125 
Q 42.046875 30.125 38.078125 34.390625 
Q 34.125 38.671875 28.125 38.671875 
Q 22.171875 38.671875 18.015625 34.390625 
Q 13.875 30.125 13.875 23.1875 
z
" id="ArialMT-54"/>
       <path d="M 37.25 0 
L 28.46875 0 
L 28.46875 56 
Q 25.296875 52.984375 20.140625 49.953125 
Q 14.984375 46.921875 10.890625 45.40625 
L 10.890625 53.90625 
Q 18.265625 57.375 23.78125 62.296875 
Q 29.296875 67.234375 31.59375 71.875 
L 37.25 71.875 
z
" id="ArialMT-49"/>
       <path d="M 32.328125 0 
L 32.328125 17.140625 
L 1.265625 17.140625 
L 1.265625 25.203125 
L 33.9375 71.578125 
L 41.109375 71.578125 
L 41.109375 25.203125 
L 50.78125 25.203125 
L 50.78125 17.140625 
L 41.109375 17.140625 
L 41.109375 0 
z
M 32.328125 25.203125 
L 32.328125 57.46875 
L 9.90625 25.203125 
z
" id="ArialMT-52"/>
       <path d="M 17.671875 38.8125 
Q 12.203125 40.828125 9.5625 44.53125 
Q 6.9375 48.25 6.9375 53.421875 
Q 6.9375 61.234375 12.546875 66.546875 
Q 18.171875 71.875 27.484375 71.875 
Q 36.859375 71.875 42.578125 66.421875 
Q 48.296875 60.984375 48.296875 53.171875 
Q 48.296875 48.1875 45.671875 44.5 
Q 43.0625 40.828125 37.75 38.8125 
Q 44.34375 36.671875 47.78125 31.875 
Q 51.21875 27.09375 51.21875 20.453125 
Q 51.21875 11.28125 44.71875 5.03125 
Q 38.234375 -1.21875 27.640625 -1.21875 
Q 17.046875 -1.21875 10.546875 5.046875 
Q 4.046875 11.328125 4.046875 20.703125 
Q 4.046875 27.6875 7.59375 32.390625 
Q 11.140625 37.109375 17.671875 38.8125 
z
M 15.921875 53.71875 
Q 15.921875 48.640625 19.1875 45.40625 
Q 22.46875 42.1875 27.6875 42.1875 
Q 32.765625 42.1875 36.015625 45.375 
Q 39.265625 48.578125 39.265625 53.21875 
Q 39.265625 58.0625 35.90625 61.359375 
Q 32.5625 64.65625 27.59375 64.65625 
Q 22.5625 64.65625 19.234375 61.421875 
Q 15.921875 58.203125 15.921875 53.71875 
z
M 13.09375 20.65625 
Q 13.09375 16.890625 14.875 13.375 
Q 16.65625 9.859375 20.171875 7.921875 
Q 23.6875 6 27.734375 6 
Q 34.03125 6 38.125 10.046875 
Q 42.234375 14.109375 42.234375 20.359375 
Q 42.234375 26.703125 38.015625 30.859375 
Q 33.796875 35.015625 27.4375 35.015625 
Q 21.234375 35.015625 17.15625 30.90625 
Q 13.09375 26.8125 13.09375 20.65625 
z
" id="ArialMT-56"/>
       <path d="M 4.15625 35.296875 
Q 4.15625 48 6.765625 55.734375 
Q 9.375 63.484375 14.515625 67.671875 
Q 19.671875 71.875 27.484375 71.875 
Q 33.25 71.875 37.59375 69.546875 
Q 41.9375 67.234375 44.765625 62.859375 
Q 47.609375 58.5 49.21875 52.21875 
Q 50.828125 45.953125 50.828125 35.296875 
Q 50.828125 22.703125 48.234375 14.96875 
Q 45.65625 7.234375 40.5 3 
Q 35.359375 -1.21875 27.484375 -1.21875 
Q 17.140625 -1.21875 11.234375 6.203125 
Q 4.15625 15.140625 4.15625 35.296875 
z
M 13.1875 35.296875 
Q 13.1875 17.671875 17.3125 11.828125 
Q 21.4375 6 27.484375 6 
Q 33.546875 6 37.671875 11.859375 
Q 41.796875 17.71875 41.796875 35.296875 
Q 41.796875 52.984375 37.671875 58.78125 
Q 33.546875 64.59375 27.390625 64.59375 
Q 21.34375 64.59375 17.71875 59.46875 
Q 13.1875 52.9375 13.1875 35.296875 
z
" id="ArialMT-48"/>
       <path d="M 50.34375 8.453125 
L 50.34375 0 
L 3.03125 0 
Q 2.9375 3.171875 4.046875 6.109375 
Q 5.859375 10.9375 9.828125 15.625 
Q 13.8125 20.3125 21.34375 26.46875 
Q 33.015625 36.03125 37.109375 41.625 
Q 41.21875 47.21875 41.21875 52.203125 
Q 41.21875 57.421875 37.46875 61 
Q 33.734375 64.59375 27.734375 64.59375 
Q 21.390625 64.59375 17.578125 60.78125 
Q 13.765625 56.984375 13.71875 50.25 
L 4.6875 51.171875 
Q 5.609375 61.28125 11.65625 66.578125 
Q 17.71875 71.875 27.9375 71.875 
Q 38.234375 71.875 44.234375 66.15625 
Q 50.25 60.453125 50.25 52 
Q 50.25 47.703125 48.484375 43.546875 
Q 46.734375 39.40625 42.65625 34.8125 
Q 38.578125 30.21875 29.109375 22.21875 
Q 21.1875 15.578125 18.9375 13.203125 
Q 16.703125 10.84375 15.234375 8.453125 
z
" id="ArialMT-50"/>
       <path d="M 4.734375 62.203125 
L 4.734375 70.65625 
L 51.078125 70.65625 
L 51.078125 63.8125 
Q 44.234375 56.546875 37.515625 44.484375 
Q 30.8125 32.421875 27.15625 19.671875 
Q 24.515625 10.6875 23.78125 0 
L 14.75 0 
Q 14.890625 8.453125 18.0625 20.40625 
Q 21.234375 32.375 27.171875 43.484375 
Q 33.109375 54.59375 39.796875 62.203125 
z
" id="ArialMT-55"/>
      </defs>
      <g style="fill:#262626;" transform="translate(91.658047 347.185469)rotate(-90)scale(0.11 -0.11)">
       <use xlink:href="#ArialMT-53"/>
       <use x="55.615234" xlink:href="#ArialMT-46"/>
       <use x="83.398438" xlink:href="#ArialMT-51"/>
       <use x="139.013672" xlink:href="#ArialMT-53"/>
       <use x="194.628906" xlink:href="#ArialMT-54"/>
       <use x="250.244141" xlink:href="#ArialMT-49"/>
       <use x="305.859375" xlink:href="#ArialMT-52"/>
       <use x="361.474609" xlink:href="#ArialMT-51"/>
       <use x="417.089844" xlink:href="#ArialMT-56"/>
       <use x="472.705078" xlink:href="#ArialMT-49"/>
       <use x="528.320312" xlink:href="#ArialMT-48"/>
       <use x="583.935547" xlink:href="#ArialMT-50"/>
       <use x="639.550781" xlink:href="#ArialMT-50"/>
       <use x="695.166016" xlink:href="#ArialMT-53"/>
       <use x="750.78125" xlink:href="#ArialMT-50"/>
       <use x="806.396484" xlink:href="#ArialMT-55"/>
       <use x="862.011719" xlink:href="#ArialMT-54"/>
       <use x="917.626953" xlink:href="#ArialMT-53"/>
      </g>
     </g>
    </g>
    <g id="xtick_2">
     <g id="text_2">
      <!-- 6.643856189774724 -->
      <defs>
       <path d="M 5.46875 16.546875 
L 13.921875 17.328125 
Q 14.984375 11.375 18.015625 8.6875 
Q 21.046875 6 25.78125 6 
Q 29.828125 6 32.875 7.859375 
Q 35.9375 9.71875 37.890625 12.8125 
Q 39.84375 15.921875 41.15625 21.1875 
Q 42.484375 26.46875 42.484375 31.9375 
Q 42.484375 32.515625 42.4375 33.6875 
Q 39.796875 29.5 35.234375 26.875 
Q 30.671875 24.265625 25.34375 24.265625 
Q 16.453125 24.265625 10.296875 30.703125 
Q 4.15625 37.15625 4.15625 47.703125 
Q 4.15625 58.59375 10.578125 65.234375 
Q 17 71.875 26.65625 71.875 
Q 33.640625 71.875 39.421875 68.109375 
Q 45.21875 64.359375 48.21875 57.390625 
Q 51.21875 50.4375 51.21875 37.25 
Q 51.21875 23.53125 48.234375 15.40625 
Q 45.265625 7.28125 39.375 3.03125 
Q 33.5 -1.21875 25.59375 -1.21875 
Q 17.1875 -1.21875 11.859375 3.4375 
Q 6.546875 8.109375 5.46875 16.546875 
z
M 41.453125 48.140625 
Q 41.453125 55.71875 37.421875 60.15625 
Q 33.40625 64.59375 27.734375 64.59375 
Q 21.875 64.59375 17.53125 59.8125 
Q 13.1875 55.03125 13.1875 47.40625 
Q 13.1875 40.578125 17.3125 36.296875 
Q 21.4375 32.03125 27.484375 32.03125 
Q 33.59375 32.03125 37.515625 36.296875 
Q 41.453125 40.578125 41.453125 48.140625 
z
" id="ArialMT-57"/>
      </defs>
      <g style="fill:#262626;" transform="translate(175.358047 341.068437)rotate(-90)scale(0.11 -0.11)">
       <use xlink:href="#ArialMT-54"/>
       <use x="55.615234" xlink:href="#ArialMT-46"/>
       <use x="83.398438" xlink:href="#ArialMT-54"/>
       <use x="139.013672" xlink:href="#ArialMT-52"/>
       <use x="194.628906" xlink:href="#ArialMT-51"/>
       <use x="250.244141" xlink:href="#ArialMT-56"/>
       <use x="305.859375" xlink:href="#ArialMT-53"/>
       <use x="361.474609" xlink:href="#ArialMT-54"/>
       <use x="417.089844" xlink:href="#ArialMT-49"/>
       <use x="472.705078" xlink:href="#ArialMT-56"/>
       <use x="528.320312" xlink:href="#ArialMT-57"/>
       <use x="583.935547" xlink:href="#ArialMT-55"/>
       <use x="639.550781" xlink:href="#ArialMT-55"/>
       <use x="695.166016" xlink:href="#ArialMT-52"/>
       <use x="750.78125" xlink:href="#ArialMT-55"/>
       <use x="806.396484" xlink:href="#ArialMT-50"/>
       <use x="862.011719" xlink:href="#ArialMT-52"/>
      </g>
     </g>
    </g>
    <g id="xtick_3">
     <g id="text_3">
      <!-- 7.678071905112637 -->
      <g style="fill:#262626;" transform="translate(259.058047 341.056406)rotate(-90)scale(0.11 -0.11)">
       <use xlink:href="#ArialMT-55"/>
       <use x="55.615234" xlink:href="#ArialMT-46"/>
       <use x="83.398438" xlink:href="#ArialMT-54"/>
       <use x="139.013672" xlink:href="#ArialMT-55"/>
       <use x="194.628906" xlink:href="#ArialMT-56"/>
       <use x="250.244141" xlink:href="#ArialMT-48"/>
       <use x="305.859375" xlink:href="#ArialMT-55"/>
       <use x="361.474609" xlink:href="#ArialMT-49"/>
       <use x="417.089844" xlink:href="#ArialMT-57"/>
       <use x="472.705078" xlink:href="#ArialMT-48"/>
       <use x="528.320312" xlink:href="#ArialMT-53"/>
       <use x="583.935547" xlink:href="#ArialMT-49"/>
       <use x="639.441406" xlink:href="#ArialMT-49"/>
       <use x="695.056641" xlink:href="#ArialMT-50"/>
       <use x="750.671875" xlink:href="#ArialMT-54"/>
       <use x="806.287109" xlink:href="#ArialMT-51"/>
       <use x="861.902344" xlink:href="#ArialMT-55"/>
      </g>
     </g>
    </g>
    <g id="xtick_4">
     <g id="text_4">
      <!-- 8.0 -->
      <g style="fill:#262626;" transform="translate(342.758047 255.43)rotate(-90)scale(0.11 -0.11)">
       <use xlink:href="#ArialMT-56"/>
       <use x="55.615234" xlink:href="#ArialMT-46"/>
       <use x="83.398438" xlink:href="#ArialMT-48"/>
      </g>
     </g>
    </g>
    <g id="text_5">
     <!-- dosage range overlap -->
     <defs>
      <path d="M 40.234375 0 
L 40.234375 6.546875 
Q 35.296875 -1.171875 25.734375 -1.171875 
Q 19.53125 -1.171875 14.328125 2.25 
Q 9.125 5.671875 6.265625 11.796875 
Q 3.421875 17.921875 3.421875 25.875 
Q 3.421875 33.640625 6 39.96875 
Q 8.59375 46.296875 13.765625 49.65625 
Q 18.953125 53.03125 25.34375 53.03125 
Q 30.03125 53.03125 33.6875 51.046875 
Q 37.359375 49.078125 39.65625 45.90625 
L 39.65625 71.578125 
L 48.390625 71.578125 
L 48.390625 0 
z
M 12.453125 25.875 
Q 12.453125 15.921875 16.640625 10.984375 
Q 20.84375 6.0625 26.5625 6.0625 
Q 32.328125 6.0625 36.34375 10.765625 
Q 40.375 15.484375 40.375 25.140625 
Q 40.375 35.796875 36.265625 40.765625 
Q 32.171875 45.75 26.171875 45.75 
Q 20.3125 45.75 16.375 40.96875 
Q 12.453125 36.1875 12.453125 25.875 
z
" id="ArialMT-100"/>
      <path d="M 3.328125 25.921875 
Q 3.328125 40.328125 11.328125 47.265625 
Q 18.015625 53.03125 27.640625 53.03125 
Q 38.328125 53.03125 45.109375 46.015625 
Q 51.90625 39.015625 51.90625 26.65625 
Q 51.90625 16.65625 48.90625 10.90625 
Q 45.90625 5.171875 40.15625 2 
Q 34.421875 -1.171875 27.640625 -1.171875 
Q 16.75 -1.171875 10.03125 5.8125 
Q 3.328125 12.796875 3.328125 25.921875 
z
M 12.359375 25.921875 
Q 12.359375 15.96875 16.703125 11.015625 
Q 21.046875 6.0625 27.640625 6.0625 
Q 34.1875 6.0625 38.53125 11.03125 
Q 42.875 16.015625 42.875 26.21875 
Q 42.875 35.84375 38.5 40.796875 
Q 34.125 45.75 27.640625 45.75 
Q 21.046875 45.75 16.703125 40.8125 
Q 12.359375 35.890625 12.359375 25.921875 
z
" id="ArialMT-111"/>
      <path d="M 3.078125 15.484375 
L 11.765625 16.84375 
Q 12.5 11.625 15.84375 8.84375 
Q 19.1875 6.0625 25.203125 6.0625 
Q 31.25 6.0625 34.171875 8.515625 
Q 37.109375 10.984375 37.109375 14.3125 
Q 37.109375 17.28125 34.515625 19 
Q 32.71875 20.171875 25.53125 21.96875 
Q 15.875 24.421875 12.140625 26.203125 
Q 8.40625 27.984375 6.46875 31.125 
Q 4.546875 34.28125 4.546875 38.09375 
Q 4.546875 41.546875 6.125 44.5 
Q 7.71875 47.46875 10.453125 49.421875 
Q 12.5 50.921875 16.03125 51.96875 
Q 19.578125 53.03125 23.640625 53.03125 
Q 29.734375 53.03125 34.34375 51.265625 
Q 38.96875 49.515625 41.15625 46.5 
Q 43.359375 43.5 44.1875 38.484375 
L 35.59375 37.3125 
Q 35.015625 41.3125 32.203125 43.546875 
Q 29.390625 45.796875 24.265625 45.796875 
Q 18.21875 45.796875 15.625 43.796875 
Q 13.03125 41.796875 13.03125 39.109375 
Q 13.03125 37.40625 14.109375 36.03125 
Q 15.1875 34.625 17.484375 33.6875 
Q 18.796875 33.203125 25.25 31.453125 
Q 34.578125 28.953125 38.25 27.359375 
Q 41.9375 25.78125 44.03125 22.75 
Q 46.140625 19.734375 46.140625 15.234375 
Q 46.140625 10.84375 43.578125 6.953125 
Q 41.015625 3.078125 36.171875 0.953125 
Q 31.34375 -1.171875 25.25 -1.171875 
Q 15.140625 -1.171875 9.84375 3.03125 
Q 4.546875 7.234375 3.078125 15.484375 
z
" id="ArialMT-115"/>
      <path d="M 40.4375 6.390625 
Q 35.546875 2.25 31.03125 0.53125 
Q 26.515625 -1.171875 21.34375 -1.171875 
Q 12.796875 -1.171875 8.203125 3 
Q 3.609375 7.171875 3.609375 13.671875 
Q 3.609375 17.484375 5.34375 20.625 
Q 7.078125 23.78125 9.890625 25.6875 
Q 12.703125 27.59375 16.21875 28.5625 
Q 18.796875 29.25 24.03125 29.890625 
Q 34.671875 31.15625 39.703125 32.90625 
Q 39.75 34.71875 39.75 35.203125 
Q 39.75 40.578125 37.25 42.78125 
Q 33.890625 45.75 27.25 45.75 
Q 21.046875 45.75 18.09375 43.578125 
Q 15.140625 41.40625 13.71875 35.890625 
L 5.125 37.0625 
Q 6.296875 42.578125 8.984375 45.96875 
Q 11.671875 49.359375 16.75 51.1875 
Q 21.828125 53.03125 28.515625 53.03125 
Q 35.15625 53.03125 39.296875 51.46875 
Q 43.453125 49.90625 45.40625 47.53125 
Q 47.359375 45.171875 48.140625 41.546875 
Q 48.578125 39.3125 48.578125 33.453125 
L 48.578125 21.734375 
Q 48.578125 9.46875 49.140625 6.21875 
Q 49.703125 2.984375 51.375 0 
L 42.1875 0 
Q 40.828125 2.734375 40.4375 6.390625 
z
M 39.703125 26.03125 
Q 34.90625 24.078125 25.34375 22.703125 
Q 19.921875 21.921875 17.671875 20.9375 
Q 15.4375 19.96875 14.203125 18.09375 
Q 12.984375 16.21875 12.984375 13.921875 
Q 12.984375 10.40625 15.640625 8.0625 
Q 18.3125 5.71875 23.4375 5.71875 
Q 28.515625 5.71875 32.46875 7.9375 
Q 36.421875 10.15625 38.28125 14.015625 
Q 39.703125 17 39.703125 22.796875 
z
" id="ArialMT-97"/>
      <path d="M 4.984375 -4.296875 
L 13.53125 -5.5625 
Q 14.0625 -9.515625 16.5 -11.328125 
Q 19.78125 -13.765625 25.4375 -13.765625 
Q 31.546875 -13.765625 34.859375 -11.328125 
Q 38.1875 -8.890625 39.359375 -4.5 
Q 40.046875 -1.8125 39.984375 6.78125 
Q 34.234375 0 25.640625 0 
Q 14.9375 0 9.078125 7.71875 
Q 3.21875 15.4375 3.21875 26.21875 
Q 3.21875 33.640625 5.90625 39.90625 
Q 8.59375 46.1875 13.6875 49.609375 
Q 18.796875 53.03125 25.6875 53.03125 
Q 34.859375 53.03125 40.828125 45.609375 
L 40.828125 51.859375 
L 48.921875 51.859375 
L 48.921875 7.03125 
Q 48.921875 -5.078125 46.453125 -10.125 
Q 44 -15.1875 38.640625 -18.109375 
Q 33.296875 -21.046875 25.484375 -21.046875 
Q 16.21875 -21.046875 10.5 -16.875 
Q 4.78125 -12.703125 4.984375 -4.296875 
z
M 12.25 26.859375 
Q 12.25 16.65625 16.296875 11.96875 
Q 20.359375 7.28125 26.46875 7.28125 
Q 32.515625 7.28125 36.609375 11.9375 
Q 40.71875 16.609375 40.71875 26.5625 
Q 40.71875 36.078125 36.5 40.90625 
Q 32.28125 45.75 26.3125 45.75 
Q 20.453125 45.75 16.34375 40.984375 
Q 12.25 36.234375 12.25 26.859375 
z
" id="ArialMT-103"/>
      <path d="M 42.09375 16.703125 
L 51.171875 15.578125 
Q 49.03125 7.625 43.21875 3.21875 
Q 37.40625 -1.171875 28.375 -1.171875 
Q 17 -1.171875 10.328125 5.828125 
Q 3.65625 12.84375 3.65625 25.484375 
Q 3.65625 38.578125 10.390625 45.796875 
Q 17.140625 53.03125 27.875 53.03125 
Q 38.28125 53.03125 44.875 45.953125 
Q 51.46875 38.875 51.46875 26.03125 
Q 51.46875 25.25 51.421875 23.6875 
L 12.75 23.6875 
Q 13.234375 15.140625 17.578125 10.59375 
Q 21.921875 6.0625 28.421875 6.0625 
Q 33.25 6.0625 36.671875 8.59375 
Q 40.09375 11.140625 42.09375 16.703125 
z
M 13.234375 30.90625 
L 42.1875 30.90625 
Q 41.609375 37.453125 38.875 40.71875 
Q 34.671875 45.796875 27.984375 45.796875 
Q 21.921875 45.796875 17.796875 41.75 
Q 13.671875 37.703125 13.234375 30.90625 
z
" id="ArialMT-101"/>
      <path id="ArialMT-32"/>
      <path d="M 6.5 0 
L 6.5 51.859375 
L 14.40625 51.859375 
L 14.40625 44 
Q 17.4375 49.515625 20 51.265625 
Q 22.5625 53.03125 25.640625 53.03125 
Q 30.078125 53.03125 34.671875 50.203125 
L 31.640625 42.046875 
Q 28.421875 43.953125 25.203125 43.953125 
Q 22.3125 43.953125 20.015625 42.21875 
Q 17.71875 40.484375 16.75 37.40625 
Q 15.28125 32.71875 15.28125 27.15625 
L 15.28125 0 
z
" id="ArialMT-114"/>
      <path d="M 6.59375 0 
L 6.59375 51.859375 
L 14.5 51.859375 
L 14.5 44.484375 
Q 20.21875 53.03125 31 53.03125 
Q 35.6875 53.03125 39.625 51.34375 
Q 43.5625 49.65625 45.515625 46.921875 
Q 47.46875 44.1875 48.25 40.4375 
Q 48.734375 37.984375 48.734375 31.890625 
L 48.734375 0 
L 39.9375 0 
L 39.9375 31.546875 
Q 39.9375 36.921875 38.90625 39.578125 
Q 37.890625 42.234375 35.28125 43.8125 
Q 32.671875 45.40625 29.15625 45.40625 
Q 23.53125 45.40625 19.453125 41.84375 
Q 15.375 38.28125 15.375 28.328125 
L 15.375 0 
z
" id="ArialMT-110"/>
      <path d="M 21 0 
L 1.265625 51.859375 
L 10.546875 51.859375 
L 21.6875 20.796875 
Q 23.484375 15.765625 25 10.359375 
Q 26.171875 14.453125 28.265625 20.21875 
L 39.796875 51.859375 
L 48.828125 51.859375 
L 29.203125 0 
z
" id="ArialMT-118"/>
      <path d="M 6.390625 0 
L 6.390625 71.578125 
L 15.1875 71.578125 
L 15.1875 0 
z
" id="ArialMT-108"/>
      <path d="M 6.59375 -19.875 
L 6.59375 51.859375 
L 14.59375 51.859375 
L 14.59375 45.125 
Q 17.4375 49.078125 21 51.046875 
Q 24.5625 53.03125 29.640625 53.03125 
Q 36.28125 53.03125 41.359375 49.609375 
Q 46.4375 46.1875 49.015625 39.953125 
Q 51.609375 33.734375 51.609375 26.3125 
Q 51.609375 18.359375 48.75 11.984375 
Q 45.90625 5.609375 40.453125 2.21875 
Q 35.015625 -1.171875 29 -1.171875 
Q 24.609375 -1.171875 21.109375 0.6875 
Q 17.625 2.546875 15.375 5.375 
L 15.375 -19.875 
z
M 14.546875 25.640625 
Q 14.546875 15.625 18.59375 10.84375 
Q 22.65625 6.0625 28.421875 6.0625 
Q 34.28125 6.0625 38.453125 11.015625 
Q 42.625 15.96875 42.625 26.375 
Q 42.625 36.28125 38.546875 41.203125 
Q 34.46875 46.140625 28.8125 46.140625 
Q 23.1875 46.140625 18.859375 40.890625 
Q 14.546875 35.640625 14.546875 25.640625 
z
" id="ArialMT-112"/>
     </defs>
     <g style="fill:#262626;" transform="translate(156.326562 359.774844)scale(0.12 -0.12)">
      <use xlink:href="#ArialMT-100"/>
      <use x="55.615234" xlink:href="#ArialMT-111"/>
      <use x="111.230469" xlink:href="#ArialMT-115"/>
      <use x="161.230469" xlink:href="#ArialMT-97"/>
      <use x="216.845703" xlink:href="#ArialMT-103"/>
      <use x="272.460938" xlink:href="#ArialMT-101"/>
      <use x="328.076172" xlink:href="#ArialMT-32"/>
      <use x="355.859375" xlink:href="#ArialMT-114"/>
      <use x="389.160156" xlink:href="#ArialMT-97"/>
      <use x="444.775391" xlink:href="#ArialMT-110"/>
      <use x="500.390625" xlink:href="#ArialMT-103"/>
      <use x="556.005859" xlink:href="#ArialMT-101"/>
      <use x="611.621094" xlink:href="#ArialMT-32"/>
      <use x="639.404297" xlink:href="#ArialMT-111"/>
      <use x="695.019531" xlink:href="#ArialMT-118"/>
      <use x="745.019531" xlink:href="#ArialMT-101"/>
      <use x="800.634766" xlink:href="#ArialMT-114"/>
      <use x="833.935547" xlink:href="#ArialMT-108"/>
      <use x="856.152344" xlink:href="#ArialMT-97"/>
      <use x="911.767578" xlink:href="#ArialMT-112"/>
     </g>
    </g>
   </g>
   <g id="matplotlib.axis_2">
    <g id="ytick_1">
     <g id="line2d_1">
      <path clip-path="url(#p84a1207158)" d="M 46.964375 227.781565 
L 381.764375 227.781565 
" style="fill:none;stroke:#ffffff;stroke-linecap:round;"/>
     </g>
     <g id="text_6">
      <!-- 0.0 -->
      <g style="fill:#262626;" transform="translate(22.174375 231.718362)scale(0.11 -0.11)">
       <use xlink:href="#ArialMT-48"/>
       <use x="55.615234" xlink:href="#ArialMT-46"/>
       <use x="83.398438" xlink:href="#ArialMT-48"/>
      </g>
     </g>
    </g>
    <g id="ytick_2">
     <g id="line2d_2">
      <path clip-path="url(#p84a1207158)" d="M 46.964375 186.990714 
L 381.764375 186.990714 
" style="fill:none;stroke:#ffffff;stroke-linecap:round;"/>
     </g>
     <g id="text_7">
      <!-- 0.1 -->
      <g style="fill:#262626;" transform="translate(22.174375 190.927511)scale(0.11 -0.11)">
       <use xlink:href="#ArialMT-48"/>
       <use x="55.615234" xlink:href="#ArialMT-46"/>
       <use x="83.398438" xlink:href="#ArialMT-49"/>
      </g>
     </g>
    </g>
    <g id="ytick_3">
     <g id="line2d_3">
      <path clip-path="url(#p84a1207158)" d="M 46.964375 146.199863 
L 381.764375 146.199863 
" style="fill:none;stroke:#ffffff;stroke-linecap:round;"/>
     </g>
     <g id="text_8">
      <!-- 0.2 -->
      <g style="fill:#262626;" transform="translate(22.174375 150.13666)scale(0.11 -0.11)">
       <use xlink:href="#ArialMT-48"/>
       <use x="55.615234" xlink:href="#ArialMT-46"/>
       <use x="83.398438" xlink:href="#ArialMT-50"/>
      </g>
     </g>
    </g>
    <g id="ytick_4">
     <g id="line2d_4">
      <path clip-path="url(#p84a1207158)" d="M 46.964375 105.409012 
L 381.764375 105.409012 
" style="fill:none;stroke:#ffffff;stroke-linecap:round;"/>
     </g>
     <g id="text_9">
      <!-- 0.3 -->
      <g style="fill:#262626;" transform="translate(22.174375 109.345809)scale(0.11 -0.11)">
       <use xlink:href="#ArialMT-48"/>
       <use x="55.615234" xlink:href="#ArialMT-46"/>
       <use x="83.398438" xlink:href="#ArialMT-51"/>
      </g>
     </g>
    </g>
    <g id="ytick_5">
     <g id="line2d_5">
      <path clip-path="url(#p84a1207158)" d="M 46.964375 64.618161 
L 381.764375 64.618161 
" style="fill:none;stroke:#ffffff;stroke-linecap:round;"/>
     </g>
     <g id="text_10">
      <!-- 0.4 -->
      <g style="fill:#262626;" transform="translate(22.174375 68.554958)scale(0.11 -0.11)">
       <use xlink:href="#ArialMT-48"/>
       <use x="55.615234" xlink:href="#ArialMT-46"/>
       <use x="83.398438" xlink:href="#ArialMT-52"/>
      </g>
     </g>
    </g>
    <g id="ytick_6">
     <g id="line2d_6">
      <path clip-path="url(#p84a1207158)" d="M 46.964375 23.82731 
L 381.764375 23.82731 
" style="fill:none;stroke:#ffffff;stroke-linecap:round;"/>
     </g>
     <g id="text_11">
      <!-- 0.5 -->
      <g style="fill:#262626;" transform="translate(22.174375 27.764107)scale(0.11 -0.11)">
       <use xlink:href="#ArialMT-48"/>
       <use x="55.615234" xlink:href="#ArialMT-46"/>
       <use x="83.398438" xlink:href="#ArialMT-53"/>
      </g>
     </g>
    </g>
    <g id="text_12">
     <!-- value -->
     <defs>
      <path d="M 40.578125 0 
L 40.578125 7.625 
Q 34.515625 -1.171875 24.125 -1.171875 
Q 19.53125 -1.171875 15.546875 0.578125 
Q 11.578125 2.34375 9.640625 5 
Q 7.71875 7.671875 6.9375 11.53125 
Q 6.390625 14.109375 6.390625 19.734375 
L 6.390625 51.859375 
L 15.1875 51.859375 
L 15.1875 23.09375 
Q 15.1875 16.21875 15.71875 13.8125 
Q 16.546875 10.359375 19.234375 8.375 
Q 21.921875 6.390625 25.875 6.390625 
Q 29.828125 6.390625 33.296875 8.421875 
Q 36.765625 10.453125 38.203125 13.9375 
Q 39.65625 17.4375 39.65625 24.078125 
L 39.65625 51.859375 
L 48.4375 51.859375 
L 48.4375 0 
z
" id="ArialMT-117"/>
     </defs>
     <g style="fill:#262626;" transform="translate(15.789375 136.262812)rotate(-90)scale(0.12 -0.12)">
      <use xlink:href="#ArialMT-118"/>
      <use x="50" xlink:href="#ArialMT-97"/>
      <use x="105.615234" xlink:href="#ArialMT-108"/>
      <use x="127.832031" xlink:href="#ArialMT-117"/>
      <use x="183.447266" xlink:href="#ArialMT-101"/>
     </g>
    </g>
   </g>
   <g id="patch_3">
    <path clip-path="url(#p84a1207158)" d="M 56.003975 177.951431 
L 121.624775 177.951431 
L 121.624775 121.260177 
L 56.003975 121.260177 
L 56.003975 177.951431 
z
" style="fill:#176d9c;stroke:#363636;stroke-linejoin:miter;stroke-width:1.5;"/>
   </g>
   <g id="patch_4">
    <path clip-path="url(#p84a1207158)" d="M 139.703975 166.837591 
L 205.324775 166.837591 
L 205.324775 132.179713 
L 139.703975 132.179713 
L 139.703975 166.837591 
z
" style="fill:#176d9c;stroke:#363636;stroke-linejoin:miter;stroke-width:1.5;"/>
   </g>
   <g id="patch_5">
    <path clip-path="url(#p84a1207158)" d="M 223.403975 196.591229 
L 289.024775 196.591229 
L 289.024775 170.994555 
L 223.403975 170.994555 
L 223.403975 196.591229 
z
" style="fill:#176d9c;stroke:#363636;stroke-linejoin:miter;stroke-width:1.5;"/>
   </g>
   <g id="patch_6">
    <path clip-path="url(#p84a1207158)" d="M 307.103975 189.134611 
L 372.724775 189.134611 
L 372.724775 143.298671 
L 307.103975 143.298671 
L 307.103975 189.134611 
z
" style="fill:#176d9c;stroke:#363636;stroke-linejoin:miter;stroke-width:1.5;"/>
   </g>
   <g id="PathCollection_1"/>
   <g id="patch_7">
    <path clip-path="url(#p84a1207158)" d="M 88.814375 227.781565 
L 88.814375 227.781565 
L 88.814375 227.781565 
L 88.814375 227.781565 
z
" style="fill:#176d9c;stroke:#363636;stroke-linejoin:miter;stroke-width:0.75;"/>
   </g>
   <g id="line2d_7">
    <path clip-path="url(#p84a1207158)" d="M 88.814375 177.951431 
L 88.814375 185.55043 
" style="fill:none;stroke:#363636;stroke-linecap:round;stroke-width:1.5;"/>
   </g>
   <g id="line2d_8">
    <path clip-path="url(#p84a1207158)" d="M 88.814375 121.260177 
L 88.814375 42.622401 
" style="fill:none;stroke:#363636;stroke-linecap:round;stroke-width:1.5;"/>
   </g>
   <g id="line2d_9">
    <path clip-path="url(#p84a1207158)" d="M 72.409175 185.55043 
L 105.219575 185.55043 
" style="fill:none;stroke:#363636;stroke-linecap:round;stroke-width:1.5;"/>
   </g>
   <g id="line2d_10">
    <path clip-path="url(#p84a1207158)" d="M 72.409175 42.622401 
L 105.219575 42.622401 
" style="fill:none;stroke:#363636;stroke-linecap:round;stroke-width:1.5;"/>
   </g>
   <g id="line2d_11"/>
   <g id="line2d_12">
    <path clip-path="url(#p84a1207158)" d="M 172.514375 166.837591 
L 172.514375 177.310675 
" style="fill:none;stroke:#363636;stroke-linecap:round;stroke-width:1.5;"/>
   </g>
   <g id="line2d_13">
    <path clip-path="url(#p84a1207158)" d="M 172.514375 132.179713 
L 172.514375 106.730692 
" style="fill:none;stroke:#363636;stroke-linecap:round;stroke-width:1.5;"/>
   </g>
   <g id="line2d_14">
    <path clip-path="url(#p84a1207158)" d="M 156.109175 177.310675 
L 188.919575 177.310675 
" style="fill:none;stroke:#363636;stroke-linecap:round;stroke-width:1.5;"/>
   </g>
   <g id="line2d_15">
    <path clip-path="url(#p84a1207158)" d="M 156.109175 106.730692 
L 188.919575 106.730692 
" style="fill:none;stroke:#363636;stroke-linecap:round;stroke-width:1.5;"/>
   </g>
   <g id="line2d_16"/>
   <g id="line2d_17">
    <path clip-path="url(#p84a1207158)" d="M 256.214375 196.591229 
L 256.214375 202.577573 
" style="fill:none;stroke:#363636;stroke-linecap:round;stroke-width:1.5;"/>
   </g>
   <g id="line2d_18">
    <path clip-path="url(#p84a1207158)" d="M 256.214375 170.994555 
L 256.214375 149.50439 
" style="fill:none;stroke:#363636;stroke-linecap:round;stroke-width:1.5;"/>
   </g>
   <g id="line2d_19">
    <path clip-path="url(#p84a1207158)" d="M 239.809175 202.577573 
L 272.619575 202.577573 
" style="fill:none;stroke:#363636;stroke-linecap:round;stroke-width:1.5;"/>
   </g>
   <g id="line2d_20">
    <path clip-path="url(#p84a1207158)" d="M 239.809175 149.50439 
L 272.619575 149.50439 
" style="fill:none;stroke:#363636;stroke-linecap:round;stroke-width:1.5;"/>
   </g>
   <g id="line2d_21"/>
   <g id="line2d_22">
    <path clip-path="url(#p84a1207158)" d="M 339.914375 189.134611 
L 339.914375 219.521975 
" style="fill:none;stroke:#363636;stroke-linecap:round;stroke-width:1.5;"/>
   </g>
   <g id="line2d_23">
    <path clip-path="url(#p84a1207158)" d="M 339.914375 143.298671 
L 339.914375 86.678711 
" style="fill:none;stroke:#363636;stroke-linecap:round;stroke-width:1.5;"/>
   </g>
   <g id="line2d_24">
    <path clip-path="url(#p84a1207158)" d="M 323.509175 219.521975 
L 356.319575 219.521975 
" style="fill:none;stroke:#363636;stroke-linecap:round;stroke-width:1.5;"/>
   </g>
   <g id="line2d_25">
    <path clip-path="url(#p84a1207158)" d="M 323.509175 86.678711 
L 356.319575 86.678711 
" style="fill:none;stroke:#363636;stroke-linecap:round;stroke-width:1.5;"/>
   </g>
   <g id="line2d_26"/>
   <g id="line2d_27">
    <path clip-path="url(#p84a1207158)" d="M 56.003975 159.537395 
L 121.624775 159.537395 
" style="fill:none;stroke:#363636;stroke-linecap:round;stroke-width:1.5;"/>
   </g>
   <g id="line2d_28">
    <path clip-path="url(#p84a1207158)" d="M 139.703975 142.780573 
L 205.324775 142.780573 
" style="fill:none;stroke:#363636;stroke-linecap:round;stroke-width:1.5;"/>
   </g>
   <g id="line2d_29">
    <path clip-path="url(#p84a1207158)" d="M 223.403975 185.755482 
L 289.024775 185.755482 
" style="fill:none;stroke:#363636;stroke-linecap:round;stroke-width:1.5;"/>
   </g>
   <g id="line2d_30">
    <path clip-path="url(#p84a1207158)" d="M 307.103975 167.147352 
L 372.724775 167.147352 
" style="fill:none;stroke:#363636;stroke-linecap:round;stroke-width:1.5;"/>
   </g>
   <g id="patch_8">
    <path d="M 46.964375 230.64 
L 46.964375 13.2 
" style="fill:none;stroke:#ffffff;stroke-linecap:square;stroke-linejoin:miter;stroke-width:1.25;"/>
   </g>
   <g id="patch_9">
    <path d="M 381.764375 230.64 
L 381.764375 13.2 
" style="fill:none;stroke:#ffffff;stroke-linecap:square;stroke-linejoin:miter;stroke-width:1.25;"/>
   </g>
   <g id="patch_10">
    <path d="M 46.964375 230.64 
L 381.764375 230.64 
" style="fill:none;stroke:#ffffff;stroke-linecap:square;stroke-linejoin:miter;stroke-width:1.25;"/>
   </g>
   <g id="patch_11">
    <path d="M 46.964375 13.2 
L 381.764375 13.2 
" style="fill:none;stroke:#ffffff;stroke-linecap:square;stroke-linejoin:miter;stroke-width:1.25;"/>
   </g>
   <g id="PathCollection_2">
    <defs>
     <path d="M 0 1.25 
C 0.331504 1.25 0.649475 1.118292 0.883883 0.883883 
C 1.118292 0.649475 1.25 0.331504 1.25 0 
C 1.25 -0.331504 1.118292 -0.649475 0.883883 -0.883883 
C 0.649475 -1.118292 0.331504 -1.25 0 -1.25 
C -0.331504 -1.25 -0.649475 -1.118292 -0.883883 -0.883883 
C -1.118292 -0.649475 -1.25 -0.331504 -1.25 0 
C -1.25 0.331504 -1.118292 0.649475 -0.883883 0.883883 
C -0.649475 1.118292 -0.331504 1.25 0 1.25 
z
" id="C0_0_658e99568d"/>
    </defs>
    <g clip-path="url(#p84a1207158)">
     <use style="fill:#222222;fill-opacity:0.5;" x="84.977723" xlink:href="#C0_0_658e99568d" y="129.958454"/>
    </g>
    <g clip-path="url(#p84a1207158)">
     <use style="fill:#222222;fill-opacity:0.5;" x="89.099995" xlink:href="#C0_0_658e99568d" y="112.600863"/>
    </g>
    <g clip-path="url(#p84a1207158)">
     <use style="fill:#222222;fill-opacity:0.5;" x="86.766938" xlink:href="#C0_0_658e99568d" y="179.767386"/>
    </g>
    <g clip-path="url(#p84a1207158)">
     <use style="fill:#222222;fill-opacity:0.5;" x="96.529038" xlink:href="#C0_0_658e99568d" y="172.503567"/>
    </g>
    <g clip-path="url(#p84a1207158)">
     <use style="fill:#222222;fill-opacity:0.5;" x="86.436557" xlink:href="#C0_0_658e99568d" y="118.360751"/>
    </g>
    <g clip-path="url(#p84a1207158)">
     <use style="fill:#222222;fill-opacity:0.5;" x="87.828889" xlink:href="#C0_0_658e99568d" y="182.438841"/>
    </g>
    <g clip-path="url(#p84a1207158)">
     <use style="fill:#222222;fill-opacity:0.5;" x="89.090893" xlink:href="#C0_0_658e99568d" y="169.872045"/>
    </g>
    <g clip-path="url(#p84a1207158)">
     <use style="fill:#222222;fill-opacity:0.5;" x="84.356958" xlink:href="#C0_0_658e99568d" y="149.202745"/>
    </g>
    <g clip-path="url(#p84a1207158)">
     <use style="fill:#222222;fill-opacity:0.5;" x="91.931486" xlink:href="#C0_0_658e99568d" y="185.55043"/>
    </g>
    <g clip-path="url(#p84a1207158)">
     <use style="fill:#222222;fill-opacity:0.5;" x="82.675429" xlink:href="#C0_0_658e99568d" y="42.622401"/>
    </g>
   </g>
   <g id="PathCollection_3">
    <defs>
     <path d="M 0 1.25 
C 0.331504 1.25 0.649475 1.118292 0.883883 0.883883 
C 1.118292 0.649475 1.25 0.331504 1.25 0 
C 1.25 -0.331504 1.118292 -0.649475 0.883883 -0.883883 
C 0.649475 -1.118292 0.331504 -1.25 0 -1.25 
C -0.331504 -1.25 -0.649475 -1.118292 -0.883883 -0.883883 
C -1.118292 -0.649475 -1.25 -0.331504 -1.25 0 
C -1.25 0.331504 -1.118292 0.649475 -0.883883 0.883883 
C -0.649475 1.118292 -0.331504 1.25 0 1.25 
z
" id="C1_0_3dbe050a50"/>
    </defs>
    <g clip-path="url(#p84a1207158)">
     <use style="fill:#222222;fill-opacity:0.5;" x="169.457692" xlink:href="#C1_0_3dbe050a50" y="106.730692"/>
    </g>
    <g clip-path="url(#p84a1207158)">
     <use style="fill:#222222;fill-opacity:0.5;" x="177.502819" xlink:href="#C1_0_3dbe050a50" y="123.536023"/>
    </g>
    <g clip-path="url(#p84a1207158)">
     <use style="fill:#222222;fill-opacity:0.5;" x="179.887478" xlink:href="#C1_0_3dbe050a50" y="141.189997"/>
    </g>
    <g clip-path="url(#p84a1207158)">
     <use style="fill:#222222;fill-opacity:0.5;" x="164.521459" xlink:href="#C1_0_3dbe050a50" y="131.977263"/>
    </g>
    <g clip-path="url(#p84a1207158)">
     <use style="fill:#222222;fill-opacity:0.5;" x="170.811116" xlink:href="#C1_0_3dbe050a50" y="162.455363"/>
    </g>
    <g clip-path="url(#p84a1207158)">
     <use style="fill:#222222;fill-opacity:0.5;" x="171.135936" xlink:href="#C1_0_3dbe050a50" y="144.371149"/>
    </g>
    <g clip-path="url(#p84a1207158)">
     <use style="fill:#222222;fill-opacity:0.5;" x="166.373959" xlink:href="#C1_0_3dbe050a50" y="132.787061"/>
    </g>
    <g clip-path="url(#p84a1207158)">
     <use style="fill:#222222;fill-opacity:0.5;" x="169.52238" xlink:href="#C1_0_3dbe050a50" y="168.298333"/>
    </g>
    <g clip-path="url(#p84a1207158)">
     <use style="fill:#222222;fill-opacity:0.5;" x="179.809846" xlink:href="#C1_0_3dbe050a50" y="177.310675"/>
    </g>
    <g clip-path="url(#p84a1207158)">
     <use style="fill:#222222;fill-opacity:0.5;" x="165.53235" xlink:href="#C1_0_3dbe050a50" y="169.722983"/>
    </g>
   </g>
   <g id="PathCollection_4">
    <defs>
     <path d="M 0 1.25 
C 0.331504 1.25 0.649475 1.118292 0.883883 0.883883 
C 1.118292 0.649475 1.25 0.331504 1.25 0 
C 1.25 -0.331504 1.118292 -0.649475 0.883883 -0.883883 
C 0.649475 -1.118292 0.331504 -1.25 0 -1.25 
C -0.331504 -1.25 -0.649475 -1.118292 -0.883883 -0.883883 
C -1.118292 -0.649475 -1.25 -0.331504 -1.25 0 
C -1.25 0.331504 -1.118292 0.649475 -0.883883 0.883883 
C -0.649475 1.118292 -0.331504 1.25 0 1.25 
z
" id="C2_0_1501232fde"/>
    </defs>
    <g clip-path="url(#p84a1207158)">
     <use style="fill:#222222;fill-opacity:0.5;" x="256.005213" xlink:href="#C2_0_1501232fde" y="202.577573"/>
    </g>
    <g clip-path="url(#p84a1207158)">
     <use style="fill:#222222;fill-opacity:0.5;" x="259.869079" xlink:href="#C2_0_1501232fde" y="189.781842"/>
    </g>
    <g clip-path="url(#p84a1207158)">
     <use style="fill:#222222;fill-opacity:0.5;" x="258.709765" xlink:href="#C2_0_1501232fde" y="198.861025"/>
    </g>
    <g clip-path="url(#p84a1207158)">
     <use style="fill:#222222;fill-opacity:0.5;" x="263.501839" xlink:href="#C2_0_1501232fde" y="167.416365"/>
    </g>
    <g clip-path="url(#p84a1207158)">
     <use style="fill:#222222;fill-opacity:0.5;" x="258.727828" xlink:href="#C2_0_1501232fde" y="149.50439"/>
    </g>
    <g clip-path="url(#p84a1207158)">
     <use style="fill:#222222;fill-opacity:0.5;" x="248.737451" xlink:href="#C2_0_1501232fde" y="181.729122"/>
    </g>
   </g>
   <g id="PathCollection_5">
    <defs>
     <path d="M 0 1.25 
C 0.331504 1.25 0.649475 1.118292 0.883883 0.883883 
C 1.118292 0.649475 1.25 0.331504 1.25 0 
C 1.25 -0.331504 1.118292 -0.649475 0.883883 -0.883883 
C 0.649475 -1.118292 0.331504 -1.25 0 -1.25 
C -0.331504 -1.25 -0.649475 -1.118292 -0.883883 -0.883883 
C -1.118292 -0.649475 -1.25 -0.331504 -1.25 0 
C -1.25 0.331504 -1.118292 0.649475 -0.883883 0.883883 
C -0.649475 1.118292 -0.331504 1.25 0 1.25 
z
" id="C3_0_c0f587c8ca"/>
    </defs>
    <g clip-path="url(#p84a1207158)">
     <use style="fill:#222222;fill-opacity:0.5;" x="346.892741" xlink:href="#C3_0_c0f587c8ca" y="180.072305"/>
    </g>
    <g clip-path="url(#p84a1207158)">
     <use style="fill:#222222;fill-opacity:0.5;" x="337.186599" xlink:href="#C3_0_c0f587c8ca" y="199.828234"/>
    </g>
    <g clip-path="url(#p84a1207158)">
     <use style="fill:#222222;fill-opacity:0.5;" x="335.655946" xlink:href="#C3_0_c0f587c8ca" y="195.637004"/>
    </g>
    <g clip-path="url(#p84a1207158)">
     <use style="fill:#222222;fill-opacity:0.5;" x="331.894996" xlink:href="#C3_0_c0f587c8ca" y="205.907787"/>
    </g>
    <g clip-path="url(#p84a1207158)">
     <use style="fill:#222222;fill-opacity:0.5;" x="333.520194" xlink:href="#C3_0_c0f587c8ca" y="210.977993"/>
    </g>
    <g clip-path="url(#p84a1207158)">
     <use style="fill:#222222;fill-opacity:0.5;" x="339.899794" xlink:href="#C3_0_c0f587c8ca" y="219.521975"/>
    </g>
    <g clip-path="url(#p84a1207158)">
     <use style="fill:#222222;fill-opacity:0.5;" x="334.256353" xlink:href="#C3_0_c0f587c8ca" y="189.021441"/>
    </g>
    <g clip-path="url(#p84a1207158)">
     <use style="fill:#222222;fill-opacity:0.5;" x="346.243746" xlink:href="#C3_0_c0f587c8ca" y="190.075526"/>
    </g>
    <g clip-path="url(#p84a1207158)">
     <use style="fill:#222222;fill-opacity:0.5;" x="340.7368" xlink:href="#C3_0_c0f587c8ca" y="88.76848"/>
    </g>
    <g clip-path="url(#p84a1207158)">
     <use style="fill:#222222;fill-opacity:0.5;" x="345.825008" xlink:href="#C3_0_c0f587c8ca" y="24.318025"/>
    </g>
    <g clip-path="url(#p84a1207158)">
     <use style="fill:#222222;fill-opacity:0.5;" x="343.153249" xlink:href="#C3_0_c0f587c8ca" y="213.434743"/>
    </g>
    <g clip-path="url(#p84a1207158)">
     <use style="fill:#222222;fill-opacity:0.5;" x="346.48513" xlink:href="#C3_0_c0f587c8ca" y="190.6721"/>
    </g>
    <g clip-path="url(#p84a1207158)">
     <use style="fill:#222222;fill-opacity:0.5;" x="336.777405" xlink:href="#C3_0_c0f587c8ca" y="188.277561"/>
    </g>
    <g clip-path="url(#p84a1207158)">
     <use style="fill:#222222;fill-opacity:0.5;" x="336.300488" xlink:href="#C3_0_c0f587c8ca" y="143.317662"/>
    </g>
    <g clip-path="url(#p84a1207158)">
     <use style="fill:#222222;fill-opacity:0.5;" x="347.35289" xlink:href="#C3_0_c0f587c8ca" y="167.692037"/>
    </g>
    <g clip-path="url(#p84a1207158)">
     <use style="fill:#222222;fill-opacity:0.5;" x="336.322002" xlink:href="#C3_0_c0f587c8ca" y="154.489654"/>
    </g>
    <g clip-path="url(#p84a1207158)">
     <use style="fill:#222222;fill-opacity:0.5;" x="334.961764" xlink:href="#C3_0_c0f587c8ca" y="167.522282"/>
    </g>
    <g clip-path="url(#p84a1207158)">
     <use style="fill:#222222;fill-opacity:0.5;" x="339.881499" xlink:href="#C3_0_c0f587c8ca" y="160.891344"/>
    </g>
    <g clip-path="url(#p84a1207158)">
     <use style="fill:#222222;fill-opacity:0.5;" x="345.873538" xlink:href="#C3_0_c0f587c8ca" y="157.976939"/>
    </g>
    <g clip-path="url(#p84a1207158)">
     <use style="fill:#222222;fill-opacity:0.5;" x="333.1343" xlink:href="#C3_0_c0f587c8ca" y="179.296371"/>
    </g>
    <g clip-path="url(#p84a1207158)">
     <use style="fill:#222222;fill-opacity:0.5;" x="334.256751" xlink:href="#C3_0_c0f587c8ca" y="168.030693"/>
    </g>
    <g clip-path="url(#p84a1207158)">
     <use style="fill:#222222;fill-opacity:0.5;" x="344.091238" xlink:href="#C3_0_c0f587c8ca" y="201.923606"/>
    </g>
    <g clip-path="url(#p84a1207158)">
     <use style="fill:#222222;fill-opacity:0.5;" x="337.579513" xlink:href="#C3_0_c0f587c8ca" y="172.711665"/>
    </g>
    <g clip-path="url(#p84a1207158)">
     <use style="fill:#222222;fill-opacity:0.5;" x="331.899052" xlink:href="#C3_0_c0f587c8ca" y="143.241696"/>
    </g>
    <g clip-path="url(#p84a1207158)">
     <use style="fill:#222222;fill-opacity:0.5;" x="343.288723" xlink:href="#C3_0_c0f587c8ca" y="149.026561"/>
    </g>
    <g clip-path="url(#p84a1207158)">
     <use style="fill:#222222;fill-opacity:0.5;" x="342.588388" xlink:href="#C3_0_c0f587c8ca" y="205.480083"/>
    </g>
    <g clip-path="url(#p84a1207158)">
     <use style="fill:#222222;fill-opacity:0.5;" x="336.365706" xlink:href="#C3_0_c0f587c8ca" y="196.825773"/>
    </g>
    <g clip-path="url(#p84a1207158)">
     <use style="fill:#222222;fill-opacity:0.5;" x="340.372813" xlink:href="#C3_0_c0f587c8ca" y="51.290679"/>
    </g>
    <g clip-path="url(#p84a1207158)">
     <use style="fill:#222222;fill-opacity:0.5;" x="336.130674" xlink:href="#C3_0_c0f587c8ca" y="166.042403"/>
    </g>
    <g clip-path="url(#p84a1207158)">
     <use style="fill:#222222;fill-opacity:0.5;" x="345.38996" xlink:href="#C3_0_c0f587c8ca" y="161.343055"/>
    </g>
    <g clip-path="url(#p84a1207158)">
     <use style="fill:#222222;fill-opacity:0.5;" x="341.867679" xlink:href="#C3_0_c0f587c8ca" y="188.076022"/>
    </g>
    <g clip-path="url(#p84a1207158)">
     <use style="fill:#222222;fill-opacity:0.5;" x="341.735601" xlink:href="#C3_0_c0f587c8ca" y="182.940269"/>
    </g>
    <g clip-path="url(#p84a1207158)">
     <use style="fill:#222222;fill-opacity:0.5;" x="342.441204" xlink:href="#C3_0_c0f587c8ca" y="171.501706"/>
    </g>
    <g clip-path="url(#p84a1207158)">
     <use style="fill:#222222;fill-opacity:0.5;" x="343.582975" xlink:href="#C3_0_c0f587c8ca" y="190.649557"/>
    </g>
    <g clip-path="url(#p84a1207158)">
     <use style="fill:#222222;fill-opacity:0.5;" x="332.470717" xlink:href="#C3_0_c0f587c8ca" y="166.191239"/>
    </g>
    <g clip-path="url(#p84a1207158)">
     <use style="fill:#222222;fill-opacity:0.5;" x="344.529344" xlink:href="#C3_0_c0f587c8ca" y="204.471725"/>
    </g>
    <g clip-path="url(#p84a1207158)">
     <use style="fill:#222222;fill-opacity:0.5;" x="332.461829" xlink:href="#C3_0_c0f587c8ca" y="186.229264"/>
    </g>
    <g clip-path="url(#p84a1207158)">
     <use style="fill:#222222;fill-opacity:0.5;" x="335.740186" xlink:href="#C3_0_c0f587c8ca" y="196.772127"/>
    </g>
    <g clip-path="url(#p84a1207158)">
     <use style="fill:#222222;fill-opacity:0.5;" x="332.098315" xlink:href="#C3_0_c0f587c8ca" y="159.680756"/>
    </g>
    <g clip-path="url(#p84a1207158)">
     <use style="fill:#222222;fill-opacity:0.5;" x="342.549017" xlink:href="#C3_0_c0f587c8ca" y="198.898368"/>
    </g>
    <g clip-path="url(#p84a1207158)">
     <use style="fill:#222222;fill-opacity:0.5;" x="342.79607" xlink:href="#C3_0_c0f587c8ca" y="155.333671"/>
    </g>
    <g clip-path="url(#p84a1207158)">
     <use style="fill:#222222;fill-opacity:0.5;" x="344.213097" xlink:href="#C3_0_c0f587c8ca" y="174.014721"/>
    </g>
    <g clip-path="url(#p84a1207158)">
     <use style="fill:#222222;fill-opacity:0.5;" x="334.358666" xlink:href="#C3_0_c0f587c8ca" y="195.077772"/>
    </g>
    <g clip-path="url(#p84a1207158)">
     <use style="fill:#222222;fill-opacity:0.5;" x="340.212757" xlink:href="#C3_0_c0f587c8ca" y="153.831729"/>
    </g>
    <g clip-path="url(#p84a1207158)">
     <use style="fill:#222222;fill-opacity:0.5;" x="347.117193" xlink:href="#C3_0_c0f587c8ca" y="86.678711"/>
    </g>
    <g clip-path="url(#p84a1207158)">
     <use style="fill:#222222;fill-opacity:0.5;" x="342.896668" xlink:href="#C3_0_c0f587c8ca" y="142.352608"/>
    </g>
    <g clip-path="url(#p84a1207158)">
     <use style="fill:#222222;fill-opacity:0.5;" x="343.858295" xlink:href="#C3_0_c0f587c8ca" y="183.961686"/>
    </g>
    <g clip-path="url(#p84a1207158)">
     <use style="fill:#222222;fill-opacity:0.5;" x="343.685699" xlink:href="#C3_0_c0f587c8ca" y="195.040501"/>
    </g>
    <g clip-path="url(#p84a1207158)">
     <use style="fill:#222222;fill-opacity:0.5;" x="347.365766" xlink:href="#C3_0_c0f587c8ca" y="154.623992"/>
    </g>
    <g clip-path="url(#p84a1207158)">
     <use style="fill:#222222;fill-opacity:0.5;" x="341.662021" xlink:href="#C3_0_c0f587c8ca" y="175.256617"/>
    </g>
    <g clip-path="url(#p84a1207158)">
     <use style="fill:#222222;fill-opacity:0.5;" x="342.844804" xlink:href="#C3_0_c0f587c8ca" y="134.493924"/>
    </g>
    <g clip-path="url(#p84a1207158)">
     <use style="fill:#222222;fill-opacity:0.5;" x="339.495905" xlink:href="#C3_0_c0f587c8ca" y="179.998647"/>
    </g>
    <g clip-path="url(#p84a1207158)">
     <use style="fill:#222222;fill-opacity:0.5;" x="337.760773" xlink:href="#C3_0_c0f587c8ca" y="208.735637"/>
    </g>
    <g clip-path="url(#p84a1207158)">
     <use style="fill:#222222;fill-opacity:0.5;" x="347.234157" xlink:href="#C3_0_c0f587c8ca" y="150.302193"/>
    </g>
    <g clip-path="url(#p84a1207158)">
     <use style="fill:#222222;fill-opacity:0.5;" x="336.217934" xlink:href="#C3_0_c0f587c8ca" y="131.856224"/>
    </g>
    <g clip-path="url(#p84a1207158)">
     <use style="fill:#222222;fill-opacity:0.5;" x="339.735082" xlink:href="#C3_0_c0f587c8ca" y="186.591717"/>
    </g>
    <g clip-path="url(#p84a1207158)">
     <use style="fill:#222222;fill-opacity:0.5;" x="332.510511" xlink:href="#C3_0_c0f587c8ca" y="215.470823"/>
    </g>
    <g clip-path="url(#p84a1207158)">
     <use style="fill:#222222;fill-opacity:0.5;" x="338.856724" xlink:href="#C3_0_c0f587c8ca" y="193.323819"/>
    </g>
    <g clip-path="url(#p84a1207158)">
     <use style="fill:#222222;fill-opacity:0.5;" x="338.142719" xlink:href="#C3_0_c0f587c8ca" y="195.370617"/>
    </g>
    <g clip-path="url(#p84a1207158)">
     <use style="fill:#222222;fill-opacity:0.5;" x="344.408062" xlink:href="#C3_0_c0f587c8ca" y="107.108826"/>
    </g>
    <g clip-path="url(#p84a1207158)">
     <use style="fill:#222222;fill-opacity:0.5;" x="334.547782" xlink:href="#C3_0_c0f587c8ca" y="197.191461"/>
    </g>
    <g clip-path="url(#p84a1207158)">
     <use style="fill:#222222;fill-opacity:0.5;" x="336.728247" xlink:href="#C3_0_c0f587c8ca" y="173.781151"/>
    </g>
    <g clip-path="url(#p84a1207158)">
     <use style="fill:#222222;fill-opacity:0.5;" x="332.848072" xlink:href="#C3_0_c0f587c8ca" y="191.892126"/>
    </g>
    <g clip-path="url(#p84a1207158)">
     <use style="fill:#222222;fill-opacity:0.5;" x="345.216635" xlink:href="#C3_0_c0f587c8ca" y="193.108973"/>
    </g>
    <g clip-path="url(#p84a1207158)">
     <use style="fill:#222222;fill-opacity:0.5;" x="345.968967" xlink:href="#C3_0_c0f587c8ca" y="185.63686"/>
    </g>
    <g clip-path="url(#p84a1207158)">
     <use style="fill:#222222;fill-opacity:0.5;" x="342.201093" xlink:href="#C3_0_c0f587c8ca" y="126.389646"/>
    </g>
    <g clip-path="url(#p84a1207158)">
     <use style="fill:#222222;fill-opacity:0.5;" x="333.232281" xlink:href="#C3_0_c0f587c8ca" y="166.405004"/>
    </g>
    <g clip-path="url(#p84a1207158)">
     <use style="fill:#222222;fill-opacity:0.5;" x="340.92274" xlink:href="#C3_0_c0f587c8ca" y="54.610277"/>
    </g>
    <g clip-path="url(#p84a1207158)">
     <use style="fill:#222222;fill-opacity:0.5;" x="340.552061" xlink:href="#C3_0_c0f587c8ca" y="161.479418"/>
    </g>
    <g clip-path="url(#p84a1207158)">
     <use style="fill:#222222;fill-opacity:0.5;" x="332.243726" xlink:href="#C3_0_c0f587c8ca" y="150.156229"/>
    </g>
    <g clip-path="url(#p84a1207158)">
     <use style="fill:#222222;fill-opacity:0.5;" x="336.835836" xlink:href="#C3_0_c0f587c8ca" y="189.474122"/>
    </g>
    <g clip-path="url(#p84a1207158)">
     <use style="fill:#222222;fill-opacity:0.5;" x="331.773987" xlink:href="#C3_0_c0f587c8ca" y="114.549216"/>
    </g>
    <g clip-path="url(#p84a1207158)">
     <use style="fill:#222222;fill-opacity:0.5;" x="334.835155" xlink:href="#C3_0_c0f587c8ca" y="133.60325"/>
    </g>
    <g clip-path="url(#p84a1207158)">
     <use style="fill:#222222;fill-opacity:0.5;" x="339.227002" xlink:href="#C3_0_c0f587c8ca" y="176.848949"/>
    </g>
    <g clip-path="url(#p84a1207158)">
     <use style="fill:#222222;fill-opacity:0.5;" x="344.877249" xlink:href="#C3_0_c0f587c8ca" y="160.01736"/>
    </g>
    <g clip-path="url(#p84a1207158)">
     <use style="fill:#222222;fill-opacity:0.5;" x="334.915069" xlink:href="#C3_0_c0f587c8ca" y="147.131754"/>
    </g>
    <g clip-path="url(#p84a1207158)">
     <use style="fill:#222222;fill-opacity:0.5;" x="335.233687" xlink:href="#C3_0_c0f587c8ca" y="168.101297"/>
    </g>
    <g clip-path="url(#p84a1207158)">
     <use style="fill:#222222;fill-opacity:0.5;" x="334.048138" xlink:href="#C3_0_c0f587c8ca" y="168.952482"/>
    </g>
    <g clip-path="url(#p84a1207158)">
     <use style="fill:#222222;fill-opacity:0.5;" x="337.375047" xlink:href="#C3_0_c0f587c8ca" y="170.497461"/>
    </g>
    <g clip-path="url(#p84a1207158)">
     <use style="fill:#222222;fill-opacity:0.5;" x="335.776004" xlink:href="#C3_0_c0f587c8ca" y="151.047599"/>
    </g>
    <g clip-path="url(#p84a1207158)">
     <use style="fill:#222222;fill-opacity:0.5;" x="333.224955" xlink:href="#C3_0_c0f587c8ca" y="137.101402"/>
    </g>
    <g clip-path="url(#p84a1207158)">
     <use style="fill:#222222;fill-opacity:0.5;" x="348.027809" xlink:href="#C3_0_c0f587c8ca" y="107.704542"/>
    </g>
    <g clip-path="url(#p84a1207158)">
     <use style="fill:#222222;fill-opacity:0.5;" x="345.89428" xlink:href="#C3_0_c0f587c8ca" y="129.841026"/>
    </g>
    <g clip-path="url(#p84a1207158)">
     <use style="fill:#222222;fill-opacity:0.5;" x="344.958095" xlink:href="#C3_0_c0f587c8ca" y="145.276266"/>
    </g>
    <g clip-path="url(#p84a1207158)">
     <use style="fill:#222222;fill-opacity:0.5;" x="347.741655" xlink:href="#C3_0_c0f587c8ca" y="144.16474"/>
    </g>
    <g clip-path="url(#p84a1207158)">
     <use style="fill:#222222;fill-opacity:0.5;" x="346.238559" xlink:href="#C3_0_c0f587c8ca" y="148.804794"/>
    </g>
    <g clip-path="url(#p84a1207158)">
     <use style="fill:#222222;fill-opacity:0.5;" x="340.627004" xlink:href="#C3_0_c0f587c8ca" y="142.475842"/>
    </g>
    <g clip-path="url(#p84a1207158)">
     <use style="fill:#222222;fill-opacity:0.5;" x="341.347162" xlink:href="#C3_0_c0f587c8ca" y="117.481192"/>
    </g>
    <g clip-path="url(#p84a1207158)">
     <use style="fill:#222222;fill-opacity:0.5;" x="339.378942" xlink:href="#C3_0_c0f587c8ca" y="163.674532"/>
    </g>
    <g clip-path="url(#p84a1207158)">
     <use style="fill:#222222;fill-opacity:0.5;" x="347.50144" xlink:href="#C3_0_c0f587c8ca" y="120.297615"/>
    </g>
    <g clip-path="url(#p84a1207158)">
     <use style="fill:#222222;fill-opacity:0.5;" x="337.119402" xlink:href="#C3_0_c0f587c8ca" y="188.049419"/>
    </g>
    <g clip-path="url(#p84a1207158)">
     <use style="fill:#222222;fill-opacity:0.5;" x="341.965308" xlink:href="#C3_0_c0f587c8ca" y="94.247488"/>
    </g>
    <g clip-path="url(#p84a1207158)">
     <use style="fill:#222222;fill-opacity:0.5;" x="345.108512" xlink:href="#C3_0_c0f587c8ca" y="115.672238"/>
    </g>
    <g clip-path="url(#p84a1207158)">
     <use style="fill:#222222;fill-opacity:0.5;" x="344.563911" xlink:href="#C3_0_c0f587c8ca" y="42.641738"/>
    </g>
    <g clip-path="url(#p84a1207158)">
     <use style="fill:#222222;fill-opacity:0.5;" x="337.896033" xlink:href="#C3_0_c0f587c8ca" y="90.242816"/>
    </g>
    <g clip-path="url(#p84a1207158)">
     <use style="fill:#222222;fill-opacity:0.5;" x="343.726081" xlink:href="#C3_0_c0f587c8ca" y="149.470629"/>
    </g>
    <g clip-path="url(#p84a1207158)">
     <use style="fill:#222222;fill-opacity:0.5;" x="338.396132" xlink:href="#C3_0_c0f587c8ca" y="126.89808"/>
    </g>
    <g clip-path="url(#p84a1207158)">
     <use style="fill:#222222;fill-opacity:0.5;" x="336.492989" xlink:href="#C3_0_c0f587c8ca" y="166.772421"/>
    </g>
    <g clip-path="url(#p84a1207158)">
     <use style="fill:#222222;fill-opacity:0.5;" x="344.90553" xlink:href="#C3_0_c0f587c8ca" y="178.365661"/>
    </g>
    <g clip-path="url(#p84a1207158)">
     <use style="fill:#222222;fill-opacity:0.5;" x="337.081474" xlink:href="#C3_0_c0f587c8ca" y="71.571377"/>
    </g>
   </g>
   <g id="text_13">
    <!-- n:10.0 -->
    <defs>
     <path d="M 54.34375 0 
L 40.625 0 
L 40.625 26.46875 
Q 40.625 34.859375 39.75 37.328125 
Q 38.875 39.796875 36.890625 41.15625 
Q 34.90625 42.53125 32.125 42.53125 
Q 28.5625 42.53125 25.734375 40.578125 
Q 22.90625 38.625 21.84375 35.390625 
Q 20.796875 32.171875 20.796875 23.484375 
L 20.796875 0 
L 7.078125 0 
L 7.078125 51.859375 
L 19.828125 51.859375 
L 19.828125 44.234375 
Q 26.609375 53.03125 36.921875 53.03125 
Q 41.453125 53.03125 45.203125 51.390625 
Q 48.96875 49.75 50.890625 47.203125 
Q 52.828125 44.671875 53.578125 41.453125 
Q 54.34375 38.234375 54.34375 32.234375 
z
" id="Arial-BoldMT-110"/>
     <path d="M 9.8125 38.140625 
L 9.8125 51.859375 
L 23.53125 51.859375 
L 23.53125 38.140625 
z
M 9.8125 0 
L 9.8125 13.71875 
L 23.53125 13.71875 
L 23.53125 0 
z
" id="Arial-BoldMT-58"/>
     <path d="M 39.359375 0 
L 25.640625 0 
L 25.640625 51.703125 
Q 18.109375 44.671875 7.90625 41.3125 
L 7.90625 53.765625 
Q 13.28125 55.515625 19.578125 60.421875 
Q 25.875 65.328125 28.21875 71.875 
L 39.359375 71.875 
z
" id="Arial-BoldMT-49"/>
     <path d="M 27.4375 71.875 
Q 37.84375 71.875 43.703125 64.453125 
Q 50.6875 55.671875 50.6875 35.296875 
Q 50.6875 14.984375 43.65625 6.109375 
Q 37.84375 -1.21875 27.4375 -1.21875 
Q 17 -1.21875 10.59375 6.8125 
Q 4.203125 14.84375 4.203125 35.453125 
Q 4.203125 55.671875 11.234375 64.546875 
Q 17.046875 71.875 27.4375 71.875 
z
M 27.4375 60.5 
Q 24.953125 60.5 23 58.90625 
Q 21.046875 57.328125 19.96875 53.21875 
Q 18.5625 47.90625 18.5625 35.296875 
Q 18.5625 22.703125 19.828125 17.984375 
Q 21.09375 13.28125 23.015625 11.71875 
Q 24.953125 10.15625 27.4375 10.15625 
Q 29.9375 10.15625 31.890625 11.734375 
Q 33.84375 13.328125 34.90625 17.4375 
Q 36.328125 22.703125 36.328125 35.296875 
Q 36.328125 47.90625 35.0625 52.609375 
Q 33.796875 57.328125 31.859375 58.90625 
Q 29.9375 60.5 27.4375 60.5 
z
" id="Arial-BoldMT-48"/>
     <path d="M 7.171875 0 
L 7.171875 13.71875 
L 20.90625 13.71875 
L 20.90625 0 
z
" id="Arial-BoldMT-46"/>
    </defs>
    <g style="fill:#4c72b0;" transform="translate(63.704375 230.216777)scale(0.0833 -0.0833)">
     <use xlink:href="#Arial-BoldMT-110"/>
     <use x="61.083984" xlink:href="#Arial-BoldMT-58"/>
     <use x="94.384766" xlink:href="#Arial-BoldMT-49"/>
     <use x="150" xlink:href="#Arial-BoldMT-48"/>
     <use x="205.615234" xlink:href="#Arial-BoldMT-46"/>
     <use x="233.398438" xlink:href="#Arial-BoldMT-48"/>
    </g>
   </g>
   <g id="text_14">
    <!-- n:10.0 -->
    <g style="fill:#4c72b0;" transform="translate(147.404375 230.216777)scale(0.0833 -0.0833)">
     <use xlink:href="#Arial-BoldMT-110"/>
     <use x="61.083984" xlink:href="#Arial-BoldMT-58"/>
     <use x="94.384766" xlink:href="#Arial-BoldMT-49"/>
     <use x="150" xlink:href="#Arial-BoldMT-48"/>
     <use x="205.615234" xlink:href="#Arial-BoldMT-46"/>
     <use x="233.398438" xlink:href="#Arial-BoldMT-48"/>
    </g>
   </g>
   <g id="text_15">
    <!-- n:6.0 -->
    <defs>
     <path d="M 50.734375 54.046875 
L 37.453125 52.59375 
Q 36.96875 56.6875 34.90625 58.640625 
Q 32.859375 60.59375 29.59375 60.59375 
Q 25.25 60.59375 22.234375 56.6875 
Q 19.234375 52.78125 18.453125 40.4375 
Q 23.578125 46.484375 31.203125 46.484375 
Q 39.796875 46.484375 45.921875 39.9375 
Q 52.046875 33.40625 52.046875 23.046875 
Q 52.046875 12.0625 45.59375 5.421875 
Q 39.15625 -1.21875 29.046875 -1.21875 
Q 18.21875 -1.21875 11.234375 7.203125 
Q 4.25 15.625 4.25 34.8125 
Q 4.25 54.5 11.515625 63.1875 
Q 18.796875 71.875 30.421875 71.875 
Q 38.578125 71.875 43.921875 67.3125 
Q 49.265625 62.75 50.734375 54.046875 
z
M 19.625 24.125 
Q 19.625 17.4375 22.703125 13.796875 
Q 25.78125 10.15625 29.734375 10.15625 
Q 33.546875 10.15625 36.078125 13.125 
Q 38.625 16.109375 38.625 22.90625 
Q 38.625 29.890625 35.890625 33.125 
Q 33.15625 36.375 29.046875 36.375 
Q 25.09375 36.375 22.359375 33.265625 
Q 19.625 30.171875 19.625 24.125 
z
" id="Arial-BoldMT-54"/>
    </defs>
    <g style="fill:#4c72b0;" transform="translate(231.104375 230.216777)scale(0.0833 -0.0833)">
     <use xlink:href="#Arial-BoldMT-110"/>
     <use x="61.083984" xlink:href="#Arial-BoldMT-58"/>
     <use x="94.384766" xlink:href="#Arial-BoldMT-54"/>
     <use x="150" xlink:href="#Arial-BoldMT-46"/>
     <use x="177.783203" xlink:href="#Arial-BoldMT-48"/>
    </g>
   </g>
   <g id="text_16">
    <!-- n:100.0 -->
    <g style="fill:#4c72b0;" transform="translate(314.804375 230.216777)scale(0.0833 -0.0833)">
     <use xlink:href="#Arial-BoldMT-110"/>
     <use x="61.083984" xlink:href="#Arial-BoldMT-58"/>
     <use x="94.384766" xlink:href="#Arial-BoldMT-49"/>
     <use x="150" xlink:href="#Arial-BoldMT-48"/>
     <use x="205.615234" xlink:href="#Arial-BoldMT-48"/>
     <use x="261.230469" xlink:href="#Arial-BoldMT-46"/>
     <use x="289.013672" xlink:href="#Arial-BoldMT-48"/>
    </g>
   </g>
   <g id="legend_1">
    <g id="patch_12">
     <path d="M 397.356375 139.129844 
L 442.949656 139.129844 
Q 445.149656 139.129844 445.149656 136.929844 
L 445.149656 106.910156 
Q 445.149656 104.710156 442.949656 104.710156 
L 397.356375 104.710156 
Q 395.156375 104.710156 395.156375 106.910156 
L 395.156375 136.929844 
Q 395.156375 139.129844 397.356375 139.129844 
z
" style="fill:#eaeaf2;opacity:0.8;stroke:#cccccc;stroke-linejoin:miter;"/>
    </g>
    <g id="patch_13">
     <path d="M 399.556375 116.98375 
L 421.556375 116.98375 
L 421.556375 109.28375 
L 399.556375 109.28375 
z
" style="fill:#176d9c;stroke:#363636;stroke-linejoin:miter;stroke-width:0.75;"/>
    </g>
    <g id="text_17">
     <!-- IS -->
     <defs>
      <path d="M 9.328125 0 
L 9.328125 71.578125 
L 18.796875 71.578125 
L 18.796875 0 
z
" id="ArialMT-73"/>
      <path d="M 4.5 23 
L 13.421875 23.78125 
Q 14.0625 18.40625 16.375 14.96875 
Q 18.703125 11.53125 23.578125 9.40625 
Q 28.46875 7.28125 34.578125 7.28125 
Q 39.984375 7.28125 44.140625 8.890625 
Q 48.296875 10.5 50.3125 13.296875 
Q 52.34375 16.109375 52.34375 19.4375 
Q 52.34375 22.796875 50.390625 25.3125 
Q 48.4375 27.828125 43.953125 29.546875 
Q 41.0625 30.671875 31.203125 33.03125 
Q 21.34375 35.40625 17.390625 37.5 
Q 12.25 40.1875 9.734375 44.15625 
Q 7.234375 48.140625 7.234375 53.078125 
Q 7.234375 58.5 10.296875 63.203125 
Q 13.375 67.921875 19.28125 70.359375 
Q 25.203125 72.796875 32.421875 72.796875 
Q 40.375 72.796875 46.453125 70.234375 
Q 52.546875 67.671875 55.8125 62.6875 
Q 59.078125 57.71875 59.328125 51.421875 
L 50.25 50.734375 
Q 49.515625 57.515625 45.28125 60.984375 
Q 41.0625 64.453125 32.8125 64.453125 
Q 24.21875 64.453125 20.28125 61.296875 
Q 16.359375 58.15625 16.359375 53.71875 
Q 16.359375 49.859375 19.140625 47.359375 
Q 21.875 44.875 33.421875 42.265625 
Q 44.96875 39.65625 49.265625 37.703125 
Q 55.515625 34.8125 58.484375 30.390625 
Q 61.46875 25.984375 61.46875 20.21875 
Q 61.46875 14.5 58.203125 9.4375 
Q 54.9375 4.390625 48.796875 1.578125 
Q 42.671875 -1.21875 35.015625 -1.21875 
Q 25.296875 -1.21875 18.71875 1.609375 
Q 12.15625 4.4375 8.421875 10.125 
Q 4.6875 15.828125 4.5 23 
z
" id="ArialMT-83"/>
     </defs>
     <g style="fill:#262626;" transform="translate(430.356375 116.98375)scale(0.11 -0.11)">
      <use xlink:href="#ArialMT-73"/>
      <use x="27.783203" xlink:href="#ArialMT-83"/>
     </g>
    </g>
    <g id="PathCollection_6">
     <defs>
      <path d="M 0 3.872983 
C 1.027127 3.872983 2.012324 3.464901 2.738613 2.738613 
C 3.464901 2.012324 3.872983 1.027127 3.872983 0 
C 3.872983 -1.027127 3.464901 -2.012324 2.738613 -2.738613 
C 2.012324 -3.464901 1.027127 -3.872983 0 -3.872983 
C -1.027127 -3.872983 -2.012324 -3.464901 -2.738613 -2.738613 
C -3.464901 -2.012324 -3.872983 -1.027127 -3.872983 0 
C -3.872983 1.027127 -3.464901 2.012324 -2.738613 2.738613 
C -2.012324 3.464901 -1.027127 3.872983 0 3.872983 
z
" id="me62eac23d3" style="stroke:#222222;"/>
     </defs>
     <g>
      <use style="fill:#222222;stroke:#222222;" x="410.556375" xlink:href="#me62eac23d3" y="129.656094"/>
     </g>
    </g>
    <g id="text_18">
     <!-- IS -->
     <g style="fill:#262626;" transform="translate(430.356375 132.543594)scale(0.11 -0.11)">
      <use xlink:href="#ArialMT-73"/>
      <use x="27.783203" xlink:href="#ArialMT-83"/>
     </g>
    </g>
   </g>
  </g>
 </g>
 <defs>
  <clipPath id="p84a1207158">
   <rect height="217.44" width="334.8" x="46.964375" y="13.2"/>
  </clipPath>
 </defs>
</svg>
