<?xml version="1.0" encoding="utf-8" standalone="no"?>
<!DOCTYPE svg PUBLIC "-//W3C//DTD SVG 1.1//EN"
  "http://www.w3.org/Graphics/SVG/1.1/DTD/svg11.dtd">
<!-- Created with matplotlib (https://matplotlib.org/) -->
<svg height="288pt" version="1.1" viewBox="0 0 432 288" width="432pt" xmlns="http://www.w3.org/2000/svg" xmlns:xlink="http://www.w3.org/1999/xlink">
 <defs>
  <style type="text/css">
*{stroke-linecap:butt;stroke-linejoin:round;}
  </style>
 </defs>
 <g id="figure_1">
  <g id="patch_1">
   <path d="M 0 288 
L 432 288 
L 432 0 
L 0 0 
z
" style="fill:#ffffff;"/>
  </g>
  <g id="axes_1">
   <g id="patch_2">
    <path d="M 54 252 
L 388.8 252 
L 388.8 34.56 
L 54 34.56 
z
" style="fill:#eaeaf2;"/>
   </g>
   <g id="matplotlib.axis_1">
    <g id="xtick_1">
     <g id="line2d_1">
      <path clip-path="url(#p8d4a9f1d50)" d="M 77.739898 252 
L 77.739898 34.56 
" style="fill:none;stroke:#ffffff;stroke-linecap:round;"/>
     </g>
     <g id="text_1">
      <!-- −15 -->
      <defs>
       <path d="M 52.828125 31.203125 
L 5.5625 31.203125 
L 5.5625 39.40625 
L 52.828125 39.40625 
z
" id="ArialMT-8722"/>
       <path d="M 37.25 0 
L 28.46875 0 
L 28.46875 56 
Q 25.296875 52.984375 20.140625 49.953125 
Q 14.984375 46.921875 10.890625 45.40625 
L 10.890625 53.90625 
Q 18.265625 57.375 23.78125 62.296875 
Q 29.296875 67.234375 31.59375 71.875 
L 37.25 71.875 
z
" id="ArialMT-49"/>
       <path d="M 4.15625 18.75 
L 13.375 19.53125 
Q 14.40625 12.796875 18.140625 9.390625 
Q 21.875 6 27.15625 6 
Q 33.5 6 37.890625 10.78125 
Q 42.28125 15.578125 42.28125 23.484375 
Q 42.28125 31 38.0625 35.34375 
Q 33.84375 39.703125 27 39.703125 
Q 22.75 39.703125 19.328125 37.765625 
Q 15.921875 35.84375 13.96875 32.765625 
L 5.71875 33.84375 
L 12.640625 70.609375 
L 48.25 70.609375 
L 48.25 62.203125 
L 19.671875 62.203125 
L 15.828125 42.96875 
Q 22.265625 47.46875 29.34375 47.46875 
Q 38.71875 47.46875 45.15625 40.96875 
Q 51.609375 34.46875 51.609375 24.265625 
Q 51.609375 14.546875 45.953125 7.46875 
Q 39.0625 -1.21875 27.15625 -1.21875 
Q 17.390625 -1.21875 11.203125 4.25 
Q 5.03125 9.71875 4.15625 18.75 
z
" id="ArialMT-53"/>
      </defs>
      <g style="fill:#262626;" transform="translate(68.410523 269.373594)scale(0.11 -0.11)">
       <use xlink:href="#ArialMT-8722"/>
       <use x="58.398438" xlink:href="#ArialMT-49"/>
       <use x="114.013672" xlink:href="#ArialMT-53"/>
      </g>
     </g>
    </g>
    <g id="xtick_2">
     <g id="line2d_2">
      <path clip-path="url(#p8d4a9f1d50)" d="M 124.780841 252 
L 124.780841 34.56 
" style="fill:none;stroke:#ffffff;stroke-linecap:round;"/>
     </g>
     <g id="text_2">
      <!-- −10 -->
      <defs>
       <path d="M 4.15625 35.296875 
Q 4.15625 48 6.765625 55.734375 
Q 9.375 63.484375 14.515625 67.671875 
Q 19.671875 71.875 27.484375 71.875 
Q 33.25 71.875 37.59375 69.546875 
Q 41.9375 67.234375 44.765625 62.859375 
Q 47.609375 58.5 49.21875 52.21875 
Q 50.828125 45.953125 50.828125 35.296875 
Q 50.828125 22.703125 48.234375 14.96875 
Q 45.65625 7.234375 40.5 3 
Q 35.359375 -1.21875 27.484375 -1.21875 
Q 17.140625 -1.21875 11.234375 6.203125 
Q 4.15625 15.140625 4.15625 35.296875 
z
M 13.1875 35.296875 
Q 13.1875 17.671875 17.3125 11.828125 
Q 21.4375 6 27.484375 6 
Q 33.546875 6 37.671875 11.859375 
Q 41.796875 17.71875 41.796875 35.296875 
Q 41.796875 52.984375 37.671875 58.78125 
Q 33.546875 64.59375 27.390625 64.59375 
Q 21.34375 64.59375 17.71875 59.46875 
Q 13.1875 52.9375 13.1875 35.296875 
z
" id="ArialMT-48"/>
      </defs>
      <g style="fill:#262626;" transform="translate(115.451466 269.373594)scale(0.11 -0.11)">
       <use xlink:href="#ArialMT-8722"/>
       <use x="58.398438" xlink:href="#ArialMT-49"/>
       <use x="114.013672" xlink:href="#ArialMT-48"/>
      </g>
     </g>
    </g>
    <g id="xtick_3">
     <g id="line2d_3">
      <path clip-path="url(#p8d4a9f1d50)" d="M 171.821784 252 
L 171.821784 34.56 
" style="fill:none;stroke:#ffffff;stroke-linecap:round;"/>
     </g>
     <g id="text_3">
      <!-- −5 -->
      <g style="fill:#262626;" transform="translate(165.550924 269.373594)scale(0.11 -0.11)">
       <use xlink:href="#ArialMT-8722"/>
       <use x="58.398438" xlink:href="#ArialMT-53"/>
      </g>
     </g>
    </g>
    <g id="xtick_4">
     <g id="line2d_4">
      <path clip-path="url(#p8d4a9f1d50)" d="M 218.862727 252 
L 218.862727 34.56 
" style="fill:none;stroke:#ffffff;stroke-linecap:round;"/>
     </g>
     <g id="text_4">
      <!-- 0 -->
      <g style="fill:#262626;" transform="translate(215.804211 269.373594)scale(0.11 -0.11)">
       <use xlink:href="#ArialMT-48"/>
      </g>
     </g>
    </g>
    <g id="xtick_5">
     <g id="line2d_5">
      <path clip-path="url(#p8d4a9f1d50)" d="M 265.90367 252 
L 265.90367 34.56 
" style="fill:none;stroke:#ffffff;stroke-linecap:round;"/>
     </g>
     <g id="text_5">
      <!-- 5 -->
      <g style="fill:#262626;" transform="translate(262.845154 269.373594)scale(0.11 -0.11)">
       <use xlink:href="#ArialMT-53"/>
      </g>
     </g>
    </g>
    <g id="xtick_6">
     <g id="line2d_6">
      <path clip-path="url(#p8d4a9f1d50)" d="M 312.944613 252 
L 312.944613 34.56 
" style="fill:none;stroke:#ffffff;stroke-linecap:round;"/>
     </g>
     <g id="text_6">
      <!-- 10 -->
      <g style="fill:#262626;" transform="translate(306.827582 269.373594)scale(0.11 -0.11)">
       <use xlink:href="#ArialMT-49"/>
       <use x="55.615234" xlink:href="#ArialMT-48"/>
      </g>
     </g>
    </g>
    <g id="xtick_7">
     <g id="line2d_7">
      <path clip-path="url(#p8d4a9f1d50)" d="M 359.985556 252 
L 359.985556 34.56 
" style="fill:none;stroke:#ffffff;stroke-linecap:round;"/>
     </g>
     <g id="text_7">
      <!-- 15 -->
      <g style="fill:#262626;" transform="translate(353.868525 269.373594)scale(0.11 -0.11)">
       <use xlink:href="#ArialMT-49"/>
       <use x="55.615234" xlink:href="#ArialMT-53"/>
      </g>
     </g>
    </g>
    <g id="text_8">
     <!-- IC50_mode -->
     <defs>
      <path d="M 9.328125 0 
L 9.328125 71.578125 
L 18.796875 71.578125 
L 18.796875 0 
z
" id="ArialMT-73"/>
      <path d="M 58.796875 25.09375 
L 68.265625 22.703125 
Q 65.28125 11.03125 57.546875 4.90625 
Q 49.8125 -1.21875 38.625 -1.21875 
Q 27.046875 -1.21875 19.796875 3.484375 
Q 12.546875 8.203125 8.765625 17.140625 
Q 4.984375 26.078125 4.984375 36.328125 
Q 4.984375 47.515625 9.25 55.828125 
Q 13.53125 64.15625 21.40625 68.46875 
Q 29.296875 72.796875 38.765625 72.796875 
Q 49.515625 72.796875 56.828125 67.328125 
Q 64.15625 61.859375 67.046875 51.953125 
L 57.71875 49.75 
Q 55.21875 57.5625 50.484375 61.125 
Q 45.75 64.703125 38.578125 64.703125 
Q 30.328125 64.703125 24.78125 60.734375 
Q 19.234375 56.78125 16.984375 50.109375 
Q 14.75 43.453125 14.75 36.375 
Q 14.75 27.25 17.40625 20.4375 
Q 20.0625 13.625 25.671875 10.25 
Q 31.296875 6.890625 37.84375 6.890625 
Q 45.796875 6.890625 51.3125 11.46875 
Q 56.84375 16.0625 58.796875 25.09375 
z
" id="ArialMT-67"/>
      <path d="M -1.515625 -19.875 
L -1.515625 -13.53125 
L 56.734375 -13.53125 
L 56.734375 -19.875 
z
" id="ArialMT-95"/>
      <path d="M 6.59375 0 
L 6.59375 51.859375 
L 14.453125 51.859375 
L 14.453125 44.578125 
Q 16.890625 48.390625 20.9375 50.703125 
Q 25 53.03125 30.171875 53.03125 
Q 35.9375 53.03125 39.625 50.640625 
Q 43.3125 48.25 44.828125 43.953125 
Q 50.984375 53.03125 60.84375 53.03125 
Q 68.5625 53.03125 72.703125 48.75 
Q 76.859375 44.484375 76.859375 35.59375 
L 76.859375 0 
L 68.109375 0 
L 68.109375 32.671875 
Q 68.109375 37.9375 67.25 40.25 
Q 66.40625 42.578125 64.15625 43.984375 
Q 61.921875 45.40625 58.890625 45.40625 
Q 53.421875 45.40625 49.796875 41.765625 
Q 46.1875 38.140625 46.1875 30.125 
L 46.1875 0 
L 37.40625 0 
L 37.40625 33.6875 
Q 37.40625 39.546875 35.25 42.46875 
Q 33.109375 45.40625 28.21875 45.40625 
Q 24.515625 45.40625 21.359375 43.453125 
Q 18.21875 41.5 16.796875 37.734375 
Q 15.375 33.984375 15.375 26.90625 
L 15.375 0 
z
" id="ArialMT-109"/>
      <path d="M 3.328125 25.921875 
Q 3.328125 40.328125 11.328125 47.265625 
Q 18.015625 53.03125 27.640625 53.03125 
Q 38.328125 53.03125 45.109375 46.015625 
Q 51.90625 39.015625 51.90625 26.65625 
Q 51.90625 16.65625 48.90625 10.90625 
Q 45.90625 5.171875 40.15625 2 
Q 34.421875 -1.171875 27.640625 -1.171875 
Q 16.75 -1.171875 10.03125 5.8125 
Q 3.328125 12.796875 3.328125 25.921875 
z
M 12.359375 25.921875 
Q 12.359375 15.96875 16.703125 11.015625 
Q 21.046875 6.0625 27.640625 6.0625 
Q 34.1875 6.0625 38.53125 11.03125 
Q 42.875 16.015625 42.875 26.21875 
Q 42.875 35.84375 38.5 40.796875 
Q 34.125 45.75 27.640625 45.75 
Q 21.046875 45.75 16.703125 40.8125 
Q 12.359375 35.890625 12.359375 25.921875 
z
" id="ArialMT-111"/>
      <path d="M 40.234375 0 
L 40.234375 6.546875 
Q 35.296875 -1.171875 25.734375 -1.171875 
Q 19.53125 -1.171875 14.328125 2.25 
Q 9.125 5.671875 6.265625 11.796875 
Q 3.421875 17.921875 3.421875 25.875 
Q 3.421875 33.640625 6 39.96875 
Q 8.59375 46.296875 13.765625 49.65625 
Q 18.953125 53.03125 25.34375 53.03125 
Q 30.03125 53.03125 33.6875 51.046875 
Q 37.359375 49.078125 39.65625 45.90625 
L 39.65625 71.578125 
L 48.390625 71.578125 
L 48.390625 0 
z
M 12.453125 25.875 
Q 12.453125 15.921875 16.640625 10.984375 
Q 20.84375 6.0625 26.5625 6.0625 
Q 32.328125 6.0625 36.34375 10.765625 
Q 40.375 15.484375 40.375 25.140625 
Q 40.375 35.796875 36.265625 40.765625 
Q 32.171875 45.75 26.171875 45.75 
Q 20.3125 45.75 16.375 40.96875 
Q 12.453125 36.1875 12.453125 25.875 
z
" id="ArialMT-100"/>
      <path d="M 42.09375 16.703125 
L 51.171875 15.578125 
Q 49.03125 7.625 43.21875 3.21875 
Q 37.40625 -1.171875 28.375 -1.171875 
Q 17 -1.171875 10.328125 5.828125 
Q 3.65625 12.84375 3.65625 25.484375 
Q 3.65625 38.578125 10.390625 45.796875 
Q 17.140625 53.03125 27.875 53.03125 
Q 38.28125 53.03125 44.875 45.953125 
Q 51.46875 38.875 51.46875 26.03125 
Q 51.46875 25.25 51.421875 23.6875 
L 12.75 23.6875 
Q 13.234375 15.140625 17.578125 10.59375 
Q 21.921875 6.0625 28.421875 6.0625 
Q 33.25 6.0625 36.671875 8.59375 
Q 40.09375 11.140625 42.09375 16.703125 
z
M 13.234375 30.90625 
L 42.1875 30.90625 
Q 41.609375 37.453125 38.875 40.71875 
Q 34.671875 45.796875 27.984375 45.796875 
Q 21.921875 45.796875 17.796875 41.75 
Q 13.671875 37.703125 13.234375 30.90625 
z
" id="ArialMT-101"/>
     </defs>
     <g style="fill:#262626;" transform="translate(190.382812 284.295469)scale(0.12 -0.12)">
      <use xlink:href="#ArialMT-73"/>
      <use x="27.783203" xlink:href="#ArialMT-67"/>
      <use x="100" xlink:href="#ArialMT-53"/>
      <use x="155.615234" xlink:href="#ArialMT-48"/>
      <use x="211.230469" xlink:href="#ArialMT-95"/>
      <use x="266.845703" xlink:href="#ArialMT-109"/>
      <use x="350.146484" xlink:href="#ArialMT-111"/>
      <use x="405.761719" xlink:href="#ArialMT-100"/>
      <use x="461.376953" xlink:href="#ArialMT-101"/>
     </g>
    </g>
   </g>
   <g id="matplotlib.axis_2">
    <g id="ytick_1">
     <g id="line2d_8">
      <path clip-path="url(#p8d4a9f1d50)" d="M 54 252 
L 388.8 252 
" style="fill:none;stroke:#ffffff;stroke-linecap:round;"/>
     </g>
     <g id="text_9">
      <!-- 0 -->
      <g style="fill:#262626;" transform="translate(38.382969 255.936797)scale(0.11 -0.11)">
       <use xlink:href="#ArialMT-48"/>
      </g>
     </g>
    </g>
    <g id="ytick_2">
     <g id="line2d_9">
      <path clip-path="url(#p8d4a9f1d50)" d="M 54 219.233273 
L 388.8 219.233273 
" style="fill:none;stroke:#ffffff;stroke-linecap:round;"/>
     </g>
     <g id="text_10">
      <!-- 50 -->
      <g style="fill:#262626;" transform="translate(32.265937 223.17007)scale(0.11 -0.11)">
       <use xlink:href="#ArialMT-53"/>
       <use x="55.615234" xlink:href="#ArialMT-48"/>
      </g>
     </g>
    </g>
    <g id="ytick_3">
     <g id="line2d_10">
      <path clip-path="url(#p8d4a9f1d50)" d="M 54 186.466546 
L 388.8 186.466546 
" style="fill:none;stroke:#ffffff;stroke-linecap:round;"/>
     </g>
     <g id="text_11">
      <!-- 100 -->
      <g style="fill:#262626;" transform="translate(26.148906 190.403343)scale(0.11 -0.11)">
       <use xlink:href="#ArialMT-49"/>
       <use x="55.615234" xlink:href="#ArialMT-48"/>
       <use x="111.230469" xlink:href="#ArialMT-48"/>
      </g>
     </g>
    </g>
    <g id="ytick_4">
     <g id="line2d_11">
      <path clip-path="url(#p8d4a9f1d50)" d="M 54 153.699819 
L 388.8 153.699819 
" style="fill:none;stroke:#ffffff;stroke-linecap:round;"/>
     </g>
     <g id="text_12">
      <!-- 150 -->
      <g style="fill:#262626;" transform="translate(26.148906 157.636616)scale(0.11 -0.11)">
       <use xlink:href="#ArialMT-49"/>
       <use x="55.615234" xlink:href="#ArialMT-53"/>
       <use x="111.230469" xlink:href="#ArialMT-48"/>
      </g>
     </g>
    </g>
    <g id="ytick_5">
     <g id="line2d_12">
      <path clip-path="url(#p8d4a9f1d50)" d="M 54 120.933092 
L 388.8 120.933092 
" style="fill:none;stroke:#ffffff;stroke-linecap:round;"/>
     </g>
     <g id="text_13">
      <!-- 200 -->
      <defs>
       <path d="M 50.34375 8.453125 
L 50.34375 0 
L 3.03125 0 
Q 2.9375 3.171875 4.046875 6.109375 
Q 5.859375 10.9375 9.828125 15.625 
Q 13.8125 20.3125 21.34375 26.46875 
Q 33.015625 36.03125 37.109375 41.625 
Q 41.21875 47.21875 41.21875 52.203125 
Q 41.21875 57.421875 37.46875 61 
Q 33.734375 64.59375 27.734375 64.59375 
Q 21.390625 64.59375 17.578125 60.78125 
Q 13.765625 56.984375 13.71875 50.25 
L 4.6875 51.171875 
Q 5.609375 61.28125 11.65625 66.578125 
Q 17.71875 71.875 27.9375 71.875 
Q 38.234375 71.875 44.234375 66.15625 
Q 50.25 60.453125 50.25 52 
Q 50.25 47.703125 48.484375 43.546875 
Q 46.734375 39.40625 42.65625 34.8125 
Q 38.578125 30.21875 29.109375 22.21875 
Q 21.1875 15.578125 18.9375 13.203125 
Q 16.703125 10.84375 15.234375 8.453125 
z
" id="ArialMT-50"/>
      </defs>
      <g style="fill:#262626;" transform="translate(26.148906 124.869889)scale(0.11 -0.11)">
       <use xlink:href="#ArialMT-50"/>
       <use x="55.615234" xlink:href="#ArialMT-48"/>
       <use x="111.230469" xlink:href="#ArialMT-48"/>
      </g>
     </g>
    </g>
    <g id="ytick_6">
     <g id="line2d_13">
      <path clip-path="url(#p8d4a9f1d50)" d="M 54 88.166365 
L 388.8 88.166365 
" style="fill:none;stroke:#ffffff;stroke-linecap:round;"/>
     </g>
     <g id="text_14">
      <!-- 250 -->
      <g style="fill:#262626;" transform="translate(26.148906 92.103162)scale(0.11 -0.11)">
       <use xlink:href="#ArialMT-50"/>
       <use x="55.615234" xlink:href="#ArialMT-53"/>
       <use x="111.230469" xlink:href="#ArialMT-48"/>
      </g>
     </g>
    </g>
    <g id="ytick_7">
     <g id="line2d_14">
      <path clip-path="url(#p8d4a9f1d50)" d="M 54 55.399638 
L 388.8 55.399638 
" style="fill:none;stroke:#ffffff;stroke-linecap:round;"/>
     </g>
     <g id="text_15">
      <!-- 300 -->
      <defs>
       <path d="M 4.203125 18.890625 
L 12.984375 20.0625 
Q 14.5 12.59375 18.140625 9.296875 
Q 21.78125 6 27 6 
Q 33.203125 6 37.46875 10.296875 
Q 41.75 14.59375 41.75 20.953125 
Q 41.75 27 37.796875 30.921875 
Q 33.84375 34.859375 27.734375 34.859375 
Q 25.25 34.859375 21.53125 33.890625 
L 22.515625 41.609375 
Q 23.390625 41.5 23.921875 41.5 
Q 29.546875 41.5 34.03125 44.421875 
Q 38.53125 47.359375 38.53125 53.46875 
Q 38.53125 58.296875 35.25 61.46875 
Q 31.984375 64.65625 26.8125 64.65625 
Q 21.6875 64.65625 18.265625 61.421875 
Q 14.84375 58.203125 13.875 51.765625 
L 5.078125 53.328125 
Q 6.6875 62.15625 12.390625 67.015625 
Q 18.109375 71.875 26.609375 71.875 
Q 32.46875 71.875 37.390625 69.359375 
Q 42.328125 66.84375 44.9375 62.5 
Q 47.5625 58.15625 47.5625 53.265625 
Q 47.5625 48.640625 45.0625 44.828125 
Q 42.578125 41.015625 37.703125 38.765625 
Q 44.046875 37.3125 47.5625 32.6875 
Q 51.078125 28.078125 51.078125 21.140625 
Q 51.078125 11.765625 44.234375 5.25 
Q 37.40625 -1.265625 26.953125 -1.265625 
Q 17.53125 -1.265625 11.296875 4.34375 
Q 5.078125 9.96875 4.203125 18.890625 
z
" id="ArialMT-51"/>
      </defs>
      <g style="fill:#262626;" transform="translate(26.148906 59.336435)scale(0.11 -0.11)">
       <use xlink:href="#ArialMT-51"/>
       <use x="55.615234" xlink:href="#ArialMT-48"/>
       <use x="111.230469" xlink:href="#ArialMT-48"/>
      </g>
     </g>
    </g>
    <g id="text_16">
     <!-- # Pairs -->
     <defs>
      <path d="M 5.03125 -1.21875 
L 9.28125 19.578125 
L 1.03125 19.578125 
L 1.03125 26.859375 
L 10.75 26.859375 
L 14.359375 44.578125 
L 1.03125 44.578125 
L 1.03125 51.859375 
L 15.828125 51.859375 
L 20.0625 72.796875 
L 27.390625 72.796875 
L 23.140625 51.859375 
L 38.53125 51.859375 
L 42.78125 72.796875 
L 50.140625 72.796875 
L 45.90625 51.859375 
L 54.34375 51.859375 
L 54.34375 44.578125 
L 44.4375 44.578125 
L 40.765625 26.859375 
L 54.34375 26.859375 
L 54.34375 19.578125 
L 39.3125 19.578125 
L 35.0625 -1.21875 
L 27.734375 -1.21875 
L 31.9375 19.578125 
L 16.609375 19.578125 
L 12.359375 -1.21875 
z
M 18.0625 26.859375 
L 33.40625 26.859375 
L 37.0625 44.578125 
L 21.6875 44.578125 
z
" id="ArialMT-35"/>
      <path id="ArialMT-32"/>
      <path d="M 7.71875 0 
L 7.71875 71.578125 
L 34.71875 71.578125 
Q 41.84375 71.578125 45.609375 70.90625 
Q 50.875 70.015625 54.4375 67.546875 
Q 58.015625 65.09375 60.1875 60.640625 
Q 62.359375 56.203125 62.359375 50.875 
Q 62.359375 41.75 56.546875 35.421875 
Q 50.734375 29.109375 35.546875 29.109375 
L 17.1875 29.109375 
L 17.1875 0 
z
M 17.1875 37.546875 
L 35.6875 37.546875 
Q 44.875 37.546875 48.734375 40.96875 
Q 52.59375 44.390625 52.59375 50.59375 
Q 52.59375 55.078125 50.3125 58.265625 
Q 48.046875 61.46875 44.34375 62.5 
Q 41.9375 63.140625 35.5 63.140625 
L 17.1875 63.140625 
z
" id="ArialMT-80"/>
      <path d="M 40.4375 6.390625 
Q 35.546875 2.25 31.03125 0.53125 
Q 26.515625 -1.171875 21.34375 -1.171875 
Q 12.796875 -1.171875 8.203125 3 
Q 3.609375 7.171875 3.609375 13.671875 
Q 3.609375 17.484375 5.34375 20.625 
Q 7.078125 23.78125 9.890625 25.6875 
Q 12.703125 27.59375 16.21875 28.5625 
Q 18.796875 29.25 24.03125 29.890625 
Q 34.671875 31.15625 39.703125 32.90625 
Q 39.75 34.71875 39.75 35.203125 
Q 39.75 40.578125 37.25 42.78125 
Q 33.890625 45.75 27.25 45.75 
Q 21.046875 45.75 18.09375 43.578125 
Q 15.140625 41.40625 13.71875 35.890625 
L 5.125 37.0625 
Q 6.296875 42.578125 8.984375 45.96875 
Q 11.671875 49.359375 16.75 51.1875 
Q 21.828125 53.03125 28.515625 53.03125 
Q 35.15625 53.03125 39.296875 51.46875 
Q 43.453125 49.90625 45.40625 47.53125 
Q 47.359375 45.171875 48.140625 41.546875 
Q 48.578125 39.3125 48.578125 33.453125 
L 48.578125 21.734375 
Q 48.578125 9.46875 49.140625 6.21875 
Q 49.703125 2.984375 51.375 0 
L 42.1875 0 
Q 40.828125 2.734375 40.4375 6.390625 
z
M 39.703125 26.03125 
Q 34.90625 24.078125 25.34375 22.703125 
Q 19.921875 21.921875 17.671875 20.9375 
Q 15.4375 19.96875 14.203125 18.09375 
Q 12.984375 16.21875 12.984375 13.921875 
Q 12.984375 10.40625 15.640625 8.0625 
Q 18.3125 5.71875 23.4375 5.71875 
Q 28.515625 5.71875 32.46875 7.9375 
Q 36.421875 10.15625 38.28125 14.015625 
Q 39.703125 17 39.703125 22.796875 
z
" id="ArialMT-97"/>
      <path d="M 6.640625 61.46875 
L 6.640625 71.578125 
L 15.4375 71.578125 
L 15.4375 61.46875 
z
M 6.640625 0 
L 6.640625 51.859375 
L 15.4375 51.859375 
L 15.4375 0 
z
" id="ArialMT-105"/>
      <path d="M 6.5 0 
L 6.5 51.859375 
L 14.40625 51.859375 
L 14.40625 44 
Q 17.4375 49.515625 20 51.265625 
Q 22.5625 53.03125 25.640625 53.03125 
Q 30.078125 53.03125 34.671875 50.203125 
L 31.640625 42.046875 
Q 28.421875 43.953125 25.203125 43.953125 
Q 22.3125 43.953125 20.015625 42.21875 
Q 17.71875 40.484375 16.75 37.40625 
Q 15.28125 32.71875 15.28125 27.15625 
L 15.28125 0 
z
" id="ArialMT-114"/>
      <path d="M 3.078125 15.484375 
L 11.765625 16.84375 
Q 12.5 11.625 15.84375 8.84375 
Q 19.1875 6.0625 25.203125 6.0625 
Q 31.25 6.0625 34.171875 8.515625 
Q 37.109375 10.984375 37.109375 14.3125 
Q 37.109375 17.28125 34.515625 19 
Q 32.71875 20.171875 25.53125 21.96875 
Q 15.875 24.421875 12.140625 26.203125 
Q 8.40625 27.984375 6.46875 31.125 
Q 4.546875 34.28125 4.546875 38.09375 
Q 4.546875 41.546875 6.125 44.5 
Q 7.71875 47.46875 10.453125 49.421875 
Q 12.5 50.921875 16.03125 51.96875 
Q 19.578125 53.03125 23.640625 53.03125 
Q 29.734375 53.03125 34.34375 51.265625 
Q 38.96875 49.515625 41.15625 46.5 
Q 43.359375 43.5 44.1875 38.484375 
L 35.59375 37.3125 
Q 35.015625 41.3125 32.203125 43.546875 
Q 29.390625 45.796875 24.265625 45.796875 
Q 18.21875 45.796875 15.625 43.796875 
Q 13.03125 41.796875 13.03125 39.109375 
Q 13.03125 37.40625 14.109375 36.03125 
Q 15.1875 34.625 17.484375 33.6875 
Q 18.796875 33.203125 25.25 31.453125 
Q 34.578125 28.953125 38.25 27.359375 
Q 41.9375 25.78125 44.03125 22.75 
Q 46.140625 19.734375 46.140625 15.234375 
Q 46.140625 10.84375 43.578125 6.953125 
Q 41.015625 3.078125 36.171875 0.953125 
Q 31.34375 -1.171875 25.25 -1.171875 
Q 15.140625 -1.171875 9.84375 3.03125 
Q 4.546875 7.234375 3.078125 15.484375 
z
" id="ArialMT-115"/>
     </defs>
     <g style="fill:#262626;" transform="translate(19.763906 161.953125)rotate(-90)scale(0.12 -0.12)">
      <use xlink:href="#ArialMT-35"/>
      <use x="55.615234" xlink:href="#ArialMT-32"/>
      <use x="83.398438" xlink:href="#ArialMT-80"/>
      <use x="150.097656" xlink:href="#ArialMT-97"/>
      <use x="205.712891" xlink:href="#ArialMT-105"/>
      <use x="227.929688" xlink:href="#ArialMT-114"/>
      <use x="261.230469" xlink:href="#ArialMT-115"/>
     </g>
    </g>
   </g>
   <g id="patch_3">
    <path clip-path="url(#p8d4a9f1d50)" d="M 69.218182 252 
L 75.305455 252 
L 75.305455 251.344665 
L 69.218182 251.344665 
z
" style="fill:#4c72b0;opacity:0.3;stroke:#ffffff;stroke-linejoin:miter;"/>
   </g>
   <g id="patch_4">
    <path clip-path="url(#p8d4a9f1d50)" d="M 75.305455 252 
L 81.392727 252 
L 81.392727 252 
L 75.305455 252 
z
" style="fill:#4c72b0;opacity:0.3;stroke:#ffffff;stroke-linejoin:miter;"/>
   </g>
   <g id="patch_5">
    <path clip-path="url(#p8d4a9f1d50)" d="M 81.392727 252 
L 87.48 252 
L 87.48 251.344665 
L 81.392727 251.344665 
z
" style="fill:#4c72b0;opacity:0.3;stroke:#ffffff;stroke-linejoin:miter;"/>
   </g>
   <g id="patch_6">
    <path clip-path="url(#p8d4a9f1d50)" d="M 87.48 252 
L 93.567273 252 
L 93.567273 252 
L 87.48 252 
z
" style="fill:#4c72b0;opacity:0.3;stroke:#ffffff;stroke-linejoin:miter;"/>
   </g>
   <g id="patch_7">
    <path clip-path="url(#p8d4a9f1d50)" d="M 93.567273 252 
L 99.654545 252 
L 99.654545 252 
L 93.567273 252 
z
" style="fill:#4c72b0;opacity:0.3;stroke:#ffffff;stroke-linejoin:miter;"/>
   </g>
   <g id="patch_8">
    <path clip-path="url(#p8d4a9f1d50)" d="M 99.654545 252 
L 105.741818 252 
L 105.741818 252 
L 99.654545 252 
z
" style="fill:#4c72b0;opacity:0.3;stroke:#ffffff;stroke-linejoin:miter;"/>
   </g>
   <g id="patch_9">
    <path clip-path="url(#p8d4a9f1d50)" d="M 105.741818 252 
L 111.829091 252 
L 111.829091 252 
L 105.741818 252 
z
" style="fill:#4c72b0;opacity:0.3;stroke:#ffffff;stroke-linejoin:miter;"/>
   </g>
   <g id="patch_10">
    <path clip-path="url(#p8d4a9f1d50)" d="M 111.829091 252 
L 117.916364 252 
L 117.916364 252 
L 111.829091 252 
z
" style="fill:#4c72b0;opacity:0.3;stroke:#ffffff;stroke-linejoin:miter;"/>
   </g>
   <g id="patch_11">
    <path clip-path="url(#p8d4a9f1d50)" d="M 117.916364 252 
L 124.003636 252 
L 124.003636 250.689331 
L 117.916364 250.689331 
z
" style="fill:#4c72b0;opacity:0.3;stroke:#ffffff;stroke-linejoin:miter;"/>
   </g>
   <g id="patch_12">
    <path clip-path="url(#p8d4a9f1d50)" d="M 124.003636 252 
L 130.090909 252 
L 130.090909 251.344665 
L 124.003636 251.344665 
z
" style="fill:#4c72b0;opacity:0.3;stroke:#ffffff;stroke-linejoin:miter;"/>
   </g>
   <g id="patch_13">
    <path clip-path="url(#p8d4a9f1d50)" d="M 130.090909 252 
L 136.178182 252 
L 136.178182 249.378662 
L 130.090909 249.378662 
z
" style="fill:#4c72b0;opacity:0.3;stroke:#ffffff;stroke-linejoin:miter;"/>
   </g>
   <g id="patch_14">
    <path clip-path="url(#p8d4a9f1d50)" d="M 136.178182 252 
L 142.265455 252 
L 142.265455 247.412658 
L 136.178182 247.412658 
z
" style="fill:#4c72b0;opacity:0.3;stroke:#ffffff;stroke-linejoin:miter;"/>
   </g>
   <g id="patch_15">
    <path clip-path="url(#p8d4a9f1d50)" d="M 142.265455 252 
L 148.352727 252 
L 148.352727 244.135986 
L 142.265455 244.135986 
z
" style="fill:#4c72b0;opacity:0.3;stroke:#ffffff;stroke-linejoin:miter;"/>
   </g>
   <g id="patch_16">
    <path clip-path="url(#p8d4a9f1d50)" d="M 148.352727 252 
L 154.44 252 
L 154.44 234.305967 
L 148.352727 234.305967 
z
" style="fill:#4c72b0;opacity:0.3;stroke:#ffffff;stroke-linejoin:miter;"/>
   </g>
   <g id="patch_17">
    <path clip-path="url(#p8d4a9f1d50)" d="M 154.44 252 
L 160.527273 252 
L 160.527273 225.131284 
L 154.44 225.131284 
z
" style="fill:#4c72b0;opacity:0.3;stroke:#ffffff;stroke-linejoin:miter;"/>
   </g>
   <g id="patch_18">
    <path clip-path="url(#p8d4a9f1d50)" d="M 160.527273 252 
L 166.614545 252 
L 166.614545 223.16528 
L 160.527273 223.16528 
z
" style="fill:#4c72b0;opacity:0.3;stroke:#ffffff;stroke-linejoin:miter;"/>
   </g>
   <g id="patch_19">
    <path clip-path="url(#p8d4a9f1d50)" d="M 166.614545 252 
L 172.701818 252 
L 172.701818 203.505244 
L 166.614545 203.505244 
z
" style="fill:#4c72b0;opacity:0.3;stroke:#ffffff;stroke-linejoin:miter;"/>
   </g>
   <g id="patch_20">
    <path clip-path="url(#p8d4a9f1d50)" d="M 172.701818 252 
L 178.789091 252 
L 178.789091 196.296564 
L 172.701818 196.296564 
z
" style="fill:#4c72b0;opacity:0.3;stroke:#ffffff;stroke-linejoin:miter;"/>
   </g>
   <g id="patch_21">
    <path clip-path="url(#p8d4a9f1d50)" d="M 178.789091 252 
L 184.876364 252 
L 184.876364 168.117179 
L 178.789091 168.117179 
z
" style="fill:#4c72b0;opacity:0.3;stroke:#ffffff;stroke-linejoin:miter;"/>
   </g>
   <g id="patch_22">
    <path clip-path="url(#p8d4a9f1d50)" d="M 184.876364 252 
L 190.963636 252 
L 190.963636 168.772514 
L 184.876364 168.772514 
z
" style="fill:#4c72b0;opacity:0.3;stroke:#ffffff;stroke-linejoin:miter;"/>
   </g>
   <g id="patch_23">
    <path clip-path="url(#p8d4a9f1d50)" d="M 190.963636 252 
L 197.050909 252 
L 197.050909 191.709222 
L 190.963636 191.709222 
z
" style="fill:#4c72b0;opacity:0.3;stroke:#ffffff;stroke-linejoin:miter;"/>
   </g>
   <g id="patch_24">
    <path clip-path="url(#p8d4a9f1d50)" d="M 197.050909 252 
L 203.138182 252 
L 203.138182 193.019892 
L 197.050909 193.019892 
z
" style="fill:#4c72b0;opacity:0.3;stroke:#ffffff;stroke-linejoin:miter;"/>
   </g>
   <g id="patch_25">
    <path clip-path="url(#p8d4a9f1d50)" d="M 203.138182 252 
L 209.225455 252 
L 209.225455 198.917902 
L 203.138182 198.917902 
z
" style="fill:#4c72b0;opacity:0.3;stroke:#ffffff;stroke-linejoin:miter;"/>
   </g>
   <g id="patch_26">
    <path clip-path="url(#p8d4a9f1d50)" d="M 209.225455 252 
L 215.312727 252 
L 215.312727 200.228571 
L 209.225455 200.228571 
z
" style="fill:#4c72b0;opacity:0.3;stroke:#ffffff;stroke-linejoin:miter;"/>
   </g>
   <g id="patch_27">
    <path clip-path="url(#p8d4a9f1d50)" d="M 215.312727 252 
L 221.4 252 
L 221.4 203.505244 
L 215.312727 203.505244 
z
" style="fill:#4c72b0;opacity:0.3;stroke:#ffffff;stroke-linejoin:miter;"/>
   </g>
   <g id="patch_28">
    <path clip-path="url(#p8d4a9f1d50)" d="M 221.4 252 
L 227.487273 252 
L 227.487273 183.845208 
L 221.4 183.845208 
z
" style="fill:#4c72b0;opacity:0.3;stroke:#ffffff;stroke-linejoin:miter;"/>
   </g>
   <g id="patch_29">
    <path clip-path="url(#p8d4a9f1d50)" d="M 227.487273 252 
L 233.574545 252 
L 233.574545 174.01519 
L 227.487273 174.01519 
z
" style="fill:#4c72b0;opacity:0.3;stroke:#ffffff;stroke-linejoin:miter;"/>
   </g>
   <g id="patch_30">
    <path clip-path="url(#p8d4a9f1d50)" d="M 233.574545 252 
L 239.661818 252 
L 239.661818 167.461844 
L 233.574545 167.461844 
z
" style="fill:#4c72b0;opacity:0.3;stroke:#ffffff;stroke-linejoin:miter;"/>
   </g>
   <g id="patch_31">
    <path clip-path="url(#p8d4a9f1d50)" d="M 239.661818 252 
L 245.749091 252 
L 245.749091 94.719711 
L 239.661818 94.719711 
z
" style="fill:#4c72b0;opacity:0.3;stroke:#ffffff;stroke-linejoin:miter;"/>
   </g>
   <g id="patch_32">
    <path clip-path="url(#p8d4a9f1d50)" d="M 245.749091 252 
L 251.836364 252 
L 251.836364 44.914286 
L 245.749091 44.914286 
z
" style="fill:#4c72b0;opacity:0.3;stroke:#ffffff;stroke-linejoin:miter;"/>
   </g>
   <g id="patch_33">
    <path clip-path="url(#p8d4a9f1d50)" d="M 251.836364 252 
L 257.923636 252 
L 257.923636 92.753707 
L 251.836364 92.753707 
z
" style="fill:#4c72b0;opacity:0.3;stroke:#ffffff;stroke-linejoin:miter;"/>
   </g>
   <g id="patch_34">
    <path clip-path="url(#p8d4a9f1d50)" d="M 257.923636 252 
L 264.010909 252 
L 264.010909 149.767812 
L 257.923636 149.767812 
z
" style="fill:#4c72b0;opacity:0.3;stroke:#ffffff;stroke-linejoin:miter;"/>
   </g>
   <g id="patch_35">
    <path clip-path="url(#p8d4a9f1d50)" d="M 264.010909 252 
L 270.098182 252 
L 270.098182 162.219168 
L 264.010909 162.219168 
z
" style="fill:#4c72b0;opacity:0.3;stroke:#ffffff;stroke-linejoin:miter;"/>
   </g>
   <g id="patch_36">
    <path clip-path="url(#p8d4a9f1d50)" d="M 270.098182 252 
L 276.185455 252 
L 276.185455 174.670524 
L 270.098182 174.670524 
z
" style="fill:#4c72b0;opacity:0.3;stroke:#ffffff;stroke-linejoin:miter;"/>
   </g>
   <g id="patch_37">
    <path clip-path="url(#p8d4a9f1d50)" d="M 276.185455 252 
L 282.272727 252 
L 282.272727 184.500542 
L 276.185455 184.500542 
z
" style="fill:#4c72b0;opacity:0.3;stroke:#ffffff;stroke-linejoin:miter;"/>
   </g>
   <g id="patch_38">
    <path clip-path="url(#p8d4a9f1d50)" d="M 282.272727 252 
L 288.36 252 
L 288.36 187.121881 
L 282.272727 187.121881 
z
" style="fill:#4c72b0;opacity:0.3;stroke:#ffffff;stroke-linejoin:miter;"/>
   </g>
   <g id="patch_39">
    <path clip-path="url(#p8d4a9f1d50)" d="M 288.36 252 
L 294.447273 252 
L 294.447273 183.189873 
L 288.36 183.189873 
z
" style="fill:#4c72b0;opacity:0.3;stroke:#ffffff;stroke-linejoin:miter;"/>
   </g>
   <g id="patch_40">
    <path clip-path="url(#p8d4a9f1d50)" d="M 294.447273 252 
L 300.534545 252 
L 300.534545 182.534539 
L 294.447273 182.534539 
z
" style="fill:#4c72b0;opacity:0.3;stroke:#ffffff;stroke-linejoin:miter;"/>
   </g>
   <g id="patch_41">
    <path clip-path="url(#p8d4a9f1d50)" d="M 300.534545 252 
L 306.621818 252 
L 306.621818 162.219168 
L 300.534545 162.219168 
z
" style="fill:#4c72b0;opacity:0.3;stroke:#ffffff;stroke-linejoin:miter;"/>
   </g>
   <g id="patch_42">
    <path clip-path="url(#p8d4a9f1d50)" d="M 306.621818 252 
L 312.709091 252 
L 312.709091 177.947197 
L 306.621818 177.947197 
z
" style="fill:#4c72b0;opacity:0.3;stroke:#ffffff;stroke-linejoin:miter;"/>
   </g>
   <g id="patch_43">
    <path clip-path="url(#p8d4a9f1d50)" d="M 312.709091 252 
L 318.796364 252 
L 318.796364 145.835805 
L 312.709091 145.835805 
z
" style="fill:#4c72b0;opacity:0.3;stroke:#ffffff;stroke-linejoin:miter;"/>
   </g>
   <g id="patch_44">
    <path clip-path="url(#p8d4a9f1d50)" d="M 318.796364 252 
L 324.883636 252 
L 324.883636 152.38915 
L 318.796364 152.38915 
z
" style="fill:#4c72b0;opacity:0.3;stroke:#ffffff;stroke-linejoin:miter;"/>
   </g>
   <g id="patch_45">
    <path clip-path="url(#p8d4a9f1d50)" d="M 324.883636 252 
L 330.970909 252 
L 330.970909 181.22387 
L 324.883636 181.22387 
z
" style="fill:#4c72b0;opacity:0.3;stroke:#ffffff;stroke-linejoin:miter;"/>
   </g>
   <g id="patch_46">
    <path clip-path="url(#p8d4a9f1d50)" d="M 330.970909 252 
L 337.058182 252 
L 337.058182 213.335262 
L 330.970909 213.335262 
z
" style="fill:#4c72b0;opacity:0.3;stroke:#ffffff;stroke-linejoin:miter;"/>
   </g>
   <g id="patch_47">
    <path clip-path="url(#p8d4a9f1d50)" d="M 337.058182 252 
L 343.145455 252 
L 343.145455 231.029295 
L 337.058182 231.029295 
z
" style="fill:#4c72b0;opacity:0.3;stroke:#ffffff;stroke-linejoin:miter;"/>
   </g>
   <g id="patch_48">
    <path clip-path="url(#p8d4a9f1d50)" d="M 343.145455 252 
L 349.232727 252 
L 349.232727 241.514647 
L 343.145455 241.514647 
z
" style="fill:#4c72b0;opacity:0.3;stroke:#ffffff;stroke-linejoin:miter;"/>
   </g>
   <g id="patch_49">
    <path clip-path="url(#p8d4a9f1d50)" d="M 349.232727 252 
L 355.32 252 
L 355.32 246.757324 
L 349.232727 246.757324 
z
" style="fill:#4c72b0;opacity:0.3;stroke:#ffffff;stroke-linejoin:miter;"/>
   </g>
   <g id="patch_50">
    <path clip-path="url(#p8d4a9f1d50)" d="M 355.32 252 
L 361.407273 252 
L 361.407273 252 
L 355.32 252 
z
" style="fill:#4c72b0;opacity:0.3;stroke:#ffffff;stroke-linejoin:miter;"/>
   </g>
   <g id="patch_51">
    <path clip-path="url(#p8d4a9f1d50)" d="M 361.407273 252 
L 367.494545 252 
L 367.494545 250.689331 
L 361.407273 250.689331 
z
" style="fill:#4c72b0;opacity:0.3;stroke:#ffffff;stroke-linejoin:miter;"/>
   </g>
   <g id="patch_52">
    <path clip-path="url(#p8d4a9f1d50)" d="M 367.494545 252 
L 373.581818 252 
L 373.581818 251.344665 
L 367.494545 251.344665 
z
" style="fill:#4c72b0;opacity:0.3;stroke:#ffffff;stroke-linejoin:miter;"/>
   </g>
   <g id="line2d_15">
    <path clip-path="url(#p8d4a9f1d50)" d="M 72.261818 251.95124 
L 78.349091 251.920295 
L 84.436364 251.871787 
L 90.523636 251.797046 
L 96.610909 251.683857 
L 102.698182 251.515391 
L 108.785455 251.268996 
L 114.872727 250.9149 
L 120.96 250.414955 
L 127.047273 249.721513 
L 133.134545 248.775869 
L 139.221818 247.498287 
L 145.309091 245.716836 
L 151.396364 242.845355 
L 157.483636 237.112739 
L 163.570909 225.284982 
L 169.658182 205.751368 
L 175.745455 184.355018 
L 181.832727 172.910868 
L 187.92 176.397563 
L 194.007273 186.497855 
L 200.094545 192.200589 
L 206.181818 190.32852 
L 212.269091 183.683662 
L 218.356364 175.354114 
L 224.443636 166.880403 
L 230.530909 158.900969 
L 236.618182 151.788821 
L 242.705455 145.852271 
L 248.792727 141.35634 
L 254.88 138.508447 
L 260.967273 137.442977 
L 267.054545 138.210793 
L 273.141818 140.775208 
L 279.229091 145.014897 
L 285.316364 150.733409 
L 291.403636 157.674255 
L 297.490909 165.539951 
L 303.578182 174.013059 
L 309.665455 182.777152 
L 315.752727 191.535812 
L 321.84 200.028152 
L 327.927273 208.03984 
L 334.014545 215.40923 
L 340.101818 222.02874 
L 346.189091 227.842074 
L 352.276364 232.838238 
L 358.363636 237.043415 
L 364.450909 240.511837 
L 370.538182 243.316598 
" style="fill:none;stroke:#ff0000;stroke-linecap:round;stroke-width:3;"/>
   </g>
   <g id="line2d_16">
    <path clip-path="url(#p8d4a9f1d50)" d="M 180.950127 252 
L 180.950127 34.56 
" style="fill:none;stroke:#55a868;stroke-dasharray:5.55,2.4;stroke-dashoffset:0;stroke-width:1.5;"/>
   </g>
   <g id="line2d_17">
    <path clip-path="url(#p8d4a9f1d50)" d="M 261.463379 252 
L 261.463379 34.56 
" style="fill:none;stroke:#55a868;stroke-dasharray:5.55,2.4;stroke-dashoffset:0;stroke-width:1.5;"/>
   </g>
   <g id="line2d_18">
    <path clip-path="url(#p8d4a9f1d50)" d="M 200.094545 252 
L 200.094545 34.56 
" style="fill:none;stroke:#1a1a1a;stroke-dasharray:5.55,2.4;stroke-dashoffset:0;stroke-width:1.5;"/>
   </g>
   <g id="patch_53">
    <path d="M 54 252 
L 54 34.56 
" style="fill:none;stroke:#ffffff;stroke-linecap:square;stroke-linejoin:miter;stroke-width:1.25;"/>
   </g>
   <g id="patch_54">
    <path d="M 388.8 252 
L 388.8 34.56 
" style="fill:none;stroke:#ffffff;stroke-linecap:square;stroke-linejoin:miter;stroke-width:1.25;"/>
   </g>
   <g id="patch_55">
    <path d="M 54 252 
L 388.8 252 
" style="fill:none;stroke:#ffffff;stroke-linecap:square;stroke-linejoin:miter;stroke-width:1.25;"/>
   </g>
   <g id="patch_56">
    <path d="M 54 34.56 
L 388.8 34.56 
" style="fill:none;stroke:#ffffff;stroke-linecap:square;stroke-linejoin:miter;stroke-width:1.25;"/>
   </g>
   <g id="text_17">
    <!-- chosen threshold to separate resistant pairs=-1.99 -->
    <defs>
     <path d="M 40.4375 19 
L 49.078125 17.875 
Q 47.65625 8.9375 41.8125 3.875 
Q 35.984375 -1.171875 27.484375 -1.171875 
Q 16.84375 -1.171875 10.375 5.78125 
Q 3.90625 12.75 3.90625 25.734375 
Q 3.90625 34.125 6.6875 40.421875 
Q 9.46875 46.734375 15.15625 49.875 
Q 20.84375 53.03125 27.546875 53.03125 
Q 35.984375 53.03125 41.359375 48.75 
Q 46.734375 44.484375 48.25 36.625 
L 39.703125 35.296875 
Q 38.484375 40.53125 35.375 43.15625 
Q 32.28125 45.796875 27.875 45.796875 
Q 21.234375 45.796875 17.078125 41.03125 
Q 12.9375 36.28125 12.9375 25.984375 
Q 12.9375 15.53125 16.9375 10.796875 
Q 20.953125 6.0625 27.390625 6.0625 
Q 32.5625 6.0625 36.03125 9.234375 
Q 39.5 12.40625 40.4375 19 
z
" id="ArialMT-99"/>
     <path d="M 6.59375 0 
L 6.59375 71.578125 
L 15.375 71.578125 
L 15.375 45.90625 
Q 21.53125 53.03125 30.90625 53.03125 
Q 36.671875 53.03125 40.921875 50.75 
Q 45.171875 48.484375 47 44.484375 
Q 48.828125 40.484375 48.828125 32.859375 
L 48.828125 0 
L 40.046875 0 
L 40.046875 32.859375 
Q 40.046875 39.453125 37.1875 42.453125 
Q 34.328125 45.453125 29.109375 45.453125 
Q 25.203125 45.453125 21.75 43.421875 
Q 18.3125 41.40625 16.84375 37.9375 
Q 15.375 34.46875 15.375 28.375 
L 15.375 0 
z
" id="ArialMT-104"/>
     <path d="M 6.59375 0 
L 6.59375 51.859375 
L 14.5 51.859375 
L 14.5 44.484375 
Q 20.21875 53.03125 31 53.03125 
Q 35.6875 53.03125 39.625 51.34375 
Q 43.5625 49.65625 45.515625 46.921875 
Q 47.46875 44.1875 48.25 40.4375 
Q 48.734375 37.984375 48.734375 31.890625 
L 48.734375 0 
L 39.9375 0 
L 39.9375 31.546875 
Q 39.9375 36.921875 38.90625 39.578125 
Q 37.890625 42.234375 35.28125 43.8125 
Q 32.671875 45.40625 29.15625 45.40625 
Q 23.53125 45.40625 19.453125 41.84375 
Q 15.375 38.28125 15.375 28.328125 
L 15.375 0 
z
" id="ArialMT-110"/>
     <path d="M 25.78125 7.859375 
L 27.046875 0.09375 
Q 23.34375 -0.6875 20.40625 -0.6875 
Q 15.625 -0.6875 12.984375 0.828125 
Q 10.359375 2.34375 9.28125 4.8125 
Q 8.203125 7.28125 8.203125 15.1875 
L 8.203125 45.015625 
L 1.765625 45.015625 
L 1.765625 51.859375 
L 8.203125 51.859375 
L 8.203125 64.703125 
L 16.9375 69.96875 
L 16.9375 51.859375 
L 25.78125 51.859375 
L 25.78125 45.015625 
L 16.9375 45.015625 
L 16.9375 14.703125 
Q 16.9375 10.9375 17.40625 9.859375 
Q 17.875 8.796875 18.921875 8.15625 
Q 19.96875 7.515625 21.921875 7.515625 
Q 23.390625 7.515625 25.78125 7.859375 
z
" id="ArialMT-116"/>
     <path d="M 6.390625 0 
L 6.390625 71.578125 
L 15.1875 71.578125 
L 15.1875 0 
z
" id="ArialMT-108"/>
     <path d="M 6.59375 -19.875 
L 6.59375 51.859375 
L 14.59375 51.859375 
L 14.59375 45.125 
Q 17.4375 49.078125 21 51.046875 
Q 24.5625 53.03125 29.640625 53.03125 
Q 36.28125 53.03125 41.359375 49.609375 
Q 46.4375 46.1875 49.015625 39.953125 
Q 51.609375 33.734375 51.609375 26.3125 
Q 51.609375 18.359375 48.75 11.984375 
Q 45.90625 5.609375 40.453125 2.21875 
Q 35.015625 -1.171875 29 -1.171875 
Q 24.609375 -1.171875 21.109375 0.6875 
Q 17.625 2.546875 15.375 5.375 
L 15.375 -19.875 
z
M 14.546875 25.640625 
Q 14.546875 15.625 18.59375 10.84375 
Q 22.65625 6.0625 28.421875 6.0625 
Q 34.28125 6.0625 38.453125 11.015625 
Q 42.625 15.96875 42.625 26.375 
Q 42.625 36.28125 38.546875 41.203125 
Q 34.46875 46.140625 28.8125 46.140625 
Q 23.1875 46.140625 18.859375 40.890625 
Q 14.546875 35.640625 14.546875 25.640625 
z
" id="ArialMT-112"/>
     <path d="M 52.828125 42.09375 
L 5.5625 42.09375 
L 5.5625 50.296875 
L 52.828125 50.296875 
z
M 52.828125 20.359375 
L 5.5625 20.359375 
L 5.5625 28.5625 
L 52.828125 28.5625 
z
" id="ArialMT-61"/>
     <path d="M 3.171875 21.484375 
L 3.171875 30.328125 
L 30.171875 30.328125 
L 30.171875 21.484375 
z
" id="ArialMT-45"/>
     <path d="M 9.078125 0 
L 9.078125 10.015625 
L 19.09375 10.015625 
L 19.09375 0 
z
" id="ArialMT-46"/>
     <path d="M 5.46875 16.546875 
L 13.921875 17.328125 
Q 14.984375 11.375 18.015625 8.6875 
Q 21.046875 6 25.78125 6 
Q 29.828125 6 32.875 7.859375 
Q 35.9375 9.71875 37.890625 12.8125 
Q 39.84375 15.921875 41.15625 21.1875 
Q 42.484375 26.46875 42.484375 31.9375 
Q 42.484375 32.515625 42.4375 33.6875 
Q 39.796875 29.5 35.234375 26.875 
Q 30.671875 24.265625 25.34375 24.265625 
Q 16.453125 24.265625 10.296875 30.703125 
Q 4.15625 37.15625 4.15625 47.703125 
Q 4.15625 58.59375 10.578125 65.234375 
Q 17 71.875 26.65625 71.875 
Q 33.640625 71.875 39.421875 68.109375 
Q 45.21875 64.359375 48.21875 57.390625 
Q 51.21875 50.4375 51.21875 37.25 
Q 51.21875 23.53125 48.234375 15.40625 
Q 45.265625 7.28125 39.375 3.03125 
Q 33.5 -1.21875 25.59375 -1.21875 
Q 17.1875 -1.21875 11.859375 3.4375 
Q 6.546875 8.109375 5.46875 16.546875 
z
M 41.453125 48.140625 
Q 41.453125 55.71875 37.421875 60.15625 
Q 33.40625 64.59375 27.734375 64.59375 
Q 21.875 64.59375 17.53125 59.8125 
Q 13.1875 55.03125 13.1875 47.40625 
Q 13.1875 40.578125 17.3125 36.296875 
Q 21.4375 32.03125 27.484375 32.03125 
Q 33.59375 32.03125 37.515625 36.296875 
Q 41.453125 40.578125 41.453125 48.140625 
z
" id="ArialMT-57"/>
    </defs>
    <g style="fill:#262626;" transform="translate(87.830625 28.56)scale(0.12 -0.12)">
     <use xlink:href="#ArialMT-99"/>
     <use x="50" xlink:href="#ArialMT-104"/>
     <use x="105.615234" xlink:href="#ArialMT-111"/>
     <use x="161.230469" xlink:href="#ArialMT-115"/>
     <use x="211.230469" xlink:href="#ArialMT-101"/>
     <use x="266.845703" xlink:href="#ArialMT-110"/>
     <use x="322.460938" xlink:href="#ArialMT-32"/>
     <use x="350.244141" xlink:href="#ArialMT-116"/>
     <use x="378.027344" xlink:href="#ArialMT-104"/>
     <use x="433.642578" xlink:href="#ArialMT-114"/>
     <use x="466.943359" xlink:href="#ArialMT-101"/>
     <use x="522.558594" xlink:href="#ArialMT-115"/>
     <use x="572.558594" xlink:href="#ArialMT-104"/>
     <use x="628.173828" xlink:href="#ArialMT-111"/>
     <use x="683.789062" xlink:href="#ArialMT-108"/>
     <use x="706.005859" xlink:href="#ArialMT-100"/>
     <use x="761.621094" xlink:href="#ArialMT-32"/>
     <use x="789.404297" xlink:href="#ArialMT-116"/>
     <use x="817.1875" xlink:href="#ArialMT-111"/>
     <use x="872.802734" xlink:href="#ArialMT-32"/>
     <use x="900.585938" xlink:href="#ArialMT-115"/>
     <use x="950.585938" xlink:href="#ArialMT-101"/>
     <use x="1006.201172" xlink:href="#ArialMT-112"/>
     <use x="1061.816406" xlink:href="#ArialMT-97"/>
     <use x="1117.431641" xlink:href="#ArialMT-114"/>
     <use x="1150.732422" xlink:href="#ArialMT-97"/>
     <use x="1206.347656" xlink:href="#ArialMT-116"/>
     <use x="1234.130859" xlink:href="#ArialMT-101"/>
     <use x="1289.746094" xlink:href="#ArialMT-32"/>
     <use x="1317.529297" xlink:href="#ArialMT-114"/>
     <use x="1350.830078" xlink:href="#ArialMT-101"/>
     <use x="1406.445312" xlink:href="#ArialMT-115"/>
     <use x="1456.445312" xlink:href="#ArialMT-105"/>
     <use x="1478.662109" xlink:href="#ArialMT-115"/>
     <use x="1528.662109" xlink:href="#ArialMT-116"/>
     <use x="1556.445312" xlink:href="#ArialMT-97"/>
     <use x="1612.060547" xlink:href="#ArialMT-110"/>
     <use x="1667.675781" xlink:href="#ArialMT-116"/>
     <use x="1695.458984" xlink:href="#ArialMT-32"/>
     <use x="1723.242188" xlink:href="#ArialMT-112"/>
     <use x="1778.857422" xlink:href="#ArialMT-97"/>
     <use x="1834.472656" xlink:href="#ArialMT-105"/>
     <use x="1856.689453" xlink:href="#ArialMT-114"/>
     <use x="1889.990234" xlink:href="#ArialMT-115"/>
     <use x="1939.990234" xlink:href="#ArialMT-61"/>
     <use x="1998.388672" xlink:href="#ArialMT-45"/>
     <use x="2031.689453" xlink:href="#ArialMT-49"/>
     <use x="2087.304688" xlink:href="#ArialMT-46"/>
     <use x="2115.087891" xlink:href="#ArialMT-57"/>
     <use x="2170.703125" xlink:href="#ArialMT-57"/>
    </g>
   </g>
   <g id="legend_1">
    <g id="patch_57">
     <path d="M 315.942187 74.479688 
L 381.1 74.479688 
Q 383.3 74.479688 383.3 72.279688 
L 383.3 42.26 
Q 383.3 40.06 381.1 40.06 
L 315.942187 40.06 
Q 313.742188 40.06 313.742188 42.26 
L 313.742188 72.279688 
Q 313.742188 74.479688 315.942187 74.479688 
z
" style="fill:#eaeaf2;opacity:0.8;stroke:#cccccc;stroke-linejoin:miter;"/>
    </g>
    <g id="line2d_19">
     <path d="M 318.142187 48.483594 
L 340.142187 48.483594 
" style="fill:none;stroke:#ff0000;stroke-linecap:round;stroke-width:3;"/>
    </g>
    <g id="line2d_20"/>
    <g id="text_18">
     <!-- model -->
     <g style="fill:#262626;" transform="translate(348.942187 52.333594)scale(0.11 -0.11)">
      <use xlink:href="#ArialMT-109"/>
      <use x="83.300781" xlink:href="#ArialMT-111"/>
      <use x="138.916016" xlink:href="#ArialMT-100"/>
      <use x="194.53125" xlink:href="#ArialMT-101"/>
      <use x="250.146484" xlink:href="#ArialMT-108"/>
     </g>
    </g>
    <g id="patch_58">
     <path d="M 318.142187 67.893438 
L 340.142187 67.893438 
L 340.142187 60.193438 
L 318.142187 60.193438 
z
" style="fill:#4c72b0;opacity:0.3;stroke:#ffffff;stroke-linejoin:miter;"/>
    </g>
    <g id="text_19">
     <!-- data -->
     <g style="fill:#262626;" transform="translate(348.942187 67.893438)scale(0.11 -0.11)">
      <use xlink:href="#ArialMT-100"/>
      <use x="55.615234" xlink:href="#ArialMT-97"/>
      <use x="111.230469" xlink:href="#ArialMT-116"/>
      <use x="139.013672" xlink:href="#ArialMT-97"/>
     </g>
    </g>
   </g>
  </g>
 </g>
 <defs>
  <clipPath id="p8d4a9f1d50">
   <rect height="217.44" width="334.8" x="54" y="34.56"/>
  </clipPath>
 </defs>
</svg>
