<?xml version="1.0" encoding="utf-8" standalone="no"?>
<!DOCTYPE svg PUBLIC "-//W3C//DTD SVG 1.1//EN"
  "http://www.w3.org/Graphics/SVG/1.1/DTD/svg11.dtd">
<!-- Created with matplotlib (https://matplotlib.org/) -->
<svg height="288pt" version="1.1" viewBox="0 0 432 288" width="432pt" xmlns="http://www.w3.org/2000/svg" xmlns:xlink="http://www.w3.org/1999/xlink">
 <defs>
  <style type="text/css">
*{stroke-linecap:butt;stroke-linejoin:round;}
  </style>
 </defs>
 <g id="figure_1">
  <g id="patch_1">
   <path d="M 0 288 
L 432 288 
L 432 0 
L 0 0 
z
" style="fill:#ffffff;"/>
  </g>
  <g id="axes_1">
   <g id="patch_2">
    <path d="M 54 252 
L 388.8 252 
L 388.8 34.56 
L 54 34.56 
z
" style="fill:#eaeaf2;"/>
   </g>
   <g id="matplotlib.axis_1">
    <g id="xtick_1">
     <g id="line2d_1">
      <path clip-path="url(#p4b99ad780e)" d="M 92.304646 252 
L 92.304646 34.56 
" style="fill:none;stroke:#ffffff;stroke-linecap:round;"/>
     </g>
     <g id="text_1">
      <!-- −10 -->
      <defs>
       <path d="M 52.828125 31.203125 
L 5.5625 31.203125 
L 5.5625 39.40625 
L 52.828125 39.40625 
z
" id="ArialMT-8722"/>
       <path d="M 37.25 0 
L 28.46875 0 
L 28.46875 56 
Q 25.296875 52.984375 20.140625 49.953125 
Q 14.984375 46.921875 10.890625 45.40625 
L 10.890625 53.90625 
Q 18.265625 57.375 23.78125 62.296875 
Q 29.296875 67.234375 31.59375 71.875 
L 37.25 71.875 
z
" id="ArialMT-49"/>
       <path d="M 4.15625 35.296875 
Q 4.15625 48 6.765625 55.734375 
Q 9.375 63.484375 14.515625 67.671875 
Q 19.671875 71.875 27.484375 71.875 
Q 33.25 71.875 37.59375 69.546875 
Q 41.9375 67.234375 44.765625 62.859375 
Q 47.609375 58.5 49.21875 52.21875 
Q 50.828125 45.953125 50.828125 35.296875 
Q 50.828125 22.703125 48.234375 14.96875 
Q 45.65625 7.234375 40.5 3 
Q 35.359375 -1.21875 27.484375 -1.21875 
Q 17.140625 -1.21875 11.234375 6.203125 
Q 4.15625 15.140625 4.15625 35.296875 
z
M 13.1875 35.296875 
Q 13.1875 17.671875 17.3125 11.828125 
Q 21.4375 6 27.484375 6 
Q 33.546875 6 37.671875 11.859375 
Q 41.796875 17.71875 41.796875 35.296875 
Q 41.796875 52.984375 37.671875 58.78125 
Q 33.546875 64.59375 27.390625 64.59375 
Q 21.34375 64.59375 17.71875 59.46875 
Q 13.1875 52.9375 13.1875 35.296875 
z
" id="ArialMT-48"/>
      </defs>
      <g style="fill:#262626;" transform="translate(82.975271 269.373594)scale(0.11 -0.11)">
       <use xlink:href="#ArialMT-8722"/>
       <use x="58.398438" xlink:href="#ArialMT-49"/>
       <use x="114.013672" xlink:href="#ArialMT-48"/>
      </g>
     </g>
    </g>
    <g id="xtick_2">
     <g id="line2d_2">
      <path clip-path="url(#p4b99ad780e)" d="M 161.83827 252 
L 161.83827 34.56 
" style="fill:none;stroke:#ffffff;stroke-linecap:round;"/>
     </g>
     <g id="text_2">
      <!-- −5 -->
      <defs>
       <path d="M 4.15625 18.75 
L 13.375 19.53125 
Q 14.40625 12.796875 18.140625 9.390625 
Q 21.875 6 27.15625 6 
Q 33.5 6 37.890625 10.78125 
Q 42.28125 15.578125 42.28125 23.484375 
Q 42.28125 31 38.0625 35.34375 
Q 33.84375 39.703125 27 39.703125 
Q 22.75 39.703125 19.328125 37.765625 
Q 15.921875 35.84375 13.96875 32.765625 
L 5.71875 33.84375 
L 12.640625 70.609375 
L 48.25 70.609375 
L 48.25 62.203125 
L 19.671875 62.203125 
L 15.828125 42.96875 
Q 22.265625 47.46875 29.34375 47.46875 
Q 38.71875 47.46875 45.15625 40.96875 
Q 51.609375 34.46875 51.609375 24.265625 
Q 51.609375 14.546875 45.953125 7.46875 
Q 39.0625 -1.21875 27.15625 -1.21875 
Q 17.390625 -1.21875 11.203125 4.25 
Q 5.03125 9.71875 4.15625 18.75 
z
" id="ArialMT-53"/>
      </defs>
      <g style="fill:#262626;" transform="translate(155.567411 269.373594)scale(0.11 -0.11)">
       <use xlink:href="#ArialMT-8722"/>
       <use x="58.398438" xlink:href="#ArialMT-53"/>
      </g>
     </g>
    </g>
    <g id="xtick_3">
     <g id="line2d_3">
      <path clip-path="url(#p4b99ad780e)" d="M 231.371894 252 
L 231.371894 34.56 
" style="fill:none;stroke:#ffffff;stroke-linecap:round;"/>
     </g>
     <g id="text_3">
      <!-- 0 -->
      <g style="fill:#262626;" transform="translate(228.313378 269.373594)scale(0.11 -0.11)">
       <use xlink:href="#ArialMT-48"/>
      </g>
     </g>
    </g>
    <g id="xtick_4">
     <g id="line2d_4">
      <path clip-path="url(#p4b99ad780e)" d="M 300.905517 252 
L 300.905517 34.56 
" style="fill:none;stroke:#ffffff;stroke-linecap:round;"/>
     </g>
     <g id="text_4">
      <!-- 5 -->
      <g style="fill:#262626;" transform="translate(297.847002 269.373594)scale(0.11 -0.11)">
       <use xlink:href="#ArialMT-53"/>
      </g>
     </g>
    </g>
    <g id="xtick_5">
     <g id="line2d_5">
      <path clip-path="url(#p4b99ad780e)" d="M 370.439141 252 
L 370.439141 34.56 
" style="fill:none;stroke:#ffffff;stroke-linecap:round;"/>
     </g>
     <g id="text_5">
      <!-- 10 -->
      <g style="fill:#262626;" transform="translate(364.32211 269.373594)scale(0.11 -0.11)">
       <use xlink:href="#ArialMT-49"/>
       <use x="55.615234" xlink:href="#ArialMT-48"/>
      </g>
     </g>
    </g>
    <g id="text_6">
     <!-- ic50_mode -->
     <defs>
      <path d="M 6.640625 61.46875 
L 6.640625 71.578125 
L 15.4375 71.578125 
L 15.4375 61.46875 
z
M 6.640625 0 
L 6.640625 51.859375 
L 15.4375 51.859375 
L 15.4375 0 
z
" id="ArialMT-105"/>
      <path d="M 40.4375 19 
L 49.078125 17.875 
Q 47.65625 8.9375 41.8125 3.875 
Q 35.984375 -1.171875 27.484375 -1.171875 
Q 16.84375 -1.171875 10.375 5.78125 
Q 3.90625 12.75 3.90625 25.734375 
Q 3.90625 34.125 6.6875 40.421875 
Q 9.46875 46.734375 15.15625 49.875 
Q 20.84375 53.03125 27.546875 53.03125 
Q 35.984375 53.03125 41.359375 48.75 
Q 46.734375 44.484375 48.25 36.625 
L 39.703125 35.296875 
Q 38.484375 40.53125 35.375 43.15625 
Q 32.28125 45.796875 27.875 45.796875 
Q 21.234375 45.796875 17.078125 41.03125 
Q 12.9375 36.28125 12.9375 25.984375 
Q 12.9375 15.53125 16.9375 10.796875 
Q 20.953125 6.0625 27.390625 6.0625 
Q 32.5625 6.0625 36.03125 9.234375 
Q 39.5 12.40625 40.4375 19 
z
" id="ArialMT-99"/>
      <path d="M -1.515625 -19.875 
L -1.515625 -13.53125 
L 56.734375 -13.53125 
L 56.734375 -19.875 
z
" id="ArialMT-95"/>
      <path d="M 6.59375 0 
L 6.59375 51.859375 
L 14.453125 51.859375 
L 14.453125 44.578125 
Q 16.890625 48.390625 20.9375 50.703125 
Q 25 53.03125 30.171875 53.03125 
Q 35.9375 53.03125 39.625 50.640625 
Q 43.3125 48.25 44.828125 43.953125 
Q 50.984375 53.03125 60.84375 53.03125 
Q 68.5625 53.03125 72.703125 48.75 
Q 76.859375 44.484375 76.859375 35.59375 
L 76.859375 0 
L 68.109375 0 
L 68.109375 32.671875 
Q 68.109375 37.9375 67.25 40.25 
Q 66.40625 42.578125 64.15625 43.984375 
Q 61.921875 45.40625 58.890625 45.40625 
Q 53.421875 45.40625 49.796875 41.765625 
Q 46.1875 38.140625 46.1875 30.125 
L 46.1875 0 
L 37.40625 0 
L 37.40625 33.6875 
Q 37.40625 39.546875 35.25 42.46875 
Q 33.109375 45.40625 28.21875 45.40625 
Q 24.515625 45.40625 21.359375 43.453125 
Q 18.21875 41.5 16.796875 37.734375 
Q 15.375 33.984375 15.375 26.90625 
L 15.375 0 
z
" id="ArialMT-109"/>
      <path d="M 3.328125 25.921875 
Q 3.328125 40.328125 11.328125 47.265625 
Q 18.015625 53.03125 27.640625 53.03125 
Q 38.328125 53.03125 45.109375 46.015625 
Q 51.90625 39.015625 51.90625 26.65625 
Q 51.90625 16.65625 48.90625 10.90625 
Q 45.90625 5.171875 40.15625 2 
Q 34.421875 -1.171875 27.640625 -1.171875 
Q 16.75 -1.171875 10.03125 5.8125 
Q 3.328125 12.796875 3.328125 25.921875 
z
M 12.359375 25.921875 
Q 12.359375 15.96875 16.703125 11.015625 
Q 21.046875 6.0625 27.640625 6.0625 
Q 34.1875 6.0625 38.53125 11.03125 
Q 42.875 16.015625 42.875 26.21875 
Q 42.875 35.84375 38.5 40.796875 
Q 34.125 45.75 27.640625 45.75 
Q 21.046875 45.75 16.703125 40.8125 
Q 12.359375 35.890625 12.359375 25.921875 
z
" id="ArialMT-111"/>
      <path d="M 40.234375 0 
L 40.234375 6.546875 
Q 35.296875 -1.171875 25.734375 -1.171875 
Q 19.53125 -1.171875 14.328125 2.25 
Q 9.125 5.671875 6.265625 11.796875 
Q 3.421875 17.921875 3.421875 25.875 
Q 3.421875 33.640625 6 39.96875 
Q 8.59375 46.296875 13.765625 49.65625 
Q 18.953125 53.03125 25.34375 53.03125 
Q 30.03125 53.03125 33.6875 51.046875 
Q 37.359375 49.078125 39.65625 45.90625 
L 39.65625 71.578125 
L 48.390625 71.578125 
L 48.390625 0 
z
M 12.453125 25.875 
Q 12.453125 15.921875 16.640625 10.984375 
Q 20.84375 6.0625 26.5625 6.0625 
Q 32.328125 6.0625 36.34375 10.765625 
Q 40.375 15.484375 40.375 25.140625 
Q 40.375 35.796875 36.265625 40.765625 
Q 32.171875 45.75 26.171875 45.75 
Q 20.3125 45.75 16.375 40.96875 
Q 12.453125 36.1875 12.453125 25.875 
z
" id="ArialMT-100"/>
      <path d="M 42.09375 16.703125 
L 51.171875 15.578125 
Q 49.03125 7.625 43.21875 3.21875 
Q 37.40625 -1.171875 28.375 -1.171875 
Q 17 -1.171875 10.328125 5.828125 
Q 3.65625 12.84375 3.65625 25.484375 
Q 3.65625 38.578125 10.390625 45.796875 
Q 17.140625 53.03125 27.875 53.03125 
Q 38.28125 53.03125 44.875 45.953125 
Q 51.46875 38.875 51.46875 26.03125 
Q 51.46875 25.25 51.421875 23.6875 
L 12.75 23.6875 
Q 13.234375 15.140625 17.578125 10.59375 
Q 21.921875 6.0625 28.421875 6.0625 
Q 33.25 6.0625 36.671875 8.59375 
Q 40.09375 11.140625 42.09375 16.703125 
z
M 13.234375 30.90625 
L 42.1875 30.90625 
Q 41.609375 37.453125 38.875 40.71875 
Q 34.671875 45.796875 27.984375 45.796875 
Q 21.921875 45.796875 17.796875 41.75 
Q 13.671875 37.703125 13.234375 30.90625 
z
" id="ArialMT-101"/>
     </defs>
     <g style="fill:#262626;" transform="translate(184.712109 286.341094)scale(0.15 -0.15)">
      <use xlink:href="#ArialMT-105"/>
      <use x="22.216797" xlink:href="#ArialMT-99"/>
      <use x="72.216797" xlink:href="#ArialMT-53"/>
      <use x="127.832031" xlink:href="#ArialMT-48"/>
      <use x="183.447266" xlink:href="#ArialMT-95"/>
      <use x="239.0625" xlink:href="#ArialMT-109"/>
      <use x="322.363281" xlink:href="#ArialMT-111"/>
      <use x="377.978516" xlink:href="#ArialMT-100"/>
      <use x="433.59375" xlink:href="#ArialMT-101"/>
     </g>
    </g>
   </g>
   <g id="matplotlib.axis_2">
    <g id="ytick_1">
     <g id="line2d_6">
      <path clip-path="url(#p4b99ad780e)" d="M 54 250.911282 
L 388.8 250.911282 
" style="fill:none;stroke:#ffffff;stroke-linecap:round;"/>
     </g>
     <g id="text_7">
      <!-- −0.1 -->
      <defs>
       <path d="M 9.078125 0 
L 9.078125 10.015625 
L 19.09375 10.015625 
L 19.09375 0 
z
" id="ArialMT-46"/>
      </defs>
      <g style="fill:#262626;" transform="translate(22.785312 254.848079)scale(0.11 -0.11)">
       <use xlink:href="#ArialMT-8722"/>
       <use x="58.398438" xlink:href="#ArialMT-48"/>
       <use x="114.013672" xlink:href="#ArialMT-46"/>
       <use x="141.796875" xlink:href="#ArialMT-49"/>
      </g>
     </g>
    </g>
    <g id="ytick_2">
     <g id="line2d_7">
      <path clip-path="url(#p4b99ad780e)" d="M 54 220.974021 
L 388.8 220.974021 
" style="fill:none;stroke:#ffffff;stroke-linecap:round;"/>
     </g>
     <g id="text_8">
      <!-- 0.0 -->
      <g style="fill:#262626;" transform="translate(29.21 224.910818)scale(0.11 -0.11)">
       <use xlink:href="#ArialMT-48"/>
       <use x="55.615234" xlink:href="#ArialMT-46"/>
       <use x="83.398438" xlink:href="#ArialMT-48"/>
      </g>
     </g>
    </g>
    <g id="ytick_3">
     <g id="line2d_8">
      <path clip-path="url(#p4b99ad780e)" d="M 54 191.036761 
L 388.8 191.036761 
" style="fill:none;stroke:#ffffff;stroke-linecap:round;"/>
     </g>
     <g id="text_9">
      <!-- 0.1 -->
      <g style="fill:#262626;" transform="translate(29.21 194.973558)scale(0.11 -0.11)">
       <use xlink:href="#ArialMT-48"/>
       <use x="55.615234" xlink:href="#ArialMT-46"/>
       <use x="83.398438" xlink:href="#ArialMT-49"/>
      </g>
     </g>
    </g>
    <g id="ytick_4">
     <g id="line2d_9">
      <path clip-path="url(#p4b99ad780e)" d="M 54 161.0995 
L 388.8 161.0995 
" style="fill:none;stroke:#ffffff;stroke-linecap:round;"/>
     </g>
     <g id="text_10">
      <!-- 0.2 -->
      <defs>
       <path d="M 50.34375 8.453125 
L 50.34375 0 
L 3.03125 0 
Q 2.9375 3.171875 4.046875 6.109375 
Q 5.859375 10.9375 9.828125 15.625 
Q 13.8125 20.3125 21.34375 26.46875 
Q 33.015625 36.03125 37.109375 41.625 
Q 41.21875 47.21875 41.21875 52.203125 
Q 41.21875 57.421875 37.46875 61 
Q 33.734375 64.59375 27.734375 64.59375 
Q 21.390625 64.59375 17.578125 60.78125 
Q 13.765625 56.984375 13.71875 50.25 
L 4.6875 51.171875 
Q 5.609375 61.28125 11.65625 66.578125 
Q 17.71875 71.875 27.9375 71.875 
Q 38.234375 71.875 44.234375 66.15625 
Q 50.25 60.453125 50.25 52 
Q 50.25 47.703125 48.484375 43.546875 
Q 46.734375 39.40625 42.65625 34.8125 
Q 38.578125 30.21875 29.109375 22.21875 
Q 21.1875 15.578125 18.9375 13.203125 
Q 16.703125 10.84375 15.234375 8.453125 
z
" id="ArialMT-50"/>
      </defs>
      <g style="fill:#262626;" transform="translate(29.21 165.036297)scale(0.11 -0.11)">
       <use xlink:href="#ArialMT-48"/>
       <use x="55.615234" xlink:href="#ArialMT-46"/>
       <use x="83.398438" xlink:href="#ArialMT-50"/>
      </g>
     </g>
    </g>
    <g id="ytick_5">
     <g id="line2d_10">
      <path clip-path="url(#p4b99ad780e)" d="M 54 131.16224 
L 388.8 131.16224 
" style="fill:none;stroke:#ffffff;stroke-linecap:round;"/>
     </g>
     <g id="text_11">
      <!-- 0.3 -->
      <defs>
       <path d="M 4.203125 18.890625 
L 12.984375 20.0625 
Q 14.5 12.59375 18.140625 9.296875 
Q 21.78125 6 27 6 
Q 33.203125 6 37.46875 10.296875 
Q 41.75 14.59375 41.75 20.953125 
Q 41.75 27 37.796875 30.921875 
Q 33.84375 34.859375 27.734375 34.859375 
Q 25.25 34.859375 21.53125 33.890625 
L 22.515625 41.609375 
Q 23.390625 41.5 23.921875 41.5 
Q 29.546875 41.5 34.03125 44.421875 
Q 38.53125 47.359375 38.53125 53.46875 
Q 38.53125 58.296875 35.25 61.46875 
Q 31.984375 64.65625 26.8125 64.65625 
Q 21.6875 64.65625 18.265625 61.421875 
Q 14.84375 58.203125 13.875 51.765625 
L 5.078125 53.328125 
Q 6.6875 62.15625 12.390625 67.015625 
Q 18.109375 71.875 26.609375 71.875 
Q 32.46875 71.875 37.390625 69.359375 
Q 42.328125 66.84375 44.9375 62.5 
Q 47.5625 58.15625 47.5625 53.265625 
Q 47.5625 48.640625 45.0625 44.828125 
Q 42.578125 41.015625 37.703125 38.765625 
Q 44.046875 37.3125 47.5625 32.6875 
Q 51.078125 28.078125 51.078125 21.140625 
Q 51.078125 11.765625 44.234375 5.25 
Q 37.40625 -1.265625 26.953125 -1.265625 
Q 17.53125 -1.265625 11.296875 4.34375 
Q 5.078125 9.96875 4.203125 18.890625 
z
" id="ArialMT-51"/>
      </defs>
      <g style="fill:#262626;" transform="translate(29.21 135.099037)scale(0.11 -0.11)">
       <use xlink:href="#ArialMT-48"/>
       <use x="55.615234" xlink:href="#ArialMT-46"/>
       <use x="83.398438" xlink:href="#ArialMT-51"/>
      </g>
     </g>
    </g>
    <g id="ytick_6">
     <g id="line2d_11">
      <path clip-path="url(#p4b99ad780e)" d="M 54 101.224979 
L 388.8 101.224979 
" style="fill:none;stroke:#ffffff;stroke-linecap:round;"/>
     </g>
     <g id="text_12">
      <!-- 0.4 -->
      <defs>
       <path d="M 32.328125 0 
L 32.328125 17.140625 
L 1.265625 17.140625 
L 1.265625 25.203125 
L 33.9375 71.578125 
L 41.109375 71.578125 
L 41.109375 25.203125 
L 50.78125 25.203125 
L 50.78125 17.140625 
L 41.109375 17.140625 
L 41.109375 0 
z
M 32.328125 25.203125 
L 32.328125 57.46875 
L 9.90625 25.203125 
z
" id="ArialMT-52"/>
      </defs>
      <g style="fill:#262626;" transform="translate(29.21 105.161776)scale(0.11 -0.11)">
       <use xlink:href="#ArialMT-48"/>
       <use x="55.615234" xlink:href="#ArialMT-46"/>
       <use x="83.398438" xlink:href="#ArialMT-52"/>
      </g>
     </g>
    </g>
    <g id="ytick_7">
     <g id="line2d_12">
      <path clip-path="url(#p4b99ad780e)" d="M 54 71.287719 
L 388.8 71.287719 
" style="fill:none;stroke:#ffffff;stroke-linecap:round;"/>
     </g>
     <g id="text_13">
      <!-- 0.5 -->
      <g style="fill:#262626;" transform="translate(29.21 75.224516)scale(0.11 -0.11)">
       <use xlink:href="#ArialMT-48"/>
       <use x="55.615234" xlink:href="#ArialMT-46"/>
       <use x="83.398438" xlink:href="#ArialMT-53"/>
      </g>
     </g>
    </g>
    <g id="ytick_8">
     <g id="line2d_13">
      <path clip-path="url(#p4b99ad780e)" d="M 54 41.350458 
L 388.8 41.350458 
" style="fill:none;stroke:#ffffff;stroke-linecap:round;"/>
     </g>
     <g id="text_14">
      <!-- 0.6 -->
      <defs>
       <path d="M 49.75 54.046875 
L 41.015625 53.375 
Q 39.84375 58.546875 37.703125 60.890625 
Q 34.125 64.65625 28.90625 64.65625 
Q 24.703125 64.65625 21.53125 62.3125 
Q 17.390625 59.28125 14.984375 53.46875 
Q 12.59375 47.65625 12.5 36.921875 
Q 15.671875 41.75 20.265625 44.09375 
Q 24.859375 46.4375 29.890625 46.4375 
Q 38.671875 46.4375 44.84375 39.96875 
Q 51.03125 33.5 51.03125 23.25 
Q 51.03125 16.5 48.125 10.71875 
Q 45.21875 4.9375 40.140625 1.859375 
Q 35.0625 -1.21875 28.609375 -1.21875 
Q 17.625 -1.21875 10.6875 6.859375 
Q 3.765625 14.9375 3.765625 33.5 
Q 3.765625 54.25 11.421875 63.671875 
Q 18.109375 71.875 29.4375 71.875 
Q 37.890625 71.875 43.28125 67.140625 
Q 48.6875 62.40625 49.75 54.046875 
z
M 13.875 23.1875 
Q 13.875 18.65625 15.796875 14.5 
Q 17.71875 10.359375 21.1875 8.171875 
Q 24.65625 6 28.46875 6 
Q 34.03125 6 38.03125 10.484375 
Q 42.046875 14.984375 42.046875 22.703125 
Q 42.046875 30.125 38.078125 34.390625 
Q 34.125 38.671875 28.125 38.671875 
Q 22.171875 38.671875 18.015625 34.390625 
Q 13.875 30.125 13.875 23.1875 
z
" id="ArialMT-54"/>
      </defs>
      <g style="fill:#262626;" transform="translate(29.21 45.287255)scale(0.11 -0.11)">
       <use xlink:href="#ArialMT-48"/>
       <use x="55.615234" xlink:href="#ArialMT-46"/>
       <use x="83.398438" xlink:href="#ArialMT-54"/>
      </g>
     </g>
    </g>
    <g id="text_15">
     <!-- IS -->
     <defs>
      <path d="M 9.328125 0 
L 9.328125 71.578125 
L 18.796875 71.578125 
L 18.796875 0 
z
" id="ArialMT-73"/>
      <path d="M 4.5 23 
L 13.421875 23.78125 
Q 14.0625 18.40625 16.375 14.96875 
Q 18.703125 11.53125 23.578125 9.40625 
Q 28.46875 7.28125 34.578125 7.28125 
Q 39.984375 7.28125 44.140625 8.890625 
Q 48.296875 10.5 50.3125 13.296875 
Q 52.34375 16.109375 52.34375 19.4375 
Q 52.34375 22.796875 50.390625 25.3125 
Q 48.4375 27.828125 43.953125 29.546875 
Q 41.0625 30.671875 31.203125 33.03125 
Q 21.34375 35.40625 17.390625 37.5 
Q 12.25 40.1875 9.734375 44.15625 
Q 7.234375 48.140625 7.234375 53.078125 
Q 7.234375 58.5 10.296875 63.203125 
Q 13.375 67.921875 19.28125 70.359375 
Q 25.203125 72.796875 32.421875 72.796875 
Q 40.375 72.796875 46.453125 70.234375 
Q 52.546875 67.671875 55.8125 62.6875 
Q 59.078125 57.71875 59.328125 51.421875 
L 50.25 50.734375 
Q 49.515625 57.515625 45.28125 60.984375 
Q 41.0625 64.453125 32.8125 64.453125 
Q 24.21875 64.453125 20.28125 61.296875 
Q 16.359375 58.15625 16.359375 53.71875 
Q 16.359375 49.859375 19.140625 47.359375 
Q 21.875 44.875 33.421875 42.265625 
Q 44.96875 39.65625 49.265625 37.703125 
Q 55.515625 34.8125 58.484375 30.390625 
Q 61.46875 25.984375 61.46875 20.21875 
Q 61.46875 14.5 58.203125 9.4375 
Q 54.9375 4.390625 48.796875 1.578125 
Q 42.671875 -1.21875 35.015625 -1.21875 
Q 25.296875 -1.21875 18.71875 1.609375 
Q 12.15625 4.4375 8.421875 10.125 
Q 4.6875 15.828125 4.5 23 
z
" id="ArialMT-83"/>
     </defs>
     <g style="fill:#262626;" transform="translate(15.804063 150.366328)rotate(-90)scale(0.15 -0.15)">
      <use xlink:href="#ArialMT-73"/>
      <use x="27.783203" xlink:href="#ArialMT-83"/>
     </g>
    </g>
   </g>
   <g id="PathCollection_1">
    <defs>
     <path d="M 0 3 
C 0.795609 3 1.55874 2.683901 2.12132 2.12132 
C 2.683901 1.55874 3 0.795609 3 0 
C 3 -0.795609 2.683901 -1.55874 2.12132 -2.12132 
C 1.55874 -2.683901 0.795609 -3 0 -3 
C -0.795609 -3 -1.55874 -2.683901 -2.12132 -2.12132 
C -2.683901 -1.55874 -3 -0.795609 -3 0 
C -3 0.795609 -2.683901 1.55874 -2.12132 2.12132 
C -1.55874 2.683901 -0.795609 3 0 3 
z
" id="mde39bded4a" style="stroke:#ffffff;stroke-opacity:0.3;stroke-width:0.75;"/>
    </defs>
    <g clip-path="url(#p4b99ad780e)">
     <use style="fill:#4c72b0;fill-opacity:0.3;stroke:#ffffff;stroke-opacity:0.3;stroke-width:0.75;" x="271.628556" xlink:href="#mde39bded4a" y="170.99341"/>
     <use style="fill:#4c72b0;fill-opacity:0.3;stroke:#ffffff;stroke-opacity:0.3;stroke-width:0.75;" x="249.333485" xlink:href="#mde39bded4a" y="151.854582"/>
     <use style="fill:#4c72b0;fill-opacity:0.3;stroke:#ffffff;stroke-opacity:0.3;stroke-width:0.75;" x="305.345312" xlink:href="#mde39bded4a" y="169.742943"/>
     <use style="fill:#4c72b0;fill-opacity:0.3;stroke:#ffffff;stroke-opacity:0.3;stroke-width:0.75;" x="268.255246" xlink:href="#mde39bded4a" y="159.605881"/>
     <use style="fill:#4c72b0;fill-opacity:0.3;stroke:#ffffff;stroke-opacity:0.3;stroke-width:0.75;" x="211.419022" xlink:href="#mde39bded4a" y="132.132248"/>
     <use style="fill:#4c72b0;fill-opacity:0.3;stroke:#ffffff;stroke-opacity:0.3;stroke-width:0.75;" x="213.92889" xlink:href="#mde39bded4a" y="142.089297"/>
     <use style="fill:#4c72b0;fill-opacity:0.3;stroke:#ffffff;stroke-opacity:0.3;stroke-width:0.75;" x="308.452808" xlink:href="#mde39bded4a" y="198.523303"/>
     <use style="fill:#4c72b0;fill-opacity:0.3;stroke:#ffffff;stroke-opacity:0.3;stroke-width:0.75;" x="249.32931" xlink:href="#mde39bded4a" y="185.905136"/>
     <use style="fill:#4c72b0;fill-opacity:0.3;stroke:#ffffff;stroke-opacity:0.3;stroke-width:0.75;" x="245.999278" xlink:href="#mde39bded4a" y="192.859386"/>
     <use style="fill:#4c72b0;fill-opacity:0.3;stroke:#ffffff;stroke-opacity:0.3;stroke-width:0.75;" x="276.777562" xlink:href="#mde39bded4a" y="190.477917"/>
     <use style="fill:#4c72b0;fill-opacity:0.3;stroke:#ffffff;stroke-opacity:0.3;stroke-width:0.75;" x="274.2786" xlink:href="#mde39bded4a" y="191.981205"/>
     <use style="fill:#4c72b0;fill-opacity:0.3;stroke:#ffffff;stroke-opacity:0.3;stroke-width:0.75;" x="266.640744" xlink:href="#mde39bded4a" y="180.557067"/>
     <use style="fill:#4c72b0;fill-opacity:0.3;stroke:#ffffff;stroke-opacity:0.3;stroke-width:0.75;" x="239.509786" xlink:href="#mde39bded4a" y="163.303378"/>
     <use style="fill:#4c72b0;fill-opacity:0.3;stroke:#ffffff;stroke-opacity:0.3;stroke-width:0.75;" x="254.531123" xlink:href="#mde39bded4a" y="132.409769"/>
     <use style="fill:#4c72b0;fill-opacity:0.3;stroke:#ffffff;stroke-opacity:0.3;stroke-width:0.75;" x="285.497807" xlink:href="#mde39bded4a" y="193.300769"/>
     <use style="fill:#4c72b0;fill-opacity:0.3;stroke:#ffffff;stroke-opacity:0.3;stroke-width:0.75;" x="281.29524" xlink:href="#mde39bded4a" y="203.866441"/>
     <use style="fill:#4c72b0;fill-opacity:0.3;stroke:#ffffff;stroke-opacity:0.3;stroke-width:0.75;" x="242.98259" xlink:href="#mde39bded4a" y="183.593506"/>
     <use style="fill:#4c72b0;fill-opacity:0.3;stroke:#ffffff;stroke-opacity:0.3;stroke-width:0.75;" x="286.696663" xlink:href="#mde39bded4a" y="160.421653"/>
     <use style="fill:#4c72b0;fill-opacity:0.3;stroke:#ffffff;stroke-opacity:0.3;stroke-width:0.75;" x="182.686256" xlink:href="#mde39bded4a" y="144.466033"/>
     <use style="fill:#4c72b0;fill-opacity:0.3;stroke:#ffffff;stroke-opacity:0.3;stroke-width:0.75;" x="225.863499" xlink:href="#mde39bded4a" y="191.813767"/>
     <use style="fill:#4c72b0;fill-opacity:0.3;stroke:#ffffff;stroke-opacity:0.3;stroke-width:0.75;" x="270.317132" xlink:href="#mde39bded4a" y="193.085228"/>
     <use style="fill:#4c72b0;fill-opacity:0.3;stroke:#ffffff;stroke-opacity:0.3;stroke-width:0.75;" x="303.290386" xlink:href="#mde39bded4a" y="210.444587"/>
     <use style="fill:#4c72b0;fill-opacity:0.3;stroke:#ffffff;stroke-opacity:0.3;stroke-width:0.75;" x="172.738356" xlink:href="#mde39bded4a" y="178.473011"/>
     <use style="fill:#4c72b0;fill-opacity:0.3;stroke:#ffffff;stroke-opacity:0.3;stroke-width:0.75;" x="168.416991" xlink:href="#mde39bded4a" y="204.654358"/>
     <use style="fill:#4c72b0;fill-opacity:0.3;stroke:#ffffff;stroke-opacity:0.3;stroke-width:0.75;" x="199.736505" xlink:href="#mde39bded4a" y="122.970563"/>
     <use style="fill:#4c72b0;fill-opacity:0.3;stroke:#ffffff;stroke-opacity:0.3;stroke-width:0.75;" x="303.441071" xlink:href="#mde39bded4a" y="199.74863"/>
     <use style="fill:#4c72b0;fill-opacity:0.3;stroke:#ffffff;stroke-opacity:0.3;stroke-width:0.75;" x="236.069746" xlink:href="#mde39bded4a" y="159.757369"/>
     <use style="fill:#4c72b0;fill-opacity:0.3;stroke:#ffffff;stroke-opacity:0.3;stroke-width:0.75;" x="319.881204" xlink:href="#mde39bded4a" y="199.776037"/>
     <use style="fill:#4c72b0;fill-opacity:0.3;stroke:#ffffff;stroke-opacity:0.3;stroke-width:0.75;" x="253.178588" xlink:href="#mde39bded4a" y="164.00316"/>
     <use style="fill:#4c72b0;fill-opacity:0.3;stroke:#ffffff;stroke-opacity:0.3;stroke-width:0.75;" x="285.18098" xlink:href="#mde39bded4a" y="175.77159"/>
     <use style="fill:#4c72b0;fill-opacity:0.3;stroke:#ffffff;stroke-opacity:0.3;stroke-width:0.75;" x="262.347963" xlink:href="#mde39bded4a" y="152.508266"/>
     <use style="fill:#4c72b0;fill-opacity:0.3;stroke:#ffffff;stroke-opacity:0.3;stroke-width:0.75;" x="315.882617" xlink:href="#mde39bded4a" y="192.527154"/>
     <use style="fill:#4c72b0;fill-opacity:0.3;stroke:#ffffff;stroke-opacity:0.3;stroke-width:0.75;" x="118.780976" xlink:href="#mde39bded4a" y="187.696046"/>
     <use style="fill:#4c72b0;fill-opacity:0.3;stroke:#ffffff;stroke-opacity:0.3;stroke-width:0.75;" x="322.689714" xlink:href="#mde39bded4a" y="201.996323"/>
     <use style="fill:#4c72b0;fill-opacity:0.3;stroke:#ffffff;stroke-opacity:0.3;stroke-width:0.75;" x="287.438516" xlink:href="#mde39bded4a" y="171.240451"/>
     <use style="fill:#4c72b0;fill-opacity:0.3;stroke:#ffffff;stroke-opacity:0.3;stroke-width:0.75;" x="193.805242" xlink:href="#mde39bded4a" y="185.4047"/>
     <use style="fill:#4c72b0;fill-opacity:0.3;stroke:#ffffff;stroke-opacity:0.3;stroke-width:0.75;" x="226.608928" xlink:href="#mde39bded4a" y="161.783434"/>
     <use style="fill:#4c72b0;fill-opacity:0.3;stroke:#ffffff;stroke-opacity:0.3;stroke-width:0.75;" x="268.553241" xlink:href="#mde39bded4a" y="185.389721"/>
     <use style="fill:#4c72b0;fill-opacity:0.3;stroke:#ffffff;stroke-opacity:0.3;stroke-width:0.75;" x="298.089585" xlink:href="#mde39bded4a" y="149.093407"/>
     <use style="fill:#4c72b0;fill-opacity:0.3;stroke:#ffffff;stroke-opacity:0.3;stroke-width:0.75;" x="194.265222" xlink:href="#mde39bded4a" y="150.661236"/>
     <use style="fill:#4c72b0;fill-opacity:0.3;stroke:#ffffff;stroke-opacity:0.3;stroke-width:0.75;" x="157.47132" xlink:href="#mde39bded4a" y="146.933517"/>
     <use style="fill:#4c72b0;fill-opacity:0.3;stroke:#ffffff;stroke-opacity:0.3;stroke-width:0.75;" x="261.516563" xlink:href="#mde39bded4a" y="187.175168"/>
     <use style="fill:#4c72b0;fill-opacity:0.3;stroke:#ffffff;stroke-opacity:0.3;stroke-width:0.75;" x="257.624851" xlink:href="#mde39bded4a" y="172.313486"/>
     <use style="fill:#4c72b0;fill-opacity:0.3;stroke:#ffffff;stroke-opacity:0.3;stroke-width:0.75;" x="271.714122" xlink:href="#mde39bded4a" y="193.722063"/>
     <use style="fill:#4c72b0;fill-opacity:0.3;stroke:#ffffff;stroke-opacity:0.3;stroke-width:0.75;" x="278.06919" xlink:href="#mde39bded4a" y="197.186947"/>
     <use style="fill:#4c72b0;fill-opacity:0.3;stroke:#ffffff;stroke-opacity:0.3;stroke-width:0.75;" x="265.285299" xlink:href="#mde39bded4a" y="182.424861"/>
     <use style="fill:#4c72b0;fill-opacity:0.3;stroke:#ffffff;stroke-opacity:0.3;stroke-width:0.75;" x="276.065983" xlink:href="#mde39bded4a" y="214.912135"/>
     <use style="fill:#4c72b0;fill-opacity:0.3;stroke:#ffffff;stroke-opacity:0.3;stroke-width:0.75;" x="170.129039" xlink:href="#mde39bded4a" y="140.667793"/>
     <use style="fill:#4c72b0;fill-opacity:0.3;stroke:#ffffff;stroke-opacity:0.3;stroke-width:0.75;" x="175.060342" xlink:href="#mde39bded4a" y="206.665526"/>
     <use style="fill:#4c72b0;fill-opacity:0.3;stroke:#ffffff;stroke-opacity:0.3;stroke-width:0.75;" x="265.148435" xlink:href="#mde39bded4a" y="167.802993"/>
     <use style="fill:#4c72b0;fill-opacity:0.3;stroke:#ffffff;stroke-opacity:0.3;stroke-width:0.75;" x="274.710031" xlink:href="#mde39bded4a" y="178.363611"/>
     <use style="fill:#4c72b0;fill-opacity:0.3;stroke:#ffffff;stroke-opacity:0.3;stroke-width:0.75;" x="238.905971" xlink:href="#mde39bded4a" y="85.096022"/>
     <use style="fill:#4c72b0;fill-opacity:0.3;stroke:#ffffff;stroke-opacity:0.3;stroke-width:0.75;" x="281.232944" xlink:href="#mde39bded4a" y="163.524762"/>
     <use style="fill:#4c72b0;fill-opacity:0.3;stroke:#ffffff;stroke-opacity:0.3;stroke-width:0.75;" x="232.194382" xlink:href="#mde39bded4a" y="71.647865"/>
     <use style="fill:#4c72b0;fill-opacity:0.3;stroke:#ffffff;stroke-opacity:0.3;stroke-width:0.75;" x="201.350719" xlink:href="#mde39bded4a" y="91.443661"/>
     <use style="fill:#4c72b0;fill-opacity:0.3;stroke:#ffffff;stroke-opacity:0.3;stroke-width:0.75;" x="255.134206" xlink:href="#mde39bded4a" y="93.879984"/>
     <use style="fill:#4c72b0;fill-opacity:0.3;stroke:#ffffff;stroke-opacity:0.3;stroke-width:0.75;" x="288.234721" xlink:href="#mde39bded4a" y="117.41568"/>
     <use style="fill:#4c72b0;fill-opacity:0.3;stroke:#ffffff;stroke-opacity:0.3;stroke-width:0.75;" x="121.244554" xlink:href="#mde39bded4a" y="180.40434"/>
     <use style="fill:#4c72b0;fill-opacity:0.3;stroke:#ffffff;stroke-opacity:0.3;stroke-width:0.75;" x="303.599616" xlink:href="#mde39bded4a" y="177.173422"/>
     <use style="fill:#4c72b0;fill-opacity:0.3;stroke:#ffffff;stroke-opacity:0.3;stroke-width:0.75;" x="181.315718" xlink:href="#mde39bded4a" y="175.282748"/>
     <use style="fill:#4c72b0;fill-opacity:0.3;stroke:#ffffff;stroke-opacity:0.3;stroke-width:0.75;" x="274.918223" xlink:href="#mde39bded4a" y="181.513407"/>
     <use style="fill:#4c72b0;fill-opacity:0.3;stroke:#ffffff;stroke-opacity:0.3;stroke-width:0.75;" x="275.721173" xlink:href="#mde39bded4a" y="176.873057"/>
     <use style="fill:#4c72b0;fill-opacity:0.3;stroke:#ffffff;stroke-opacity:0.3;stroke-width:0.75;" x="146.169517" xlink:href="#mde39bded4a" y="177.318031"/>
     <use style="fill:#4c72b0;fill-opacity:0.3;stroke:#ffffff;stroke-opacity:0.3;stroke-width:0.75;" x="184.925896" xlink:href="#mde39bded4a" y="106.32809"/>
     <use style="fill:#4c72b0;fill-opacity:0.3;stroke:#ffffff;stroke-opacity:0.3;stroke-width:0.75;" x="316.206979" xlink:href="#mde39bded4a" y="176.670736"/>
     <use style="fill:#4c72b0;fill-opacity:0.3;stroke:#ffffff;stroke-opacity:0.3;stroke-width:0.75;" x="289.278358" xlink:href="#mde39bded4a" y="195.684759"/>
     <use style="fill:#4c72b0;fill-opacity:0.3;stroke:#ffffff;stroke-opacity:0.3;stroke-width:0.75;" x="261.131185" xlink:href="#mde39bded4a" y="167.282145"/>
     <use style="fill:#4c72b0;fill-opacity:0.3;stroke:#ffffff;stroke-opacity:0.3;stroke-width:0.75;" x="315.232672" xlink:href="#mde39bded4a" y="208.641528"/>
     <use style="fill:#4c72b0;fill-opacity:0.3;stroke:#ffffff;stroke-opacity:0.3;stroke-width:0.75;" x="263.410906" xlink:href="#mde39bded4a" y="137.870427"/>
     <use style="fill:#4c72b0;fill-opacity:0.3;stroke:#ffffff;stroke-opacity:0.3;stroke-width:0.75;" x="281.199014" xlink:href="#mde39bded4a" y="179.669053"/>
     <use style="fill:#4c72b0;fill-opacity:0.3;stroke:#ffffff;stroke-opacity:0.3;stroke-width:0.75;" x="259.815409" xlink:href="#mde39bded4a" y="118.949405"/>
     <use style="fill:#4c72b0;fill-opacity:0.3;stroke:#ffffff;stroke-opacity:0.3;stroke-width:0.75;" x="258.760854" xlink:href="#mde39bded4a" y="177.121604"/>
     <use style="fill:#4c72b0;fill-opacity:0.3;stroke:#ffffff;stroke-opacity:0.3;stroke-width:0.75;" x="210.389541" xlink:href="#mde39bded4a" y="85.08183"/>
     <use style="fill:#4c72b0;fill-opacity:0.3;stroke:#ffffff;stroke-opacity:0.3;stroke-width:0.75;" x="193.319534" xlink:href="#mde39bded4a" y="177.798124"/>
     <use style="fill:#4c72b0;fill-opacity:0.3;stroke:#ffffff;stroke-opacity:0.3;stroke-width:0.75;" x="174.356762" xlink:href="#mde39bded4a" y="193.189044"/>
     <use style="fill:#4c72b0;fill-opacity:0.3;stroke:#ffffff;stroke-opacity:0.3;stroke-width:0.75;" x="290.842978" xlink:href="#mde39bded4a" y="175.928477"/>
     <use style="fill:#4c72b0;fill-opacity:0.3;stroke:#ffffff;stroke-opacity:0.3;stroke-width:0.75;" x="302.788556" xlink:href="#mde39bded4a" y="188.064054"/>
     <use style="fill:#4c72b0;fill-opacity:0.3;stroke:#ffffff;stroke-opacity:0.3;stroke-width:0.75;" x="291.461966" xlink:href="#mde39bded4a" y="196.944668"/>
     <use style="fill:#4c72b0;fill-opacity:0.3;stroke:#ffffff;stroke-opacity:0.3;stroke-width:0.75;" x="258.160213" xlink:href="#mde39bded4a" y="211.93891"/>
     <use style="fill:#4c72b0;fill-opacity:0.3;stroke:#ffffff;stroke-opacity:0.3;stroke-width:0.75;" x="315.660077" xlink:href="#mde39bded4a" y="196.972022"/>
     <use style="fill:#4c72b0;fill-opacity:0.3;stroke:#ffffff;stroke-opacity:0.3;stroke-width:0.75;" x="210.354875" xlink:href="#mde39bded4a" y="178.932017"/>
     <use style="fill:#4c72b0;fill-opacity:0.3;stroke:#ffffff;stroke-opacity:0.3;stroke-width:0.75;" x="277.711977" xlink:href="#mde39bded4a" y="167.183552"/>
     <use style="fill:#4c72b0;fill-opacity:0.3;stroke:#ffffff;stroke-opacity:0.3;stroke-width:0.75;" x="274.458089" xlink:href="#mde39bded4a" y="132.846977"/>
     <use style="fill:#4c72b0;fill-opacity:0.3;stroke:#ffffff;stroke-opacity:0.3;stroke-width:0.75;" x="158.362722" xlink:href="#mde39bded4a" y="157.422655"/>
     <use style="fill:#4c72b0;fill-opacity:0.3;stroke:#ffffff;stroke-opacity:0.3;stroke-width:0.75;" x="245.527955" xlink:href="#mde39bded4a" y="184.706654"/>
     <use style="fill:#4c72b0;fill-opacity:0.3;stroke:#ffffff;stroke-opacity:0.3;stroke-width:0.75;" x="314.614897" xlink:href="#mde39bded4a" y="202.476283"/>
     <use style="fill:#4c72b0;fill-opacity:0.3;stroke:#ffffff;stroke-opacity:0.3;stroke-width:0.75;" x="187.088218" xlink:href="#mde39bded4a" y="189.293342"/>
     <use style="fill:#4c72b0;fill-opacity:0.3;stroke:#ffffff;stroke-opacity:0.3;stroke-width:0.75;" x="280.184875" xlink:href="#mde39bded4a" y="164.657356"/>
     <use style="fill:#4c72b0;fill-opacity:0.3;stroke:#ffffff;stroke-opacity:0.3;stroke-width:0.75;" x="259.353814" xlink:href="#mde39bded4a" y="176.748471"/>
     <use style="fill:#4c72b0;fill-opacity:0.3;stroke:#ffffff;stroke-opacity:0.3;stroke-width:0.75;" x="293.101172" xlink:href="#mde39bded4a" y="140.022266"/>
     <use style="fill:#4c72b0;fill-opacity:0.3;stroke:#ffffff;stroke-opacity:0.3;stroke-width:0.75;" x="259.376871" xlink:href="#mde39bded4a" y="151.255564"/>
     <use style="fill:#4c72b0;fill-opacity:0.3;stroke:#ffffff;stroke-opacity:0.3;stroke-width:0.75;" x="209.566909" xlink:href="#mde39bded4a" y="176.198132"/>
     <use style="fill:#4c72b0;fill-opacity:0.3;stroke:#ffffff;stroke-opacity:0.3;stroke-width:0.75;" x="248.087276" xlink:href="#mde39bded4a" y="146.560367"/>
     <use style="fill:#4c72b0;fill-opacity:0.3;stroke:#ffffff;stroke-opacity:0.3;stroke-width:0.75;" x="270.678905" xlink:href="#mde39bded4a" y="191.833291"/>
     <use style="fill:#4c72b0;fill-opacity:0.3;stroke:#ffffff;stroke-opacity:0.3;stroke-width:0.75;" x="281.144204" xlink:href="#mde39bded4a" y="188.813694"/>
     <use style="fill:#4c72b0;fill-opacity:0.3;stroke:#ffffff;stroke-opacity:0.3;stroke-width:0.75;" x="287.731983" xlink:href="#mde39bded4a" y="204.920397"/>
     <use style="fill:#4c72b0;fill-opacity:0.3;stroke:#ffffff;stroke-opacity:0.3;stroke-width:0.75;" x="153.064944" xlink:href="#mde39bded4a" y="185.735409"/>
     <use style="fill:#4c72b0;fill-opacity:0.3;stroke:#ffffff;stroke-opacity:0.3;stroke-width:0.75;" x="323.473507" xlink:href="#mde39bded4a" y="198.254917"/>
     <use style="fill:#4c72b0;fill-opacity:0.3;stroke:#ffffff;stroke-opacity:0.3;stroke-width:0.75;" x="319.413589" xlink:href="#mde39bded4a" y="190.743929"/>
     <use style="fill:#4c72b0;fill-opacity:0.3;stroke:#ffffff;stroke-opacity:0.3;stroke-width:0.75;" x="190.670612" xlink:href="#mde39bded4a" y="189.645142"/>
     <use style="fill:#4c72b0;fill-opacity:0.3;stroke:#ffffff;stroke-opacity:0.3;stroke-width:0.75;" x="239.204049" xlink:href="#mde39bded4a" y="190.043139"/>
     <use style="fill:#4c72b0;fill-opacity:0.3;stroke:#ffffff;stroke-opacity:0.3;stroke-width:0.75;" x="257.263136" xlink:href="#mde39bded4a" y="198.215545"/>
     <use style="fill:#4c72b0;fill-opacity:0.3;stroke:#ffffff;stroke-opacity:0.3;stroke-width:0.75;" x="298.820699" xlink:href="#mde39bded4a" y="150.572403"/>
     <use style="fill:#4c72b0;fill-opacity:0.3;stroke:#ffffff;stroke-opacity:0.3;stroke-width:0.75;" x="277.156121" xlink:href="#mde39bded4a" y="206.995816"/>
     <use style="fill:#4c72b0;fill-opacity:0.3;stroke:#ffffff;stroke-opacity:0.3;stroke-width:0.75;" x="278.965596" xlink:href="#mde39bded4a" y="197.382454"/>
     <use style="fill:#4c72b0;fill-opacity:0.3;stroke:#ffffff;stroke-opacity:0.3;stroke-width:0.75;" x="299.984417" xlink:href="#mde39bded4a" y="204.606496"/>
     <use style="fill:#4c72b0;fill-opacity:0.3;stroke:#ffffff;stroke-opacity:0.3;stroke-width:0.75;" x="172.362711" xlink:href="#mde39bded4a" y="136.44049"/>
     <use style="fill:#4c72b0;fill-opacity:0.3;stroke:#ffffff;stroke-opacity:0.3;stroke-width:0.75;" x="273.97787" xlink:href="#mde39bded4a" y="163.011314"/>
     <use style="fill:#4c72b0;fill-opacity:0.3;stroke:#ffffff;stroke-opacity:0.3;stroke-width:0.75;" x="231.784969" xlink:href="#mde39bded4a" y="163.499984"/>
     <use style="fill:#4c72b0;fill-opacity:0.3;stroke:#ffffff;stroke-opacity:0.3;stroke-width:0.75;" x="155.816085" xlink:href="#mde39bded4a" y="175.257254"/>
     <use style="fill:#4c72b0;fill-opacity:0.3;stroke:#ffffff;stroke-opacity:0.3;stroke-width:0.75;" x="251.88591" xlink:href="#mde39bded4a" y="164.110286"/>
     <use style="fill:#4c72b0;fill-opacity:0.3;stroke:#ffffff;stroke-opacity:0.3;stroke-width:0.75;" x="324.019024" xlink:href="#mde39bded4a" y="193.738607"/>
     <use style="fill:#4c72b0;fill-opacity:0.3;stroke:#ffffff;stroke-opacity:0.3;stroke-width:0.75;" x="264.181261" xlink:href="#mde39bded4a" y="163.174073"/>
     <use style="fill:#4c72b0;fill-opacity:0.3;stroke:#ffffff;stroke-opacity:0.3;stroke-width:0.75;" x="249.458707" xlink:href="#mde39bded4a" y="195.527079"/>
     <use style="fill:#4c72b0;fill-opacity:0.3;stroke:#ffffff;stroke-opacity:0.3;stroke-width:0.75;" x="255.819001" xlink:href="#mde39bded4a" y="172.213406"/>
     <use style="fill:#4c72b0;fill-opacity:0.3;stroke:#ffffff;stroke-opacity:0.3;stroke-width:0.75;" x="271.414013" xlink:href="#mde39bded4a" y="200.458485"/>
     <use style="fill:#4c72b0;fill-opacity:0.3;stroke:#ffffff;stroke-opacity:0.3;stroke-width:0.75;" x="139.418586" xlink:href="#mde39bded4a" y="149.17959"/>
     <use style="fill:#4c72b0;fill-opacity:0.3;stroke:#ffffff;stroke-opacity:0.3;stroke-width:0.75;" x="267.277278" xlink:href="#mde39bded4a" y="158.366363"/>
     <use style="fill:#4c72b0;fill-opacity:0.3;stroke:#ffffff;stroke-opacity:0.3;stroke-width:0.75;" x="299.154642" xlink:href="#mde39bded4a" y="183.932377"/>
     <use style="fill:#4c72b0;fill-opacity:0.3;stroke:#ffffff;stroke-opacity:0.3;stroke-width:0.75;" x="242.094015" xlink:href="#mde39bded4a" y="120.031451"/>
     <use style="fill:#4c72b0;fill-opacity:0.3;stroke:#ffffff;stroke-opacity:0.3;stroke-width:0.75;" x="134.370837" xlink:href="#mde39bded4a" y="193.521613"/>
     <use style="fill:#4c72b0;fill-opacity:0.3;stroke:#ffffff;stroke-opacity:0.3;stroke-width:0.75;" x="260.526461" xlink:href="#mde39bded4a" y="166.700686"/>
     <use style="fill:#4c72b0;fill-opacity:0.3;stroke:#ffffff;stroke-opacity:0.3;stroke-width:0.75;" x="277.564886" xlink:href="#mde39bded4a" y="154.421949"/>
     <use style="fill:#4c72b0;fill-opacity:0.3;stroke:#ffffff;stroke-opacity:0.3;stroke-width:0.75;" x="294.932564" xlink:href="#mde39bded4a" y="171.881886"/>
     <use style="fill:#4c72b0;fill-opacity:0.3;stroke:#ffffff;stroke-opacity:0.3;stroke-width:0.75;" x="265.64472" xlink:href="#mde39bded4a" y="173.924526"/>
     <use style="fill:#4c72b0;fill-opacity:0.3;stroke:#ffffff;stroke-opacity:0.3;stroke-width:0.75;" x="231.267943" xlink:href="#mde39bded4a" y="173.029752"/>
     <use style="fill:#4c72b0;fill-opacity:0.3;stroke:#ffffff;stroke-opacity:0.3;stroke-width:0.75;" x="187.200781" xlink:href="#mde39bded4a" y="138.694636"/>
     <use style="fill:#4c72b0;fill-opacity:0.3;stroke:#ffffff;stroke-opacity:0.3;stroke-width:0.75;" x="238.713546" xlink:href="#mde39bded4a" y="194.63401"/>
     <use style="fill:#4c72b0;fill-opacity:0.3;stroke:#ffffff;stroke-opacity:0.3;stroke-width:0.75;" x="251.804229" xlink:href="#mde39bded4a" y="175.662356"/>
     <use style="fill:#4c72b0;fill-opacity:0.3;stroke:#ffffff;stroke-opacity:0.3;stroke-width:0.75;" x="232.416878" xlink:href="#mde39bded4a" y="158.275919"/>
     <use style="fill:#4c72b0;fill-opacity:0.3;stroke:#ffffff;stroke-opacity:0.3;stroke-width:0.75;" x="270.204048" xlink:href="#mde39bded4a" y="185.959195"/>
     <use style="fill:#4c72b0;fill-opacity:0.3;stroke:#ffffff;stroke-opacity:0.3;stroke-width:0.75;" x="123.283325" xlink:href="#mde39bded4a" y="189.979706"/>
     <use style="fill:#4c72b0;fill-opacity:0.3;stroke:#ffffff;stroke-opacity:0.3;stroke-width:0.75;" x="242.121994" xlink:href="#mde39bded4a" y="158.984193"/>
     <use style="fill:#4c72b0;fill-opacity:0.3;stroke:#ffffff;stroke-opacity:0.3;stroke-width:0.75;" x="224.5578" xlink:href="#mde39bded4a" y="158.92844"/>
     <use style="fill:#4c72b0;fill-opacity:0.3;stroke:#ffffff;stroke-opacity:0.3;stroke-width:0.75;" x="268.816931" xlink:href="#mde39bded4a" y="181.341985"/>
    </g>
   </g>
   <g id="LineCollection_1"/>
   <g id="LineCollection_2">
    <path clip-path="url(#p4b99ad780e)" d="M 270.436364 223.482043 
L 273.818182 224.084784 
L 277.2 224.554461 
L 283.963636 225.171609 
L 290.727273 225.452626 
L 297.490909 225.472331 
L 304.254545 225.26567 
L 311.018182 224.820469 
L 317.781818 224.062109 
L 324.545455 222.926862 
L 327.927273 222.182337 
L 331.309091 221.22671 
L 334.690909 220.138807 
L 338.072727 218.739638 
L 341.701996 216.858182 
L 344.947416 214.661818 
L 347.423544 212.465455 
L 349.265485 210.269091 
L 350.585378 208.072727 
L 351.426875 205.876364 
L 351.932707 203.68 
L 352.092417 201.483636 
L 351.915741 199.287273 
L 351.449411 197.090909 
L 350.77366 194.894545 
L 349.831888 192.698182 
L 347.266369 188.305455 
L 344.058228 183.912727 
L 340.472266 179.52 
L 331.118276 168.538182 
L 324.23477 159.752727 
L 319.463139 153.163636 
L 314.267004 146.574545 
L 311.018182 142.992771 
L 307.933058 139.985455 
L 304.254545 136.708293 
L 300.177202 133.396364 
L 294.109091 128.765077 
L 288.068107 124.610909 
L 287.345455 124.130915 
L 283.963636 122.130232 
L 280.24654 120.218182 
L 277.2 118.832196 
L 273.818182 117.540566 
L 270.436364 116.456748 
L 267.054545 115.593524 
L 263.672727 114.916067 
L 260.290909 114.47688 
L 256.909091 114.278517 
L 253.527273 114.330114 
L 250.145455 114.645568 
L 246.763636 115.239809 
L 243.381818 116.097368 
L 240 117.155556 
L 229.854545 120.733875 
L 226.472727 121.593292 
L 223.090909 122.164131 
L 219.709091 122.428999 
L 216.087348 122.414545 
L 209.563636 121.919779 
L 202.8 121.32 
L 199.418182 121.188018 
L 196.036364 121.247684 
L 192.654545 121.529051 
L 187.45597 122.414545 
L 185.890909 122.69134 
L 179.127273 124.260614 
L 165.6 128.037794 
L 162.218182 129.246652 
L 157.623429 131.2 
L 153.474053 133.396364 
L 150.119089 135.592727 
L 147.369823 137.789091 
L 145.142225 139.985455 
L 143.383477 142.181818 
L 141.927273 144.821717 
L 141.248432 146.574545 
L 140.787339 148.770909 
L 140.618187 150.967273 
L 140.578239 155.36 
L 140.335169 157.556364 
L 139.674822 159.752727 
L 138.42575 161.949091 
L 136.482218 164.145455 
L 133.739565 166.341818 
L 130.127999 168.538182 
L 125.018182 171.026869 
L 118.254545 174.115719 
L 114.872727 175.976859 
L 112.885246 177.323636 
L 110.581555 179.52 
L 109.249931 181.716364 
L 108.731927 183.912727 
L 108.94987 186.109091 
L 109.860426 188.305455 
L 111.490909 190.529218 
L 113.863394 192.698182 
L 114.872727 193.416798 
L 118.254545 195.473825 
L 121.689914 197.090909 
L 125.018182 198.336782 
L 128.4 199.416561 
L 135.163636 201.171165 
L 155.454545 205.960931 
L 162.218182 207.524222 
L 165.6 208.160755 
L 168.981818 208.658659 
L 172.363636 208.972825 
L 175.745455 209.082238 
L 179.127273 208.975032 
L 182.509091 208.650974 
L 186.14374 208.072727 
L 192.654545 206.743352 
L 196.592417 205.876364 
L 199.418182 205.361927 
L 202.8 204.888329 
L 206.181818 204.623444 
L 209.563636 204.613574 
L 212.945455 204.877043 
L 216.327273 205.399807 
L 219.709091 206.175888 
L 225.720228 208.072727 
L 226.472727 208.336625 
L 233.236364 211.023151 
L 250.145455 217.907536 
L 256.909091 220.208224 
L 263.672727 222.087853 
L 267.054545 222.85662 
L 270.436364 223.482043 
L 270.436364 223.482043 
" style="fill:none;stroke:#26292f;stroke-width:1.5;"/>
   </g>
   <g id="LineCollection_3">
    <path clip-path="url(#p4b99ad780e)" d="M 283.963636 219.191302 
L 290.727273 219.56398 
L 297.490909 219.59079 
L 304.254545 219.299482 
L 311.018182 218.699511 
L 314.4 218.262627 
L 317.781818 217.694223 
L 321.556786 216.858182 
L 324.545455 216.073188 
L 328.591626 214.661818 
L 331.309091 213.459796 
L 333.159117 212.465455 
L 334.690909 211.485096 
L 336.343705 210.269091 
L 338.57613 208.072727 
L 340.11306 205.876364 
L 341.051928 203.68 
L 341.510514 201.483636 
L 341.561621 199.287273 
L 341.241646 197.090909 
L 340.606357 194.894545 
L 339.663871 192.698182 
L 338.072727 189.984357 
L 337.005 188.305455 
L 333.638112 183.912727 
L 326.107191 175.127273 
L 321.163636 169.405584 
L 316.696471 164.145455 
L 310.865831 157.556364 
L 306.689386 153.163636 
L 304.254545 150.857392 
L 300.872727 147.916627 
L 297.490909 145.340829 
L 294.109091 143.068309 
L 288.701437 139.985455 
L 287.345455 139.247973 
L 280.581818 136.197507 
L 273.818182 133.86742 
L 270.436364 133.002754 
L 267.054545 132.338809 
L 263.672727 131.936335 
L 260.290909 131.790143 
L 256.909091 131.892669 
L 253.527273 132.230499 
L 250.145455 132.781312 
L 226.472727 137.851058 
L 212.945455 140.053273 
L 196.036364 142.683726 
L 192.654545 143.645989 
L 190.857608 144.378182 
L 190.425013 146.574545 
L 191.919047 148.770909 
L 192.654545 149.504894 
L 196.036364 154.914187 
L 196.213344 155.36 
L 196.898594 157.556364 
L 197.229936 159.752727 
L 197.100034 161.949091 
L 196.348851 164.145455 
L 196.036364 164.60426 
L 194.281931 166.341818 
L 192.654545 167.337826 
L 189.272727 168.590088 
L 185.890909 169.246324 
L 172.363636 171.051447 
L 168.981818 171.743942 
L 164.816215 172.930909 
L 162.218182 173.93012 
L 158.836364 175.57315 
L 156.030629 177.323636 
L 153.488224 179.52 
L 151.927734 181.716364 
L 151.503073 183.912727 
L 152.532628 186.109091 
L 155.454545 188.438437 
L 159.46691 190.501818 
L 165.530545 192.698182 
L 165.6 192.718356 
L 168.981818 193.583511 
L 172.363636 194.252457 
L 175.745455 194.702955 
L 179.127273 194.934329 
L 184.883773 194.894545 
L 189.272727 194.640515 
L 196.036364 194.128159 
L 199.418182 193.973806 
L 202.8 193.981121 
L 206.181818 194.212055 
L 210.31948 194.894545 
L 212.945455 195.469117 
L 216.327273 196.481401 
L 223.488397 199.287273 
L 229.854545 202.176685 
L 243.381818 208.412425 
L 250.145455 211.245263 
L 256.909091 213.713502 
L 263.672727 215.762314 
L 270.436364 217.343059 
L 273.818182 217.982314 
L 277.2 218.489158 
L 283.963636 219.191302 
L 283.963636 219.191302 
" style="fill:none;stroke:#2a303c;stroke-width:1.5;"/>
   </g>
   <g id="LineCollection_4">
    <path clip-path="url(#p4b99ad780e)" d="M 280.581818 214.681855 
L 283.963636 215.02704 
L 290.727273 215.390603 
L 297.490909 215.366773 
L 304.254545 214.964513 
L 311.018182 214.146407 
L 314.4 213.53456 
L 318.713599 212.465455 
L 321.163636 211.693613 
L 324.663542 210.269091 
L 328.400025 208.072727 
L 330.860234 205.876364 
L 332.433421 203.68 
L 333.317511 201.483636 
L 333.639688 199.287273 
L 333.489704 197.090909 
L 332.931343 194.894545 
L 332.010023 192.698182 
L 330.789913 190.501818 
L 329.343245 188.305455 
L 325.928129 183.912727 
L 310.849977 166.341818 
L 306.76076 161.949091 
L 302.185124 157.556364 
L 299.617499 155.36 
L 296.783119 153.163636 
L 293.600911 150.967273 
L 289.942135 148.770909 
L 287.345455 147.369526 
L 283.963636 145.801299 
L 280.267325 144.378182 
L 277.2 143.306023 
L 272.85978 142.181818 
L 270.436364 141.611708 
L 267.054545 141.036058 
L 263.672727 140.668565 
L 260.290909 140.490226 
L 256.909091 140.485465 
L 253.527273 140.640824 
L 250.145455 140.944064 
L 246.763636 141.383908 
L 240 142.583128 
L 236.618182 143.300486 
L 229.854545 145.071034 
L 225.358772 146.574545 
L 223.090909 147.508955 
L 219.709091 149.262508 
L 217.276251 150.967273 
L 215.188396 153.163636 
L 213.895368 155.36 
L 213.149962 157.556364 
L 212.714989 159.752727 
L 212.475154 161.949091 
L 211.762061 172.930909 
L 211.383034 177.323636 
L 211.545656 179.52 
L 212.288686 181.716364 
L 212.945455 182.639363 
L 213.681274 183.912727 
L 215.78844 186.109091 
L 216.327273 186.502988 
L 218.348954 188.305455 
L 219.709091 189.226764 
L 221.307488 190.501818 
L 231.527258 197.090909 
L 240 201.757433 
L 246.763636 205.043991 
L 250.145455 206.526047 
L 256.909091 209.169968 
L 263.672727 211.351293 
L 270.436364 213.045284 
L 273.818182 213.720042 
L 277.2 214.259871 
L 280.581818 214.681855 
L 280.581818 214.681855 
" style="fill:none;stroke:#2d3848;stroke-width:1.5;"/>
   </g>
   <g id="LineCollection_5">
    <path clip-path="url(#p4b99ad780e)" d="M 277.2 210.779604 
L 280.581818 211.232776 
L 283.963636 211.560207 
L 287.345455 211.770764 
L 290.727273 211.870397 
L 294.109091 211.861939 
L 297.490909 211.744647 
L 300.872727 211.513422 
L 304.254545 211.157655 
L 307.636364 210.659648 
L 309.662351 210.269091 
L 311.018182 209.985168 
L 314.4 209.076734 
L 317.271501 208.072727 
L 317.781818 207.858741 
L 321.163636 206.098389 
L 321.517398 205.876364 
L 324.097143 203.68 
L 324.545455 203.081125 
L 325.606704 201.483636 
L 326.331975 199.287273 
L 326.437616 197.090909 
L 326.035042 194.894545 
L 325.210151 192.698182 
L 324.545455 191.460894 
L 324.042939 190.501818 
L 322.622318 188.305455 
L 321.163636 186.338575 
L 320.99807 186.109091 
L 319.284064 183.912727 
L 317.781818 182.088372 
L 317.486521 181.716364 
L 315.699426 179.52 
L 314.4 177.964219 
L 313.887014 177.323636 
L 312.094112 175.127273 
L 311.018182 173.852615 
L 310.268718 172.930909 
L 308.409859 170.734545 
L 307.636364 169.863194 
L 306.485205 168.538182 
L 304.442466 166.341818 
L 304.254545 166.148255 
L 302.302892 164.145455 
L 300.872727 162.784809 
L 299.971238 161.949091 
L 297.490909 159.811656 
L 297.418946 159.752727 
L 294.600666 157.556364 
L 294.109091 157.192764 
L 291.39861 155.36 
L 290.727273 154.923872 
L 287.674942 153.163636 
L 287.345455 152.977613 
L 283.963636 151.300503 
L 283.172615 150.967273 
L 280.581818 149.864725 
L 277.408695 148.770909 
L 277.2 148.696352 
L 273.818182 147.686691 
L 270.436364 146.918862 
L 268.386416 146.574545 
L 267.054545 146.331895 
L 263.672727 145.912659 
L 260.290909 145.686826 
L 256.909091 145.641091 
L 253.527273 145.76673 
L 250.145455 146.058762 
L 246.763636 146.515945 
L 246.434797 146.574545 
L 243.381818 147.101039 
L 240 147.858614 
L 236.772956 148.770909 
L 236.618182 148.817135 
L 233.236364 150.00798 
L 231.021303 150.967273 
L 229.854545 151.56389 
L 227.2171 153.163636 
L 226.472727 153.756031 
L 224.689111 155.36 
L 223.090909 157.526022 
L 223.069964 157.556364 
L 222.03344 159.752727 
L 221.453318 161.949091 
L 221.189666 164.145455 
L 221.144613 166.341818 
L 221.250609 168.538182 
L 221.464998 170.734545 
L 221.769167 172.930909 
L 222.170711 175.127273 
L 222.706554 177.323636 
L 223.090909 178.499124 
L 223.390219 179.52 
L 224.256642 181.716364 
L 225.45649 183.912727 
L 226.472727 185.302421 
L 227.005051 186.109091 
L 228.867578 188.305455 
L 229.854545 189.233525 
L 231.105448 190.501818 
L 233.236364 192.269372 
L 233.7295 192.698182 
L 236.618182 194.826677 
L 236.708473 194.894545 
L 240 197.059618 
L 240.047847 197.090909 
L 243.381818 199.057684 
L 243.782795 199.287273 
L 246.763636 200.871407 
L 247.978101 201.483636 
L 250.145455 202.5249 
L 252.738315 203.68 
L 253.527273 204.023116 
L 256.909091 205.386978 
L 258.250944 205.876364 
L 260.290909 206.620255 
L 263.672727 207.708186 
L 264.962932 208.072727 
L 267.054545 208.676738 
L 270.436364 209.508637 
L 273.818182 210.194438 
L 274.266926 210.269091 
L 277.2 210.779604 
" style="fill:none;stroke:#313f56;stroke-width:1.5;"/>
   </g>
   <g id="LineCollection_6">
    <path clip-path="url(#p4b99ad780e)" d="M 280.581818 208.081754 
L 283.963636 208.396156 
L 287.345455 208.574594 
L 290.727273 208.620873 
L 294.109091 208.535191 
L 297.490909 208.313414 
L 299.738174 208.072727 
L 300.872727 207.940702 
L 304.254545 207.38099 
L 307.636364 206.606969 
L 310.069419 205.876364 
L 311.018182 205.525726 
L 314.4 203.92825 
L 314.828042 203.68 
L 317.478341 201.483636 
L 317.781818 201.055848 
L 318.867532 199.287273 
L 319.394445 197.090909 
L 319.265147 194.894545 
L 318.626403 192.698182 
L 317.781818 190.909076 
L 317.594402 190.501818 
L 316.280456 188.305455 
L 314.774513 186.109091 
L 314.4 185.611477 
L 313.16709 183.912727 
L 311.499268 181.716364 
L 311.018182 181.104907 
L 309.82146 179.52 
L 308.118923 177.323636 
L 307.636364 176.721314 
L 306.403815 175.127273 
L 304.623803 172.930909 
L 304.254545 172.497919 
L 302.778553 170.734545 
L 300.872727 168.627408 
L 300.792086 168.538182 
L 298.670164 166.341818 
L 297.490909 165.22009 
L 296.326171 164.145455 
L 294.109091 162.265771 
L 293.713764 161.949091 
L 290.756139 159.752727 
L 290.727273 159.732413 
L 287.345455 157.570718 
L 287.320225 157.556364 
L 283.963636 155.729915 
L 283.172514 155.36 
L 280.581818 154.176071 
L 277.903036 153.163636 
L 277.2 152.897579 
L 273.818182 151.837446 
L 270.436364 151.022674 
L 270.131363 150.967273 
L 267.054545 150.384311 
L 263.672727 149.957611 
L 260.290909 149.731333 
L 256.909091 149.69759 
L 253.527273 149.854871 
L 250.145455 150.207704 
L 246.763636 150.767372 
L 245.866189 150.967273 
L 243.381818 151.550569 
L 240 152.609062 
L 238.580759 153.163636 
L 236.618182 154.063547 
L 234.331059 155.36 
L 233.236364 156.166717 
L 231.620112 157.556364 
L 229.900096 159.752727 
L 229.854545 159.842231 
L 228.849916 161.949091 
L 228.288049 164.145455 
L 228.078024 166.341818 
L 228.122225 168.538182 
L 228.354024 170.734545 
L 228.733357 172.930909 
L 229.24517 175.127273 
L 229.854545 177.177456 
L 229.894994 177.323636 
L 230.638588 179.52 
L 231.580621 181.716364 
L 232.789994 183.912727 
L 233.236364 184.56178 
L 234.241225 186.109091 
L 236.038181 188.305455 
L 236.618182 188.888293 
L 238.175251 190.501818 
L 240 192.067105 
L 240.731281 192.698182 
L 243.381818 194.653775 
L 243.714037 194.894545 
L 246.763636 196.844129 
L 247.165704 197.090909 
L 250.145455 198.75311 
L 251.16518 199.287273 
L 253.527273 200.443709 
L 255.840162 201.483636 
L 256.909091 201.944495 
L 260.290909 203.271959 
L 261.4535 203.68 
L 263.672727 204.44664 
L 267.054545 205.46111 
L 268.67005 205.876364 
L 270.436364 206.333557 
L 273.818182 207.060863 
L 277.2 207.64027 
L 280.514574 208.072727 
L 280.581818 208.081754 
" style="fill:none;stroke:#354663;stroke-width:1.5;"/>
   </g>
   <g id="LineCollection_7">
    <path clip-path="url(#p4b99ad780e)" d="M 273.818182 204.05564 
L 277.2 204.636869 
L 280.581818 205.058965 
L 283.963636 205.32483 
L 287.345455 205.433109 
L 290.727273 205.377822 
L 294.109091 205.147588 
L 297.490909 204.724213 
L 300.872727 204.080298 
L 302.43272 203.68 
L 304.254545 203.088924 
L 307.636364 201.60927 
L 307.867666 201.483636 
L 310.573394 199.287273 
L 311.018182 198.606337 
L 311.858198 197.090909 
L 312.214595 194.894545 
L 311.917014 192.698182 
L 311.150664 190.501818 
L 311.018182 190.245466 
L 310.052581 188.305455 
L 308.75184 186.109091 
L 307.636364 184.408212 
L 307.324864 183.912727 
L 305.836938 181.716364 
L 304.294457 179.52 
L 304.254545 179.466028 
L 302.722293 177.323636 
L 301.075055 175.127273 
L 300.872727 174.873974 
L 299.343 172.930909 
L 297.490909 170.761261 
L 297.467981 170.734545 
L 295.418895 168.538182 
L 294.109091 167.263146 
L 293.126309 166.341818 
L 290.727273 164.301135 
L 290.531817 164.145455 
L 287.524646 161.949091 
L 287.345455 161.827438 
L 283.963636 159.763084 
L 283.944354 159.752727 
L 280.581818 158.047123 
L 279.435175 157.556364 
L 277.2 156.632774 
L 273.818182 155.499724 
L 273.292153 155.36 
L 270.436364 154.605085 
L 267.054545 153.952348 
L 263.672727 153.527 
L 260.290909 153.321323 
L 256.909091 153.336979 
L 253.527273 153.58483 
L 250.145455 154.08599 
L 246.763636 154.874469 
L 245.239598 155.36 
L 243.381818 156.052283 
L 240.36003 157.556364 
L 240 157.788317 
L 237.523169 159.752727 
L 236.618182 160.818855 
L 235.7814 161.949091 
L 234.774475 164.145455 
L 234.273588 166.341818 
L 234.137277 168.538182 
L 234.265895 170.734545 
L 234.594249 172.930909 
L 235.087045 175.127273 
L 235.736152 177.323636 
L 236.558628 179.52 
L 236.618182 179.649596 
L 237.532877 181.716364 
L 238.746412 183.912727 
L 240 185.728074 
L 240.259166 186.109091 
L 242.074322 188.305455 
L 243.381818 189.603144 
L 244.29667 190.501818 
L 246.763636 192.538633 
L 246.963442 192.698182 
L 250.137772 194.894545 
L 250.145455 194.899277 
L 253.527273 196.874104 
L 253.92854 197.090909 
L 256.909091 198.569806 
L 258.507109 199.287273 
L 260.290909 200.042356 
L 263.672727 201.312448 
L 264.192291 201.483636 
L 267.054545 202.397278 
L 270.436364 203.308438 
L 272.110274 203.68 
L 273.818182 204.05564 
" style="fill:none;stroke:#394e6f;stroke-width:1.5;"/>
   </g>
   <g id="LineCollection_8">
    <path clip-path="url(#p4b99ad780e)" d="M 277.2 201.599886 
L 280.581818 201.967203 
L 283.963636 202.142364 
L 287.345455 202.115599 
L 290.727273 201.869959 
L 293.431145 201.483636 
L 294.109091 201.362888 
L 297.490909 200.439962 
L 300.354806 199.287273 
L 300.872727 198.974286 
L 303.252211 197.090909 
L 304.254545 195.461042 
L 304.54349 194.894545 
L 304.842166 192.698182 
L 304.520423 190.501818 
L 304.254545 189.739272 
L 303.777132 188.305455 
L 302.76817 186.109091 
L 301.596098 183.912727 
L 300.872727 182.697206 
L 300.308632 181.716364 
L 298.934805 179.52 
L 297.490909 177.351303 
L 297.472732 177.323636 
L 295.89003 175.127273 
L 294.167462 172.930909 
L 294.109091 172.863341 
L 292.228927 170.734545 
L 290.727273 169.206523 
L 290.03701 168.538182 
L 287.507728 166.341818 
L 287.345455 166.213657 
L 284.484988 164.145455 
L 283.963636 163.8012 
L 280.791973 161.949091 
L 280.581818 161.83515 
L 277.2 160.259155 
L 275.874244 159.752727 
L 273.818182 159.005281 
L 270.436364 158.048456 
L 268.026247 157.556364 
L 267.054545 157.361942 
L 263.672727 156.946276 
L 260.290909 156.793831 
L 256.909091 156.915437 
L 253.527273 157.335389 
L 252.496409 157.556364 
L 250.145455 158.14326 
L 246.763636 159.441171 
L 246.156039 159.752727 
L 243.381818 161.66315 
L 243.052889 161.949091 
L 241.306633 164.145455 
L 240.319934 166.341818 
L 240 167.884294 
L 239.876223 168.538182 
L 239.812967 170.734545 
L 240 172.641138 
L 240.027759 172.930909 
L 240.461116 175.127273 
L 241.082443 177.323636 
L 241.893042 179.52 
L 242.919577 181.716364 
L 243.381818 182.513908 
L 244.197098 183.912727 
L 245.774003 186.109091 
L 246.763636 187.239171 
L 247.726169 188.305455 
L 250.11018 190.501818 
L 250.145455 190.529726 
L 253.039446 192.698182 
L 253.527273 193.017251 
L 256.626641 194.894545 
L 256.909091 195.04826 
L 260.290909 196.723594 
L 261.128184 197.090909 
L 263.672727 198.127014 
L 266.975865 199.287273 
L 267.054545 199.313543 
L 270.436364 200.262357 
L 273.818182 201.025401 
L 276.500808 201.483636 
L 277.2 201.599886 
" style="fill:none;stroke:#3d557c;stroke-width:1.5;"/>
   </g>
   <g id="LineCollection_9">
    <path clip-path="url(#p4b99ad780e)" d="M 273.818182 197.775164 
L 277.2 198.288558 
L 280.581818 198.556199 
L 283.963636 198.547724 
L 287.345455 198.213938 
L 290.727273 197.479383 
L 291.871053 197.090909 
L 294.109091 195.939967 
L 295.523474 194.894545 
L 297.025618 192.698182 
L 297.459909 190.501818 
L 297.244547 188.305455 
L 296.629736 186.109091 
L 295.761081 183.912727 
L 294.71636 181.716364 
L 294.109091 180.616715 
L 293.504577 179.52 
L 292.133298 177.323636 
L 290.727273 175.300577 
L 290.602942 175.127273 
L 288.807127 172.930909 
L 287.345455 171.343962 
L 286.743808 170.734545 
L 284.288221 168.538182 
L 283.963636 168.279518 
L 281.248539 166.341818 
L 280.581818 165.91385 
L 277.378344 164.145455 
L 277.2 164.055443 
L 273.818182 162.652207 
L 271.619556 161.949091 
L 270.436364 161.594762 
L 267.054545 160.895058 
L 263.672727 160.513361 
L 260.290909 160.471572 
L 256.909091 160.813548 
L 253.527273 161.612365 
L 252.631967 161.949091 
L 250.145455 163.19325 
L 248.817716 164.145455 
L 246.841159 166.341818 
L 246.763636 166.48899 
L 245.87831 168.538182 
L 245.475403 170.734545 
L 245.472869 172.930909 
L 245.775376 175.127273 
L 246.332029 177.323636 
L 246.763636 178.510489 
L 247.141531 179.52 
L 248.215705 181.716364 
L 249.568383 183.912727 
L 250.145455 184.671583 
L 251.301464 186.109091 
L 253.442988 188.305455 
L 253.527273 188.378436 
L 256.182573 190.501818 
L 256.909091 191.00256 
L 259.63908 192.698182 
L 260.290909 193.056896 
L 263.672727 194.693004 
L 264.163672 194.894545 
L 267.054545 195.979921 
L 270.436364 197.026361 
L 270.711179 197.090909 
L 273.818182 197.775164 
" style="fill:none;stroke:#415c8a;stroke-width:1.5;"/>
   </g>
   <g id="LineCollection_10">
    <path clip-path="url(#p4b99ad780e)" d="M 270.436364 193.218356 
L 273.818182 193.956054 
L 277.2 194.352773 
L 280.581818 194.333845 
L 283.963636 193.766103 
L 286.722261 192.698182 
L 287.345455 192.284251 
L 289.039349 190.501818 
L 289.848404 188.305455 
L 289.875713 186.109091 
L 289.425966 183.912727 
L 288.658805 181.716364 
L 287.650309 179.52 
L 287.345455 178.990986 
L 286.327693 177.323636 
L 284.751769 175.127273 
L 283.963636 174.191235 
L 282.78892 172.930909 
L 280.581818 170.87892 
L 280.401476 170.734545 
L 277.246846 168.538182 
L 277.2 168.50939 
L 273.818182 166.822443 
L 272.535042 166.341818 
L 270.436364 165.635259 
L 267.054545 164.907106 
L 263.672727 164.623514 
L 260.290909 164.868611 
L 256.909091 165.786512 
L 255.787939 166.341818 
L 253.527273 168.053551 
L 253.092682 168.538182 
L 251.950214 170.734545 
L 251.507812 172.930909 
L 251.564768 175.127273 
L 252.003732 177.323636 
L 252.767407 179.52 
L 253.527273 181.063626 
L 253.880393 181.716364 
L 255.425914 183.912727 
L 256.909091 185.615926 
L 257.395569 186.109091 
L 259.999406 188.305455 
L 260.290909 188.514108 
L 263.508752 190.501818 
L 263.672727 190.590405 
L 267.054545 192.096047 
L 268.780845 192.698182 
L 270.436364 193.218356 
" style="fill:none;stroke:#446496;stroke-width:1.5;"/>
   </g>
   <g id="LineCollection_11">
    <path clip-path="url(#p4b99ad780e)" d="M 273.818182 188.528022 
L 277.2 188.313674 
L 277.225042 188.305455 
L 280.581818 186.135087 
L 280.601335 186.109091 
L 281.215221 183.912727 
L 281.034142 181.716364 
L 280.581818 180.349923 
L 280.25548 179.52 
L 278.870543 177.323636 
L 277.2 175.245884 
L 277.077454 175.127273 
L 274.2397 172.930909 
L 273.818182 172.656933 
L 270.436364 171.133498 
L 268.660222 170.734545 
L 267.054545 170.428017 
L 263.672727 170.616586 
L 263.331124 170.734545 
L 260.290909 172.573943 
L 259.999885 172.930909 
L 259.219074 175.127273 
L 259.256136 177.323636 
L 259.885304 179.52 
L 260.290909 180.293163 
L 261.215619 181.716364 
L 263.151839 183.912727 
L 263.672727 184.373206 
L 266.214785 186.109091 
L 267.054545 186.588584 
L 270.436364 187.916072 
L 272.467927 188.305455 
L 273.818182 188.528022 
" style="fill:none;stroke:#486ba3;stroke-width:1.5;"/>
   </g>
   <g id="LineCollection_12"/>
   <g id="patch_3">
    <path d="M 54 252 
L 54 34.56 
" style="fill:none;stroke:#ffffff;stroke-linecap:square;stroke-linejoin:miter;stroke-width:1.25;"/>
   </g>
   <g id="patch_4">
    <path d="M 388.8 252 
L 388.8 34.56 
" style="fill:none;stroke:#ffffff;stroke-linecap:square;stroke-linejoin:miter;stroke-width:1.25;"/>
   </g>
   <g id="patch_5">
    <path d="M 54 252 
L 388.8 252 
" style="fill:none;stroke:#ffffff;stroke-linecap:square;stroke-linejoin:miter;stroke-width:1.25;"/>
   </g>
   <g id="patch_6">
    <path d="M 54 34.56 
L 388.8 34.56 
" style="fill:none;stroke:#ffffff;stroke-linecap:square;stroke-linejoin:miter;stroke-width:1.25;"/>
   </g>
   <g id="text_16">
    <!-- spearmancorr=-0.34 -->
    <defs>
     <path d="M 3.078125 15.484375 
L 11.765625 16.84375 
Q 12.5 11.625 15.84375 8.84375 
Q 19.1875 6.0625 25.203125 6.0625 
Q 31.25 6.0625 34.171875 8.515625 
Q 37.109375 10.984375 37.109375 14.3125 
Q 37.109375 17.28125 34.515625 19 
Q 32.71875 20.171875 25.53125 21.96875 
Q 15.875 24.421875 12.140625 26.203125 
Q 8.40625 27.984375 6.46875 31.125 
Q 4.546875 34.28125 4.546875 38.09375 
Q 4.546875 41.546875 6.125 44.5 
Q 7.71875 47.46875 10.453125 49.421875 
Q 12.5 50.921875 16.03125 51.96875 
Q 19.578125 53.03125 23.640625 53.03125 
Q 29.734375 53.03125 34.34375 51.265625 
Q 38.96875 49.515625 41.15625 46.5 
Q 43.359375 43.5 44.1875 38.484375 
L 35.59375 37.3125 
Q 35.015625 41.3125 32.203125 43.546875 
Q 29.390625 45.796875 24.265625 45.796875 
Q 18.21875 45.796875 15.625 43.796875 
Q 13.03125 41.796875 13.03125 39.109375 
Q 13.03125 37.40625 14.109375 36.03125 
Q 15.1875 34.625 17.484375 33.6875 
Q 18.796875 33.203125 25.25 31.453125 
Q 34.578125 28.953125 38.25 27.359375 
Q 41.9375 25.78125 44.03125 22.75 
Q 46.140625 19.734375 46.140625 15.234375 
Q 46.140625 10.84375 43.578125 6.953125 
Q 41.015625 3.078125 36.171875 0.953125 
Q 31.34375 -1.171875 25.25 -1.171875 
Q 15.140625 -1.171875 9.84375 3.03125 
Q 4.546875 7.234375 3.078125 15.484375 
z
" id="ArialMT-115"/>
     <path d="M 6.59375 -19.875 
L 6.59375 51.859375 
L 14.59375 51.859375 
L 14.59375 45.125 
Q 17.4375 49.078125 21 51.046875 
Q 24.5625 53.03125 29.640625 53.03125 
Q 36.28125 53.03125 41.359375 49.609375 
Q 46.4375 46.1875 49.015625 39.953125 
Q 51.609375 33.734375 51.609375 26.3125 
Q 51.609375 18.359375 48.75 11.984375 
Q 45.90625 5.609375 40.453125 2.21875 
Q 35.015625 -1.171875 29 -1.171875 
Q 24.609375 -1.171875 21.109375 0.6875 
Q 17.625 2.546875 15.375 5.375 
L 15.375 -19.875 
z
M 14.546875 25.640625 
Q 14.546875 15.625 18.59375 10.84375 
Q 22.65625 6.0625 28.421875 6.0625 
Q 34.28125 6.0625 38.453125 11.015625 
Q 42.625 15.96875 42.625 26.375 
Q 42.625 36.28125 38.546875 41.203125 
Q 34.46875 46.140625 28.8125 46.140625 
Q 23.1875 46.140625 18.859375 40.890625 
Q 14.546875 35.640625 14.546875 25.640625 
z
" id="ArialMT-112"/>
     <path d="M 40.4375 6.390625 
Q 35.546875 2.25 31.03125 0.53125 
Q 26.515625 -1.171875 21.34375 -1.171875 
Q 12.796875 -1.171875 8.203125 3 
Q 3.609375 7.171875 3.609375 13.671875 
Q 3.609375 17.484375 5.34375 20.625 
Q 7.078125 23.78125 9.890625 25.6875 
Q 12.703125 27.59375 16.21875 28.5625 
Q 18.796875 29.25 24.03125 29.890625 
Q 34.671875 31.15625 39.703125 32.90625 
Q 39.75 34.71875 39.75 35.203125 
Q 39.75 40.578125 37.25 42.78125 
Q 33.890625 45.75 27.25 45.75 
Q 21.046875 45.75 18.09375 43.578125 
Q 15.140625 41.40625 13.71875 35.890625 
L 5.125 37.0625 
Q 6.296875 42.578125 8.984375 45.96875 
Q 11.671875 49.359375 16.75 51.1875 
Q 21.828125 53.03125 28.515625 53.03125 
Q 35.15625 53.03125 39.296875 51.46875 
Q 43.453125 49.90625 45.40625 47.53125 
Q 47.359375 45.171875 48.140625 41.546875 
Q 48.578125 39.3125 48.578125 33.453125 
L 48.578125 21.734375 
Q 48.578125 9.46875 49.140625 6.21875 
Q 49.703125 2.984375 51.375 0 
L 42.1875 0 
Q 40.828125 2.734375 40.4375 6.390625 
z
M 39.703125 26.03125 
Q 34.90625 24.078125 25.34375 22.703125 
Q 19.921875 21.921875 17.671875 20.9375 
Q 15.4375 19.96875 14.203125 18.09375 
Q 12.984375 16.21875 12.984375 13.921875 
Q 12.984375 10.40625 15.640625 8.0625 
Q 18.3125 5.71875 23.4375 5.71875 
Q 28.515625 5.71875 32.46875 7.9375 
Q 36.421875 10.15625 38.28125 14.015625 
Q 39.703125 17 39.703125 22.796875 
z
" id="ArialMT-97"/>
     <path d="M 6.5 0 
L 6.5 51.859375 
L 14.40625 51.859375 
L 14.40625 44 
Q 17.4375 49.515625 20 51.265625 
Q 22.5625 53.03125 25.640625 53.03125 
Q 30.078125 53.03125 34.671875 50.203125 
L 31.640625 42.046875 
Q 28.421875 43.953125 25.203125 43.953125 
Q 22.3125 43.953125 20.015625 42.21875 
Q 17.71875 40.484375 16.75 37.40625 
Q 15.28125 32.71875 15.28125 27.15625 
L 15.28125 0 
z
" id="ArialMT-114"/>
     <path d="M 6.59375 0 
L 6.59375 51.859375 
L 14.5 51.859375 
L 14.5 44.484375 
Q 20.21875 53.03125 31 53.03125 
Q 35.6875 53.03125 39.625 51.34375 
Q 43.5625 49.65625 45.515625 46.921875 
Q 47.46875 44.1875 48.25 40.4375 
Q 48.734375 37.984375 48.734375 31.890625 
L 48.734375 0 
L 39.9375 0 
L 39.9375 31.546875 
Q 39.9375 36.921875 38.90625 39.578125 
Q 37.890625 42.234375 35.28125 43.8125 
Q 32.671875 45.40625 29.15625 45.40625 
Q 23.53125 45.40625 19.453125 41.84375 
Q 15.375 38.28125 15.375 28.328125 
L 15.375 0 
z
" id="ArialMT-110"/>
     <path d="M 52.828125 42.09375 
L 5.5625 42.09375 
L 5.5625 50.296875 
L 52.828125 50.296875 
z
M 52.828125 20.359375 
L 5.5625 20.359375 
L 5.5625 28.5625 
L 52.828125 28.5625 
z
" id="ArialMT-61"/>
     <path d="M 3.171875 21.484375 
L 3.171875 30.328125 
L 30.171875 30.328125 
L 30.171875 21.484375 
z
" id="ArialMT-45"/>
    </defs>
    <g style="fill:#262626;" transform="translate(153.663281 28.56)scale(0.15 -0.15)">
     <use xlink:href="#ArialMT-115"/>
     <use x="50" xlink:href="#ArialMT-112"/>
     <use x="105.615234" xlink:href="#ArialMT-101"/>
     <use x="161.230469" xlink:href="#ArialMT-97"/>
     <use x="216.845703" xlink:href="#ArialMT-114"/>
     <use x="250.146484" xlink:href="#ArialMT-109"/>
     <use x="333.447266" xlink:href="#ArialMT-97"/>
     <use x="389.0625" xlink:href="#ArialMT-110"/>
     <use x="444.677734" xlink:href="#ArialMT-99"/>
     <use x="494.677734" xlink:href="#ArialMT-111"/>
     <use x="550.292969" xlink:href="#ArialMT-114"/>
     <use x="583.59375" xlink:href="#ArialMT-114"/>
     <use x="616.894531" xlink:href="#ArialMT-61"/>
     <use x="675.292969" xlink:href="#ArialMT-45"/>
     <use x="708.59375" xlink:href="#ArialMT-48"/>
     <use x="764.208984" xlink:href="#ArialMT-46"/>
     <use x="791.992188" xlink:href="#ArialMT-51"/>
     <use x="847.607422" xlink:href="#ArialMT-52"/>
    </g>
   </g>
  </g>
 </g>
 <defs>
  <clipPath id="p4b99ad780e">
   <rect height="217.44" width="334.8" x="54" y="34.56"/>
  </clipPath>
 </defs>
</svg>
